<?xml version="1.0" encoding="utf-8"?>
<svg version="1.1" xmlns:xlink="http://www.w3.org/1999/xlink" width="99px" height="39px" xmlns="http://www.w3.org/2000/svg">
  <g transform="matrix(1 0 0 1 -55 -274 )">
    <path d="M 99 34.93547082654954  C 98.95064804909072 37.2580522675211  98.06233702079524 39  96.9272421903287 39  C 96.9272421903287 39  2.072787931711206 39  2.072787931711206 39  C 0.937693101244664 39  0 37.16127790622278  0 34.93547082654954  C 0 34.93547082654954  0 4.064529173450456  0 4.064529173450456  C 0 1.8387220937772142  0.937693101244664 0  2.072787931711206 0  C 2.072787931711206 0  96.9272421903287 0  96.9272421903287 0  C 98.06233702079524 0  99 1.8387220937772142  99 4.064529173450456  C 99 4.064529173450456  99 34.93547082654954  99 34.93547082654954  Z " fill-rule="nonzero" fill="#466da1" stroke="none" transform="matrix(1 0 0 1 55 274 )" />
  </g>
</svg>