<?xml version="1.0" encoding="utf-8"?>
<svg version="1.1" xmlns:xlink="http://www.w3.org/1999/xlink" width="7px" height="11px" xmlns="http://www.w3.org/2000/svg">
  <g transform="matrix(1 0 0 1 -1031 -367 )">
    <path d="M 0 11  L 0 0.19296489138145653  L 1.5135174145869719 0.19296489138145653  L 1.5135174145869719 1.4473691959684651  C 1.5135174145869719 1.4473691959684651  1.6081032317662851 1.4473691959684651  1.6081032317662851 1.4473691959684651  C 1.7026977107382435 1.2543866336303389  1.7973008444550094 1.06139819055887  1.986489802398926 0.8684156282207439  C 2.175678760342843 0.6754330658826176  2.3648648145775897 0.48244462281114897  2.6486482585413027 0.2894620604730227  C 2.9324317025050157 0.09647949813489644  3.3108067146836797 0  3.7837791024956338 0  C 4.445940434155829 0  4.918915697485602 0.19298254795980513  5.486482585413029 0.482456398656155  C 5.959454973224982 0.771930249352505  6.337829985403646 1.2543807241403542  6.621613429367359 1.8333284255330542  C 6.905396873331072 2.4122761269257538  7 3.1841945860549314  7 4.052616080630697  C 7 4.921037575206462  6.905396873331072 5.596494235914055  6.621613429367359 6.271933182530016  C 6.337829985403646 6.8508808839227155  5.959454973224982 7.333337253822228  5.486482585413029 7.71930237849848  C 5.013510197601073 8.008776229194831  4.445940434155829 8.201758777154636  3.7837791024956338 8.201758777154636  C 3.3108067146836797 8.201758777154636  2.9324317025050157 8.105255720140567  2.6486482585413027 8.008764438971504  C 2.3648648145775897 7.815781876633379  2.0810842813708845 7.622793433561908  1.986489802398926 7.429810871223783  C 1.7973008444550094 7.236828308885657  1.7026977107382435 7.043869312615863  1.6081032317662851 6.850886750277737  C 1.6081032317662851 6.850886750277737  1.5135174145869719 6.850886750277737  1.5135174145869719 6.850886750277737  L 1.5135174145869719 11  L 0 11  Z M 1.7027034829173944 2.701744053753798  C 1.5135145249734776 3.0877091784300505  1.4189171634358626 3.570165548329563  1.4189171634358626 4.149113249722263  C 1.4189171634358626 4.728060951114963  1.5135145249734776 5.210517321014477  1.7027034829173944 5.596482445690728  C 1.8918924408613111 5.982447570366981  2.081078495096058 6.368412680664912  2.364861939059771 6.561395243003037  C 2.648645383023484 6.754377805341164  3.0270203952021477 6.947354472567627  3.499992783014102 6.947354472567627  C 3.972965170826056 6.947354472567627  4.351354616976516 6.850869093699387  4.635138060940228 6.561395243003037  C 4.918921504903942 6.271921392306688  5.2027020381106475 5.982447570366981  5.297296517082605 5.596482445690728  C 5.486485475026523 5.210517321014477  5.486482585413029 4.728060951114963  5.486482585413029 4.149113249722263  C 5.486482585413029 3.6666568510661084  5.391890996054563 3.1842004524099536  5.297296517082605 2.701744053753798  C 5.2027020381106475 2.219287655097643  4.918921504903942 1.929813818779614  4.635138060940228 1.7368312564414878  C 4.351354616976516 1.5438486941033616  3.972965170826056 1.350872026876899  3.499992783014102 1.350872026876899  C 3.0270203952021477 1.350872026876899  2.648645383023484 1.4473574057451377  2.364861939059771 1.7368312564414878  C 2.081078495096058 1.929813818779614  1.7972979618893525 2.3157789290775455  1.7027034829173944 2.701744053753798  Z " fill-rule="nonzero" fill="#2c3b51" stroke="none" transform="matrix(1 0 0 1 1031 367 )" />
  </g>
</svg>