<?xml version="1.0" encoding="utf-8"?>
<svg version="1.1" xmlns:xlink="http://www.w3.org/1999/xlink" width="6px" height="8px" xmlns="http://www.w3.org/2000/svg">
  <g transform="matrix(1 0 0 1 -1001 -332 )">
    <path d="M 3.619048772394684 7.905876608455882  C 3.523810721871314 7.905876608455801  3.142858526873621 8  2.6666682813525577 8  C 2.190478035831495 8  1.7142863427697597 7.905879483503453  1.3333341406762789 7.717644186580882  C 0.9523819385827983 7.529408889658311  0.6666678083000506 7.247061701381908  0.38095364963415257 6.8705911075367645  C 0.09523949096825447 6.4941205136916205  0 6.117641336777631  0 5.552935431985294  C 0 5.082347196691176  0.09524095270050162 4.800002883462345  0.28571705374724193 4.517649931066176  C 0.4761931547939823 4.235296978670007  0.6666663323762283 4.047050209606395  0.9523804910421263 3.8588149126838234  C 1.2380946497080245 3.670579615761252  1.5238087799907722 3.576467717395109  1.9047609820842526 3.4823500689338234  C 2.2857131841777334 3.3882324204725376  2.571425866919809 3.388235295520109  2.9523780690132897 3.2941176470588234  C 3.4285683145343526 3.1999999985975376  3.8095248592498496 3.1999942555147056  4.095239017915747 3.1999942555147056  C 4.380953176581645 3.1999942555147056  4.571426354163892 3.1058794821009914  4.761902455210632 3.0117618336397056  C 4.857140505734002 2.91764418517842  4.9523756469844535 2.8235322868122776  4.9523756469844535 2.635296989889706  C 4.9523756469844535 2.1647087545955883  4.857143422102709 1.7882266886094038  4.57142926343681 1.5058737362132353  C 4.2857151047709126 1.2235207838170667  3.9047600359792383 1.1294088924632353  3.3333317186474423 1.1294088924632353  C 2.761903401315646 1.1294088924632353  2.380949780064644 1.2235207838170667  1.9999975779711634 1.5058737362132353  C 1.6190453758776828 1.7882266886094038  1.428572191199649 1.9764648325303023  1.3333341406762789 2.2588177849264706  C 1.3333341406762789 2.2588177849264706  0.19047319177382127 1.8823529411764706  0.19047319177382127 1.8823529411764706  C 0.38094929282056156 1.411764705882353  0.6666663323762283 1.0352970011094038  0.9523804910421263 0.7529440487132353  C 1.2380946497080245 0.47059109631706686  1.6190453758776828 0.28235007033628573  1.9999975779711634 0.188232421875  C 2.380949780064644 0.09411477341371424  2.7619063247801403 0  3.142858526873621 0  C 3.4285726855395193 0  3.7142809972764286 0  3.999995155942327 0.09410903033088235  C 4.285709314608225 0.1882266787921681  4.666661488318555 0.2823529383715461  4.9523756469844535 0.47058823529411764  C 5.23808980565035 0.6588235322166892  5.523806845206018 0.9411707204930922  5.714282946252758 1.3176413143382353  C 5.904759047299498 1.6941119081833784  6 2.164705893572639  6 2.823529411764706  C 6 2.823529411764706  6 7.905876608455882  6 7.905876608455882  L 4.857146317184052 7.905876608455882  L 4.857146317184052 6.8705911075367645  C 4.857146317184052 6.8705911075367645  4.761902455210632 6.8705911075367645  4.761902455210632 6.8705911075367645  C 4.666664404687261 7.058826404459336  4.57143217270973 7.247053076239192  4.38095607166299 7.4352883731617645  C 4.190479970616249 7.623523670084336  3.9047629310605823 7.811758959994596  3.619048772394684 7.905876608455882  Z M 1.7142877903104314 6.494111902573529  C 2.0000019489763297 6.7764648549696975  2.380951227605316 6.8705911075367645  2.857141473126379 6.8705911075367645  C 3.3333317186474423 6.8705911075367645  3.7142809972764286 6.776470591040218  3.999995155942327 6.588235294117647  C 4.285709314608225 6.399999997195075  4.571426354163892 6.211761839249554  4.761902455210632 5.835291245404411  C 4.952378556257372 5.552938293008243  5.047619508957873 5.27058536866132  5.047619508957873 4.894114774816176  C 5.047619508957873 4.894114774816176  5.047619508957873 3.764705882352941  5.047619508957873 3.764705882352941  C 4.952381458434504 3.858823530814227  4.857140505734002 3.8588206557666553  4.761902455210632 3.952938304227941  C 4.571426354163892 4.0470559526892265  4.380951714849398 4.047061695772059  4.190475613802658 4.047061695772059  C 3.9999995127559176 4.047061695772059  3.8095190690871616 4.141170726102941  3.523804910421263 4.141170726102941  C 3.3333288093745232 4.141170726102941  3.1428527154235706 4.1411764691857735  3.0476146649002 4.235294117647059  C 2.7619005062343023 4.235294117647059  2.4761921944973926 4.3294088910607735  2.190478035831495 4.423526539522059  C 1.9047638771655966 4.517644187983344  1.7142834334968404 4.611756086349487  1.5238073324501 4.799991383272059  C 1.3333312314033599 4.9882266801946304  1.2380975447893683 5.17646483814015  1.2380975447893683 5.552935431985294  C 1.2380975447893683 5.9294060258304375  1.4285736316445334 6.305876605650957  1.7142877903104314 6.494111902573529  Z " fill-rule="nonzero" fill="#466da1" stroke="none" fill-opacity="0.30196078431372547" transform="matrix(1 0 0 1 1001 332 )" />
  </g>
</svg>