<?xml version="1.0" encoding="utf-8"?>
<svg version="1.1" xmlns:xlink="http://www.w3.org/1999/xlink" width="6px" height="8px" xmlns="http://www.w3.org/2000/svg">
  <g transform="matrix(1 0 0 1 -958 -457 )">
    <path d="M 1.4285724665850443 2.120496812195283  C 1.2380961348687198 2.4096538754623604  1.1428550668299118 2.7951789509291327  1.1428550668299118 3.2771073705574794  C 1.1428550668299118 3.2771073705574794  1.1428550668299118 8  1.1428550668299118 8  L 0 8  L 0 0.09639156684094803  L 1.1428550668299118 0.09639156684094803  L 1.1428550668299118 1.3493936920440923  C 1.1428550668299118 1.3493936920440923  1.2380917780498526 1.3493936920440923  1.2380917780498526 1.3493936920440923  C 1.428568109766177 0.9638509505963804  1.7142840477872923 0.5783082235112548  2.095236711219941 0.3855368527873988  C 2.4761893746525896 0.09637978952032179  2.95238016846442 0  3.523809177804986 0  C 4 0  4.47619226973744 0.0963739152225948  4.857144933170089 0.2891452859464507  C 5.238097596602738 0.48191665667030675  5.523813534623852 0.8674593837554324  5.714289866340177 1.2530021252031445  C 5.904766198056501 1.7349305448314911  6 2.2168707417804643  6 2.891570517770081  C 6 2.891570517770081  6 7.903637847735445  6 7.903637847735445  L 4.857144933170089 7.903637847735445  C 4.857144933170089 7.903637847735445  4.857144933170089 2.987962084611029  4.857144933170089 2.987962084611029  C 4.857144933170089 2.409647958076875  4.6666686156453565 1.9277195671737004  4.380954110975074 1.5421768257259885  C 4.095239606304791 1.1566340842782765  3.6190458890249264 1.0602484060976416  3.1428550668299113 1.0602484060976416  C 2.761902403397263 1.0602484060976416  2.4761893746525896 1.1566223213202365  2.095236711219941 1.3493936920440923  C 1.8095222065496583 1.5421650627679482  1.5238106324432064 1.7349540707475715  1.4285724665850443 2.120496812195283  Z " fill-rule="nonzero" fill="#466da1" stroke="none" fill-opacity="0.30196078431372547" transform="matrix(1 0 0 1 958 457 )" />
  </g>
</svg>