<?xml version="1.0" encoding="utf-8"?>
<svg version="1.1" xmlns:xlink="http://www.w3.org/1999/xlink" width="6px" height="8px" xmlns="http://www.w3.org/2000/svg">
  <g transform="matrix(1 0 0 1 -958 -332 )">
    <path d="M 1.4285724665850443 2.1204782065965744  C 1.2380961348687198 2.506020239259563  1.1428550668299118 2.891574020496407  1.1428550668299118 3.277116053159396  C 1.1428550668299118 3.277116053159396  1.1428550668299118 8  1.1428550668299118 8  L 0 8  L 0 0.09639138963395466  L 1.1428550668299118 0.09639138963395466  L 1.1428550668299118 1.3494059185695717  C 1.1428550668299118 1.3494059185695717  1.2380917780498526 1.3494059185695717  1.2380917780498526 1.3494059185695717  C 1.428568109766177 0.9638638859065831  1.7142840477872923 0.5783218676061542  2.095236711219941 0.38555085127465993  C 2.4761893746525896 0.09639431959613859  2.95238016846442 0  3.523809177804986 0  C 4 0  4.47619226973744 0.09638844530921098  4.857144933170089 0.2891594616407053  C 5.238097596602738 0.4819304779721996  5.523813534623852 0.8674724962726286  5.714289866340177 1.2530145289356172  C 5.904766198056501 1.7349420625830732  6 2.216866666268345  6 2.8915652018847355  C 6 2.8915652018847355  6 7.903608610366046  6 7.903608610366046  L 4.857144933170089 7.903608610366046  C 4.857144933170089 7.903608610366046  4.857144933170089 2.9879565915186905  4.857144933170089 2.9879565915186905  C 4.857144933170089 2.4096435281616473  4.6666686156453565 1.9277160232393113  4.380954110975074 1.5421739905763225  C 4.095239606304791 1.156631957913334  3.6190458890249264 1.0602464569288665  3.1428550668299113 1.0602464569288665  C 2.761902403397263 1.0602464569288665  2.4761893746525896 1.1566349022380775  2.095236711219941 1.3494059185695717  C 1.8095222065496583 1.542176934901066  1.5238106324432064 1.734936173933586  1.4285724665850443 2.1204782065965744  Z " fill-rule="nonzero" fill="#466da1" stroke="none" fill-opacity="0.30196078431372547" transform="matrix(1 0 0 1 958 332 )" />
  </g>
</svg>