<?xml version="1.0" encoding="utf-8"?>
<svg version="1.1" xmlns:xlink="http://www.w3.org/1999/xlink" width="6px" height="8px" xmlns="http://www.w3.org/2000/svg">
  <g transform="matrix(1 0 0 1 -1001 -582 )">
    <path d="M 3.619048772394684 7.905876608455882  C 3.523810721871314 7.905876608455776  3.142858526873621 8  2.6666682813525577 8  C 2.190478035831495 8  1.7142863427697597 7.905865122290217  1.3333341406762789 7.717629825367647  C 0.9523819385827983 7.529394528445075  0.6666678083000506 7.247047340168672  0.38095364963415257 6.870576746323529  C 0.09523949096825447 6.494106152478386  0 6.1176413367776314  0 5.552935431985294  C 0 5.082347196691177  0.09524095270050162 4.79998852224911  0.28571705374724193 4.517635569852941  C 0.4761931547939823 4.235282617456773  0.6666663323762283 4.0470645708196304  0.9523804910421263 3.858829273897059  C 1.2380946497080245 3.6705939769744873  1.5238087799907722 3.576453356181874  1.9047609820842526 3.4823357077205883  C 2.2857131841777334 3.3882180592593025  2.571425866919809 3.388235295520109  2.9523780690132897 3.2941176470588234  C 3.4285683145343526 3.1999999985975376  3.8095248592498496 3.1999942555147056  4.095239017915747 3.1999942555147056  C 4.380953176581645 3.1999942555147056  4.571426354163892 3.1058651208877563  4.761902455210632 3.0117474724264706  C 4.857140505734002 2.9176298239651848  4.9523756469844535 2.823517925599042  4.9523756469844535 2.6352826286764706  C 4.9523756469844535 2.164694393382353  4.857143422102709 1.788241049822639  4.57142926343681 1.5058880974264706  C 4.2857151047709126 1.223535145030302  3.9047600359792383 1.12939453125  3.3333317186474423 1.12939453125  C 2.761903401315646 1.12939453125  2.380949780064644 1.223535145030302  1.9999975779711634 1.5058880974264706  C 1.6190453758776828 1.788241049822639  1.428572191199649 1.976464832530302  1.3333341406762789 2.2588177849264706  C 1.3333341406762789 2.2588177849264706  0.19047319177382127 1.8823529411764706  0.19047319177382127 1.8823529411764706  C 0.38094929282056156 1.4117647058823528  0.6666663323762283 1.0352826398961685  0.9523804910421263 0.7529296875  C 1.2380946497080245 0.4705767351038316  1.6190453758776828 0.28233570912305045  1.9999975779711634 0.1882180606617647  C 2.380949780064644 0.09410041220047893  2.7619063247801403 0  3.142858526873621 0  C 3.4285726855395193 0  3.7142809972764286 0  3.999995155942327 0.09412339154411764  C 4.285709314608225 0.1882410400054034  4.666661488318555 0.2823529383715461  4.9523756469844535 0.47058823529411764  C 5.23808980565035 0.6588235322166891  5.523806845206018 0.9411707204930922  5.714282946252758 1.3176413143382353  C 5.904759047299498 1.6941119081833782  6 2.1647058935726387  6 2.8235294117647056  C 6 2.8235294117647056  6 7.905876608455882  6 7.905876608455882  L 4.857146317184052 7.905876608455882  L 4.857146317184052 6.870576746323529  C 4.857146317184052 6.870576746323529  4.761902455210632 6.870576746323529  4.761902455210632 6.870576746323529  C 4.666664404687261 7.058812043246101  4.57143217270973 7.247053076239193  4.38095607166299 7.4352883731617645  C 4.190479970616249 7.623523670084336  3.9047629310605823 7.811758959994597  3.619048772394684 7.905876608455882  Z M 1.7142877903104314 6.588235294117647  C 2.0000019489763297 6.776470591040218  2.380951227605316 6.964700137867647  2.857141473126379 6.964700137867647  C 3.3333317186474423 6.964700137867647  3.7142809972764286 6.870593982584336  3.999995155942327 6.6823586856617645  C 4.285709314608225 6.494123388739193  4.571426354163892 6.3058708695804375  4.761902455210632 5.929400275735294  C 4.952378556257372 5.647047323339126  5.047619508957873 5.364694398992202  5.047619508957873 4.988223805147059  C 5.047619508957873 4.988223805147059  5.047619508957873 3.858829273897059  5.047619508957873 3.858829273897059  C 4.952381458434504 3.952946922358344  4.857140505734002 3.952929686097538  4.761902455210632 4.047047334558823  C 4.571426354163892 4.141164983020109  4.380951714849398 4.141170726102941  4.190475613802658 4.141170726102941  C 3.9999995127559176 4.141170726102941  3.8095190690871616 4.235294117647059  3.523804910421263 4.235294117647059  C 3.3333288093745232 4.235294117647059  3.1428527154235706 4.235299860729891  3.0476146649002 4.329417509191177  C 2.7619005062343023 4.329417509191177  2.4761921944973926 4.423517921391656  2.190478035831495 4.517635569852941  C 1.9047638771655966 4.6117532183142265  1.7142834334968404 4.7058651166803696  1.5238073324501 4.894100413602941  C 1.3333312314033599 5.082335710525513  1.2380975447893683 5.270588229684268  1.2380975447893683 5.647058823529411  C 1.2380975447893683 6.023529417374554  1.4285736316445334 6.399999997195075  1.7142877903104314 6.588235294117647  Z " fill-rule="nonzero" fill="#466da1" stroke="none" fill-opacity="0.30196078431372547" transform="matrix(1 0 0 1 1001 582 )" />
  </g>
</svg>