<?xml version="1.0" encoding="utf-8"?>
<svg version="1.1" xmlns:xlink="http://www.w3.org/1999/xlink" width="7px" height="11px" xmlns="http://www.w3.org/2000/svg">
  <g transform="matrix(1 0 0 1 -1044 -364 )">
    <path d="M 0 11  L 0 10.900894906866451  L 0 9.711694274520587  C 0 9.711694274520587  3.6478962231305845 5.94594267647261  3.6478962231305845 5.94594267647261  C 4.042262087173548 5.54954649213434  4.338036463168861 5.1531442828974505  4.633810868546719 4.855847137260294  C 4.9295852739245785 4.558549991623136  5.126759163467495 4.2612589299522305  5.225350629478236 3.963961784315073  C 5.3239420954889765 3.666664638677916  5.422530549788741 3.369373577007011  5.422530549788741 3.0720764313698536  C 5.422530549788741 2.675680247031583  5.323951123276268 2.378389170593769  5.126768191254787 2.1801910784246337  C 4.929585259233306 1.9819929862554986  4.732390309750465 1.6846898083362687  4.436615904372607 1.5855907622517014  C 4.140841498994748 1.4864917161671336  3.845067122999435 1.3873805759846038  3.4507012589564714 1.3873805759846038  C 3.056335394913509 1.3873805759846038  2.7605610189181955 1.4864917161671336  2.464786613540337 1.5855907622517014  C 2.169012208162478 1.6846898083362687  1.9718323025432456 1.9819687832926662  1.7746493705217643 2.2792659289298234  C 1.5774664385002826 2.5765630745669807  1.5774694502112587 2.873860190670321  1.5774694502112587 3.2702563750085916  C 1.5774694502112587 3.2702563750085916  0 3.2702563750085916  0 3.2702563750085916  C 0 2.5765630745669807  0.1971829173302085 2.0810859852910855  0.4929573227080674 1.5855907622517014  C 0.7887317280859262 1.0900955392123168  1.1831005597660464 0.6936872755429927  1.7746493705217643 0.39639012990583544  C 2.2676066932298315 0.0990929842686783  2.8591585010052527 0  3.5492987410435286 0  C 4.239438981081804 0  4.830990788857226 0.0990929842686783  5.323948111565293 0.39639012990583544  C 5.816905434273361 0.6936872755429927  6.211268271914074 0.9909904460787683  6.507042677291933 1.4864856691181525  C 6.802817082669792 1.9819808921575366  6.901402517912943 2.4774821400955394  6.901402517912943 3.0720764313698536  C 6.901402517912943 3.4684726157081243  6.802814063613179 3.864850636749089  6.704222597602438 4.26124682108736  C 6.507039665580956 4.657643005425631  6.309853736539772 5.05405732352739  5.915487872496808 5.549552546566775  C 5.521122008453846 6.045047769606159  5.028173706187434 6.540524858882055  4.338033466149158 7.234218159323666  C 4.338033466149158 7.234218159323666  2.169024255006383 9.513514330881849  2.169024255006383 9.513514330881849  L 2.169024255006383 9.612619424015397  L 7 9.612619424015397  L 7 11  L 0 11  Z " fill-rule="nonzero" fill="#2c3b51" stroke="none" transform="matrix(1 0 0 1 1044 364 )" />
  </g>
</svg>