<?xml version="1.0" encoding="utf-8"?>
<svg version="1.1" xmlns:xlink="http://www.w3.org/1999/xlink" width="8px" height="8px" xmlns="http://www.w3.org/2000/svg">
  <g transform="matrix(1 0 0 1 -1013 -616 )">
    <path d="M 6.105261467171545 7.523809177804985  C 5.473683001923409 7.809523682475268  4.736841500961704 8  4 8  C 3.1578954005830457 8  2.526316998076591 7.809523682475268  1.8947385328284552 7.523809177804985  C 1.2631600675803194 7.238094673134703  0.8421045994169541 6.761903850939687  0.5263153667928862 6.095236711219941  C 0.2105261341688183 5.523807701879375  0 4.761890794674678  0 3.999985467809381  C 0 3.2380801409440836  0.2105261341688183 2.4761922981206244  0.5263153667928862 1.9047632887800587  C 0.8421045994169541 1.3333342794394931  1.368423166035569 0.8571434856276634  1.8947385328284552 0.4761908221950147  C 2.4210538996213415 0.095238158762366  3.1578954005830457 0  4 0  C 4.842104599416954 0  5.473683001923409 0.19047631752473193  6.105261467171545 0.4761908221950147  C 6.736839932419681 0.8571434856276634  7.157895400583046 1.238096149060312  7.473684633207114 1.9047632887800587  C 7.789473865831182 2.5714304284998057  8 3.2380801409440836  8 3.999985467809381  C 8 4.761890794674678  7.789473865831182 5.523807701879375  7.473684633207114 6.095236711219941  C 7.157895400583046 6.666665720560506  6.631576833964431 7.142856514372336  6.105261467171545 7.523809177804985  Z M 2.736846332071138 6.380939578784454  C 3.052635564695206 6.571415910500778  3.473684633207114 6.761915488045457  4 6.761915488045457  C 4.526315366792886 6.761915488045457  4.947364435304794 6.666654083454737  5.263153667928862 6.380939578784454  C 5.57894290055293 6.095225074114172  5.894744956008043 5.8095105978270745  6.000008030935162 5.4285579343944255  C 6.2105341807894 5.0476052709617765  6.210530965278251 4.571420267319646  6.210530965278251 4.095229445124631  C 6.210530965278251 3.6190386229296165  6.105271105862282 3.1428536192874863  6.000008030935162 2.7619009558548377  C 5.789481881080924 2.380948292422189  5.57894290055293 1.9999898388198407  5.263153667928862 1.714275334149558  C 4.947364435304794 1.428560829479275  4.526315366792886 1.3333284892697936  4 1.3333284892697936  C 3.473684633207114 1.3333284892697936  3.052635564695206 1.428560829479275  2.736846332071138 1.714275334149558  C 2.42105709944707 1.9999898388198407  2.1052711058622817 2.285710133659823  2.000008030935162 2.7619009558548377  C 1.7894818810809237 3.1428536192874863  1.7894850965920726 3.6190386229296165  1.7894850965920726 4.095229445124631  C 1.7894850965920726 4.571420267319646  1.894744956008043 5.0476052709617765  2.000008030935162 5.4285579343944255  C 2.210534180789401 5.8095105978270745  2.42105709944707 6.19046324706813  2.736846332071138 6.380939578784454  Z " fill-rule="nonzero" fill="#2c3b51" stroke="none" transform="matrix(1 0 0 1 1013 616 )" />
  </g>
</svg>