<?xml version="1.0" encoding="utf-8"?>
<svg version="1.1" xmlns:xlink="http://www.w3.org/1999/xlink" width="226px" height="39px" xmlns="http://www.w3.org/2000/svg">
  <g transform="matrix(1 0 0 1 -1004 -620 )">
    <path d="M 226 34.93547082654955  C 225.88733797922126 37.161277906222786  223.85942502155132 39  221.26819863597373 39  C 221.26819863597373 39  4.731805661741232 39  4.731805661741232 39  C 2.1405792761636335 39  0 37.161277906222786  0 34.93547082654955  C 0 34.93547082654955  0 4.064529173450456  0 4.064529173450456  C 0 1.8387220937772137  2.1405792761636335 0  4.731805661741232 0  C 4.731805661741232 0  221.26819863597373 0  221.26819863597373 0  C 223.85942502155132 0  226 1.8387220937772137  226 4.064529173450456  C 226 4.064529173450456  226 34.93547082654955  226 34.93547082654955  Z " fill-rule="nonzero" fill="#466da1" stroke="none" transform="matrix(1 0 0 1 1004 620 )" />
  </g>
</svg>