<?xml version="1.0" encoding="utf-8"?>
<svg version="1.1" xmlns:xlink="http://www.w3.org/1999/xlink" width="6px" height="8px" xmlns="http://www.w3.org/2000/svg">
  <g transform="matrix(1 0 0 1 -1001 -457 )">
    <path d="M 3.619048772394684 7.905876608455883  C 3.523810721871314 7.905876608455777  3.142858526873621 8  2.6666682813525577 8  C 2.190478035831495 8  1.7142863427697597 7.905893844716689  1.3333341406762789 7.717658547794118  C 0.9523819385827983 7.529423250871546  0.6666678083000506 7.247047340168673  0.38095364963415257 6.87057674632353  C 0.09523949096825447 6.494106152478388  0 6.1176413367776314  0 5.552935431985294  C 0 5.0823471966911775  0.09524095270050162 4.79998852224911  0.28571705374724193 4.517635569852942  C 0.4761931547939823 4.2352826174567735  0.6666663323762283 4.0470645708196304  0.9523804910421263 3.858829273897059  C 1.2380946497080245 3.6705939769744877  1.5238087799907722 3.576482078608345  1.9047609820842526 3.482364430147059  C 2.2857131841777334 3.388246781685773  2.571425866919809 3.3882352955201096  2.9523780690132897 3.294117647058824  C 3.4285683145343526 3.1999999985975376  3.8095248592498496 3.199994255514706  4.095239017915747 3.199994255514706  C 4.380953176581645 3.199994255514706  4.571426354163892 3.1058938433142274  4.761902455210632 3.0117761948529416  C 4.857140505734002 2.9176585463916553  4.9523756469844535 2.823517925599042  4.9523756469844535 2.635282628676471  C 4.9523756469844535 2.1646943933823533  4.857143422102709 1.788241049822639  4.57142926343681 1.5058880974264708  C 4.2857151047709126 1.2235351450303023  3.9047600359792383 1.1294232536764708  3.3333317186474423 1.1294232536764708  C 2.761903401315646 1.1294232536764708  2.380949780064644 1.2235351450303023  1.9999975779711634 1.5058880974264708  C 1.6190453758776828 1.788241049822639  1.428572191199649 1.9764648325303025  1.3333341406762789 2.258817784926471  C 1.3333341406762789 2.258817784926471  0.19047319177382127 1.8823529411764708  0.19047319177382127 1.8823529411764708  C 0.38094929282056156 1.411764705882353  0.6666663323762283 1.0352826398961685  0.9523804910421263 0.7529296875  C 1.2380946497080245 0.4705767351038315  1.6190453758776828 0.28236443154952107  1.9999975779711634 0.1882467830882353  C 2.380949780064644 0.09412913462694955  2.7619063247801403 0  3.142858526873621 0  C 3.4285726855395193 0  3.7142809972764286 0  3.999995155942327 0.09412339154411765  C 4.285709314608225 0.18824104000540343  4.666661488318555 0.2823529383715462  4.9523756469844535 0.4705882352941177  C 5.23808980565035 0.6588235322166892  5.523806845206018 0.9411707204930924  5.714282946252758 1.3176413143382355  C 5.904759047299498 1.6941119081833786  6 2.164705893572639  6 2.823529411764706  C 6 2.823529411764706  6 7.905876608455883  6 7.905876608455883  L 4.857146317184052 7.905876608455883  L 4.857146317184052 6.87057674632353  C 4.857146317184052 6.87057674632353  4.761902455210632 6.87057674632353  4.761902455210632 6.87057674632353  C 4.666664404687261 7.0588120432461015  4.57143217270973 7.247053076239194  4.38095607166299 7.435288373161765  C 4.190479970616249 7.623523670084337  3.9047629310605823 7.811758959994598  3.619048772394684 7.905876608455883  Z M 1.7142877903104314 6.588235294117648  C 2.0000019489763297 6.870588246513815  2.380951227605316 6.964700137867648  2.857141473126379 6.964700137867648  C 3.3333317186474423 6.964700137867648  3.7142809972764286 6.870593982584337  3.999995155942327 6.682358685661765  C 4.285709314608225 6.494123388739194  4.571426354163892 6.3058708695804375  4.761902455210632 5.929400275735294  C 4.952378556257372 5.647047323339127  5.047619508957873 5.364694398992202  5.047619508957873 4.988223805147059  C 5.047619508957873 4.988223805147059  5.047619508957873 3.858829273897059  5.047619508957873 3.858829273897059  C 4.952381458434504 3.9529469223583447  4.857140505734002 3.952929686097538  4.761902455210632 4.047047334558823  C 4.571426354163892 4.141164983020109  4.380951714849398 4.141170726102942  4.190475613802658 4.141170726102942  C 3.9999995127559176 4.141170726102942  3.8095190690871616 4.235294117647059  3.523804910421263 4.235294117647059  C 3.3333288093745232 4.235294117647059  3.1428527154235706 4.235299860729891  3.0476146649002 4.329417509191177  C 2.7619005062343023 4.329417509191177  2.4761921944973926 4.423517921391657  2.190478035831495 4.517635569852942  C 1.9047638771655966 4.611753218314227  1.7142834334968404 4.70589383910684  1.5238073324501 4.894129136029412  C 1.3333312314033599 5.082364432951984  1.2380975447893683 5.270588229684269  1.2380975447893683 5.647058823529412  C 1.2380975447893683 6.023529417374554  1.4285736316445334 6.399999997195075  1.7142877903104314 6.588235294117648  Z " fill-rule="nonzero" fill="#466da1" stroke="none" fill-opacity="0.30196078431372547" transform="matrix(1 0 0 1 1001 457 )" />
  </g>
</svg>