<?xml version="1.0" encoding="utf-8"?>
<svg version="1.1" xmlns:xlink="http://www.w3.org/1999/xlink" width="7px" height="11px" xmlns="http://www.w3.org/2000/svg">
  <g transform="matrix(1 0 0 1 -1031 -491 )">
    <path d="M 0 11  L 0 0.19299433818313233  L 1.5135174145869719 0.19299433818313233  L 1.5135174145869719 1.4473691959684651  C 1.5135174145869719 1.4473691959684651  1.6081032317662851 1.4473691959684651  1.6081032317662851 1.4473691959684651  C 1.7026977107382435 1.2543866336303389  1.7973008444550094 1.06139819055887  1.986489802398926 0.8684156282207439  C 2.175678760342843 0.6754330658826176  2.3648648145775897 0.48247406961282474  2.6486482585413027 0.2894915072746985  C 2.9324317025050157 0.09650894493657226  3.3108067146836797 0  3.7837791024956338 0  C 4.445940434155829 0  4.918915697485602 0.19298254795980513  5.486482585413029 0.482456398656155  C 5.959454973224982 0.771930249352505  6.337829985403646 1.2543807241403542  6.621613429367359 1.8333284255330542  C 6.905396873331072 2.4122761269257538  7 3.1842240328566067  7 4.0526455274323725  C 7 4.921067022008138  6.905396873331072 5.596494235914055  6.621613429367359 6.271933182530016  C 6.337829985403646 6.8508808839227155  5.959454973224982 7.333337253822228  5.486482585413029 7.71930237849848  C 5.013510197601073 8.008776229194831  4.445940434155829 8.201758777154636  3.7837791024956338 8.201758777154636  C 3.3108067146836797 8.201758777154636  2.9324317025050157 8.105285166942243  2.6486482585413027 8.00879388577318  C 2.3648648145775897 7.815811323435053  2.0810842813708845 7.622822880363584  1.986489802398926 7.429840318025459  C 1.7973008444550094 7.236857755687332  1.7026977107382435 7.043869312615863  1.6081032317662851 6.850886750277737  C 1.6081032317662851 6.850886750277737  1.5135174145869719 6.850886750277737  1.5135174145869719 6.850886750277737  L 1.5135174145869719 11  L 0 11  Z M 1.7027034829173944 2.605276331463908  C 1.5135145249734776 2.9912414561401603  1.4189171634358626 3.4736978260396723  1.4189171634358626 4.0526455274323725  C 1.4189171634358626 4.631593228825072  1.5135145249734776 5.114049598724586  1.7027034829173944 5.500014723400838  C 1.8918924408613111 5.88597984807709  2.081078495096058 6.271944958375021  2.364861939059771 6.464927520713148  C 2.648645383023484 6.657910083051274  3.0270203952021477 6.850886750277737  3.499992783014102 6.850886750277737  C 3.972965170826056 6.850886750277737  4.351354616976516 6.754401371409497  4.635138060940228 6.464927520713148  C 4.918921504903942 6.175453670016799  5.2027020381106475 5.88597984807709  5.297296517082605 5.500014723400838  C 5.486485475026523 5.114049598724586  5.486482585413029 4.631593228825072  5.486482585413029 4.0526455274323725  C 5.486482585413029 3.5701891287762173  5.391890996054563 3.0877327301200626  5.297296517082605 2.605276331463908  C 5.2027020381106475 2.122819932807752  4.918921504903942 1.8333460964897237  4.635138060940228 1.6403635341515974  C 4.351354616976516 1.4473809718134711  3.972965170826056 1.2544043045870084  3.499992783014102 1.2544043045870084  C 3.0270203952021477 1.2544043045870084  2.648645383023484 1.3508896834552475  2.364861939059771 1.6403635341515974  C 2.081078495096058 1.9298373848479475  1.7972979618893525 2.219311206787655  1.7027034829173944 2.605276331463908  Z " fill-rule="nonzero" fill="#2c3b51" stroke="none" transform="matrix(1 0 0 1 1031 491 )" />
  </g>
</svg>