<?xml version="1.0" encoding="utf-8"?>
<svg version="1.1" xmlns:xlink="http://www.w3.org/1999/xlink" width="428px" height="254px" xmlns="http://www.w3.org/2000/svg">
  <g transform="matrix(1 0 0 1 -511 -121 )">
    <path d="M 428 15.663058392878428  C 428 15.663058392878428  427.9239166259766 238.3369279601764  427.9239166259766 238.3369279601764  C 427.9239166259766 246.89509671170944  423.24444444444447 253.99999999999997  414.7323947482639 253.99999999999997  C 414.7323947482639 253.99999999999997  10.8138121287028 253.99999999999997  10.8138121287028 253.99999999999997  C 6.785812907748753 253.99999999999997  0 247.05657191567576  0 238.3369279601764  C 0 238.3369279601764  0.07600461832351155 15.663058392878428  0.07600461832351155 15.663058392878428  C 0.07600461832351155 7.104889641345386  6.861793104807535 0  10.889792325761583 0  C 10.889792325761583 0  414.8083692762587 0  414.8083692762587 0  C 424.43333333333334 0  428 6.943414437379076  428 15.663058392878428  Z " fill-rule="nonzero" fill="#f6f6f6" stroke="none" transform="matrix(1 0 0 1 511 121 )" />
  </g>
</svg>