<?xml version="1.0" encoding="utf-8"?>
<svg version="1.1" xmlns:xlink="http://www.w3.org/1999/xlink" width="8px" height="11px" xmlns="http://www.w3.org/2000/svg">
  <g transform="matrix(1 0 0 1 -938 -489 )">
    <path d="M 1.6623367358464767 11  L 0 11  L 0 0  C 0 0  4.051951243195469 0  4.051951243195469 0  C 4.883120416168774 0  5.714287979041946 0.2018343982818502  6.233768704409395 0.5045860257802963  C 6.7532494297768455 0.8073376532787424  7.272733313417633 1.2110249163043294  7.5844217610234885 1.8165281713012218  C 7.896110208629344 2.321114197081518  8 2.926605121053372  8 3.6330255451155185  C 8 4.339445969177665  7.896110208629344 4.944967690636444  7.5844217610234885 5.449553716416741  C 7.272733313417633 5.954139742197037  6.857145599621107 6.458713436952294  6.233768704409395 6.761465064450741  C 5.610391809197685 7.064216691949188  4.883120416168774 7.266051090231037  4.051951243195469 7.266051090231037  C 4.051951243195469 7.266051090231037  1.2467545335465602 7.266051090231037  1.2467545335465602 7.266051090231037  L 1.2467545335465602 5.8532163775435935  C 1.2467545335465602 5.8532163775435935  3.844154197060403 5.8532163775435935  3.844154197060403 5.8532163775435935  C 4.363634922427853 5.8532163775435935  4.883118806068641 5.752280696902945  5.1948072536744965 5.550446283583259  C 5.506495701280351 5.348611870263574  5.818180951908539 5.1467897879689275  5.922077098530202 4.743120961329556  C 6.025973245151865 4.339452134690184  6.129874144665267 4.03669437175489  6.129874144665267 3.6330255451155185  C 6.129874144665267 3.229356718476147  6.025973245151865 2.825681756399928  5.922077098530202 2.5229301289014816  C 5.818180951908539 2.2201785014030357  5.506495701280351 1.9174392199674632  5.1948072536744965 1.7156048066477774  C 4.883118806068641 1.513770393328092  4.363634922427853 1.4128655101743697  3.844154197060403 1.4128655101743697  C 3.844154197060403 1.4128655101743697  1.6623367358464767 1.4128655101743697  1.6623367358464767 1.4128655101743697  L 1.6623367358464767 11  Z " fill-rule="nonzero" fill="#2c3b51" stroke="none" transform="matrix(1 0 0 1 938 489 )" />
  </g>
</svg>