<?xml version="1.0" encoding="utf-8"?>
<svg version="1.1" xmlns:xlink="http://www.w3.org/1999/xlink" width="428px" height="248px" xmlns="http://www.w3.org/2000/svg">
  <g transform="matrix(1 0 0 1 -445 -481 )">
    <path d="M 428 15.293064802120892  C 428 15.293064802120892  427.92392109910105 232.70692670773235  427.92392109910105 232.70692670773235  C 427.92392109910105 241.06293397561095  422.3107627137067 247.99999999999997  418.2827633374358 247.99999999999997  C 418.2827633374358 247.99999999999997  9.641209202596587 247.99999999999997  9.641209202596587 247.99999999999997  C 5.6132098263257175 247.99999999999997  0 241.2205941811586  0 232.70692670773235  C 0 232.70692670773235  0.0760046225704559 15.293064802120892  0.0760046225704559 15.293064802120892  C 0.0760046225704559 6.937057534242287  5.689190318486463 0  9.717189694757332 0  C 9.717189694757332 0  418.3587348833476 0  418.3587348833476 0  C 422.3867342596185 0  428 6.77939732869466  428 15.293064802120892  Z " fill-rule="nonzero" fill="#f6f6f6" stroke="none" transform="matrix(1 0 0 1 445 481 )" />
  </g>
</svg>