<?xml version="1.0" encoding="utf-8"?>
<svg version="1.1" xmlns:xlink="http://www.w3.org/1999/xlink" width="11px" height="8px" xmlns="http://www.w3.org/2000/svg">
  <g transform="matrix(1 0 0 1 -1010 -332 )">
    <path d="M 0 8  L 0 7.904770554875369  L 0 0.0952294451246317  L 1.257139660063244 0.0952294451246317  L 1.257139660063244 1.3333284892697939  C 1.257139660063244 1.3333284892697939  1.361907958984375 1.3333284892697939  1.361907958984375 1.3333284892697939  C 1.5714317716303325 0.952375825837145  1.7809587688673112 0.5714231765960888  2.2000063941592263 0.3809468448797643  C 2.6190540194511414 0.1904705131634399  3.0381048293340776 0  3.5619143531436013 0  C 4.085723876953125 0  4.609520599955604 0.09523234020948154  4.923806326729911 0.3809468448797643  C 5.342853952021827 0.5714231765960888  5.552380949258804 0.952375825837145  5.761904761904762 1.3333284892697939  C 5.761904761904762 1.3333284892697939  5.866673060825892 1.3333284892697939  5.866673060825892 1.3333284892697939  C 6.076196873471851 0.952375825837145  6.390476184231894 0.5714231765960888  6.80952380952381 0.3809468448797643  C 7.228571434815724 0.09523234020948154  7.752380927403768 0  8.38095238095238 0  C 9.114285701797122 0  9.742860339936755 0.19047342243988216  10.26666986374628 0.6666642446348969  C 10.790479387555804 1.1428550668299116  11 1.8095280534857276  11 2.6666715107302066  C 11 2.6666715107302066  11 7.904770554875369  11 7.904770554875369  L 9.742860339936755 7.904770554875369  C 9.742860339936755 7.904770554875369  9.742860339936755 2.6666715107302066  9.742860339936755 2.6666715107302066  C 9.742860339936755 2.0952425013896407  9.533336542901537 1.7142869712553268  9.219050816127233 1.428572466585044  C 8.904765089352924 1.1428579619147616  8.485711094878969 1.0476110895146613  8.066663469587054 1.0476110895146613  C 7.43809201603844 1.0476110895146613  7.01905722277505 1.2380874070393932  6.7047714960007445 1.523801911709676  C 6.390485769226437 1.8095164163799589  6.18096197219122 2.285710133659823  6.18096197219122 2.761900955854838  C 6.18096197219122 2.761900955854838  6.18096197219122 7.809526577560119  6.18096197219122 7.809526577560119  L 4.819054013206845 7.809526577560119  C 4.819054013206845 7.809526577560119  4.819054013206845 2.571427533414956  4.819054013206845 2.571427533414956  C 4.819054013206845 2.095236711219941  4.714282529694693 1.8095164163799589  4.399996802920387 1.523801911709676  C 4.08571107614608 1.2380874070393932  3.666673067070189 1.1428550668299116  3.2476254417782737 1.1428550668299116  C 2.9333397150039673 1.1428550668299116  2.6190444344565984 1.2380961348687198  2.304758707682292 1.428572466585044  C 1.9904729809079853 1.6190487983013686  1.780952384074529 1.8095222065496583  1.5714285714285714 2.095236711219941  C 1.3619047587826139 2.380951215890224  1.257139660063244 2.761909669492572  1.257139660063244 3.142862332925221  C 1.257139660063244 3.142862332925221  1.257139660063244 8  1.257139660063244 8  L 0 8  Z " fill-rule="nonzero" fill="#466da1" stroke="none" fill-opacity="0.30196078431372547" transform="matrix(1 0 0 1 1010 332 )" />
  </g>
</svg>