<?xml version="1.0" encoding="utf-8"?>
<svg version="1.1" xmlns:xlink="http://www.w3.org/1999/xlink" width="7px" height="8px" xmlns="http://www.w3.org/2000/svg">
  <g transform="matrix(1 0 0 1 -951 -616 )">
    <path d="M 3.865673783254743 7.957390427703764  C 3.552241149125524 8.0532627439621  3.4477620268212887 7.957390427703764  2.925374324030413 7.957390427703764  C 2.4029866212395365 7.957390427703764  1.880597330475254 7.861529818894689  1.4626871620152064 7.669785186378021  C 1.0447769935551587 7.478040553861352  0.6268668406634779 7.190435326821696  0.4179117564334541 6.90281837090365  C 0.20895667220343028 6.519329105870313  0 6.135816468796726  0 5.560582556960633  C 0 5.081220982812007  0.10448072584600818 4.7935981981699864  0.313435810076032 4.5059812422519405  C 0.5223908943060558 4.218364286333894  0.7313427714525332 4.026637225705679  1.0447754055817522 3.8348925931890103  C 1.3582080397109715 3.643147960672342  1.6716406427034571 3.547252243801581  2.0895508111635044 3.4513799275432464  C 2.507460979623552 3.3555076112849123  2.925377499977226 3.2596528526289434  3.2388101341064446 3.2596528526289434  C 3.7611978368973205 3.163780536370609  4.179104798273822 3.163774686217502  4.492537432403042 3.163774686217502  C 4.80597006653226 3.163774686217502  5.014921943678737 3.0678906696529546  5.223877027908761 2.9720183533946205  C 5.328354570023773 2.876146037136286  5.432836891627372 2.780279578174103  5.432836891627372 2.588534945657435  C 5.432836891627372 2.109173371508809  5.328357769323136 1.8215505868667876  5.014925135193918 1.5339336309487415  C 4.701492501064698 1.246316675030695  4.388063105155759 1.150450223211556  3.7611978368973205 1.150450223211556  C 3.2388101341064446 1.150450223211556  2.7164192553687556 1.246316675030695  2.4029866212395365 1.5339336309487415  C 2.0895539871103175 1.8215505868667876  1.8806005142062505 2.0133127484136444  1.7761229720912384 2.3009297043316903  C 1.7761229720912384 2.3009297043316903  0.20895986371860992 2.0132952050973674  0.20895986371860992 2.0132952050973674  C 0.4179149479486337 1.5339336309487415  0.6268652371217047 1.1504619378038579  1.0447754055817522 0.8628449818858116  C 1.4626855740418 0.5752280259677653  1.7761229720912384 0.3834717074309716  2.298510674882115 0.19172707491430346  C 2.716420843342162 0.09585475865596939  3.2388101341064446 0  3.7611978368973205 0  C 4.07463047102654 0  4.492540608349854 -2.3407755471541463E-05  4.805973242479073 0.09584890850286254  C 5.119405876608292 0.19172122476119663  5.537316013931607 0.2876169416319581  5.850748648060826 0.4793615741486263  C 6.164181282190045 0.6711062066652945  6.477609105693944 0.9587172910011016  6.686564189923969 1.3422065560344378  C 6.895519274153992 1.7256958210677744  7 2.205057366644224  7 2.7802912784803167  C 7 2.7802912784803167  7 7.957390427703764  7 7.957390427703764  L 5.328360945269949 7.957390427703764  L 5.328360945269949 6.90281837090365  C 5.328360945269949 6.90281837090365  5.223877027908761 6.90281837090365  5.223877027908761 6.90281837090365  C 5.11939948579375 7.094563003420318  4.910444409347909 7.28628422103847  4.701489325117885 7.478028853555139  C 4.492534240887862 7.669773486071808  4.179106417383963 7.86151811144543  3.865673783254743 7.957390427703764  Z M 2.0895508111635044 6.423456796755024  C 2.507460979623552 6.615201429271692  2.820898377672991 6.711062038080768  3.343286080463867 6.711062038080768  C 3.7611962489239144 6.711062038080768  4.179104798273822 6.615201429271692  4.492537432403042 6.423456796755024  C 4.80597006653226 6.231712164238355  5.11939948579375 6.039955845701562  5.223877027908761 5.752338889783516  C 5.432832112138786 5.464721933865469  5.432836891627372 5.177081605907172  5.432836891627372 4.889464649989126  C 5.432836891627372 4.889464649989126  5.432836891627372 3.8348925931890103  5.432836891627372 3.8348925931890103  C 5.328359349512359 3.9307649094473445  5.2238786236663515 3.9307473518449796  5.11940108155134 4.026619668103314  C 5.014923539436328 4.122491984361647  4.80597006653226 4.122497834514755  4.492537432403042 4.122497834514755  C 4.179104798273822 4.122497834514755  4.074628867484767 4.218376000926195  3.865673783254743 4.218376000926195  C 3.6567186990247196 4.218376000926195  3.447763622578879 4.218381851079303  3.343286080463867 4.314254167337636  C 3.0298534463346476 4.314254167337636  2.7164176518269825 4.410108925993606  2.507462567596959 4.5059812422519405  C 2.298507483366935 4.601853558510274  1.9850764605636724 4.697720017472457  1.8805989184486602 4.889464649989126  C 1.6716438342186366 5.081209282505794  1.6716470257338163 5.272965601042587  1.6716470257338163 5.560582556960633  C 1.6716470257338163 5.94407182199397  1.7761181770342858 6.231712164238355  2.0895508111635044 6.423456796755024  Z " fill-rule="nonzero" fill="#2c3b51" stroke="none" transform="matrix(1 0 0 1 951 616 )" />
  </g>
</svg>