<?xml version="1.0" encoding="utf-8"?>
<svg version="1.1" xmlns:xlink="http://www.w3.org/1999/xlink" width="7px" height="8px" xmlns="http://www.w3.org/2000/svg">
  <g transform="matrix(1 0 0 1 -951 -367 )">
    <path d="M 3.865673783254743 7.957390583536566  C 3.552241149125524 8.053262549168249  3.4477620268212887 7.957390583536566  2.925374324030413 7.957390583536566  C 2.4029866212395365 7.957390583536566  1.880597330475254 7.861501067509748  1.4626871620152064 7.669757136246382  C 1.0447769935551587 7.478013204983015  0.6268668406634779 7.190409029780441  0.4179117564334541 6.902793125742374  C 0.20895667220343028 6.51930526321564  0 6.135823286535708  0 5.560591478459572  C 0 5.081231657444174  0.10448072584600818 4.793609924703447  0.313435810076032 4.505994020665379  C 0.5223908943060558 4.218378116627311  0.7313427714525332 4.026622499386558  1.0447754055817522 3.834878568123191  C 1.3582080397109715 3.643134636859824  1.6716406427034571 3.5472685285028698  2.0895508111635044 3.451396562871187  C 2.507460979623552 3.3555245972395036  2.925377499977226 3.2596701891459725  3.2388101341064446 3.2596701891459725  C 3.7611978368973205 3.1637982235142896  4.179104798273822 3.1637923733825777  4.492537432403042 3.1637923733825777  C 4.80597006653226 3.1637923733825777  5.014921943678737 3.0679087074874714  5.223877027908761 2.972036741855788  C 5.328354570023773 2.876164776224105  5.432836891627372 2.780298667867151  5.432836891627372 2.588554736603784  C 5.432836891627372 2.109194915588385  5.328357769323136 1.8215731828476596  5.014925135193918 1.5339572788095914  C 4.701492501064698 1.2463413747715235  4.388063105155759 1.1504752735575874  3.7611978368973205 1.1504752735575874  C 3.2388101341064446 1.1504752735575874  2.7164192553687556 1.2463413747715235  2.4029866212395365 1.5339572788095914  C 2.0895539871103175 1.8215731828476596  1.8806005142062505 2.013334643077107  1.7761229720912384 2.3009505471151748  C 1.7761229720912384 2.3009505471151748  0.20895986371860992 2.0133170998249903  0.20895986371860992 2.0133170998249903  C 0.4179149479486337 1.5339572788095912  0.6268652371217047 1.1504869881070465  1.0447754055817522 0.8628710840689785  C 1.4626855740418 0.5752551800309105  1.7761229720912384 0.3834995627901565  2.298510674882115 0.1917556315267898  C 2.716420843342162 0.09588366589510644  3.2388101341064446 0  3.7611978368973205 0  C 4.07463047102654 0  4.492540608349854 0  4.805973242479073 0.0958778157633949  C 5.119405876608292 0.19174978139507826  5.537316013931607 0.2876158897520321  5.850748648060826 0.47935982101539887  C 6.164181282190045 0.6711037522787655  6.477609105693944 0.9587430425576439  6.686564189923969 1.3422309050843773  C 6.895519274153992 1.7257187676111108  7 2.2050785600544374  7 2.7803103681305736  C 7 2.7803103681305736  7 7.957390583536566  7 7.957390583536566  L 5.328360945269949 7.957390583536566  L 5.328360945269949 6.902793125742374  C 5.328360945269949 6.902793125742374  5.223877027908761 6.902793125742374  5.223877027908761 6.902793125742374  C 5.11939948579375 7.0945370570057396  4.910444409347909 7.286286831257801  4.701489325117885 7.4780307625211675  C 4.492534240887862 7.669774693784533  4.179106417383963 7.861518617904882  3.865673783254743 7.957390583536566  Z M 2.0895508111635044 6.615188936253764  C 2.507460979623552 6.711060901885448  2.820898377672991 6.8069153099789785  3.343286080463867 6.8069153099789785  C 3.7611962489239144 6.8069153099789785  4.179104798273822 6.711055051753736  4.492537432403042 6.51931112049037  C 4.80597006653226 6.327567189227004  5.11939948579375 6.135811571986249  5.223877027908761 5.848195667948181  C 5.432832112138786 5.5605797639101135  5.432836891627372 5.2729697457188465  5.432836891627372 4.985353841680778  C 5.432836891627372 4.985353841680778  5.432836891627372 4.026634199649981  5.432836891627372 4.026634199649981  C 5.328359349512359 4.122506165281664  5.2238786236663515 4.1225178655450865  5.11940108155134 4.21838983117677  C 5.014923539436328 4.314261796808454  4.80597006653226 4.314238389138589  4.492537432403042 4.314238389138589  C 4.179104798273822 4.314238389138589  4.074628867484767 4.410116204901985  3.865673783254743 4.410116204901985  C 3.6567186990247196 4.410116204901985  3.447763622578879 4.410122055033695  3.343286080463867 4.505994020665379  C 3.0298534463346476 4.505994020665379  2.7164176518269825 4.601877686560486  2.507462567596959 4.69774965219217  C 2.298507483366935 4.793621617823853  1.9850764605636724 4.889487726180806  1.8805989184486602 5.081231657444173  C 1.6716438342186366 5.272975588707539  1.6716470257338163 5.464701948146718  1.6716470257338163 5.7523178521847855  C 1.6716470257338163 6.13580571471152  1.7761181770342858 6.423445004990398  2.0895508111635044 6.615188936253764  Z " fill-rule="nonzero" fill="#2c3b51" stroke="none" transform="matrix(1 0 0 1 951 367 )" />
  </g>
</svg>