<?xml version="1.0" encoding="utf-8"?>
<svg version="1.1" xmlns:xlink="http://www.w3.org/1999/xlink" width="8px" height="11px" xmlns="http://www.w3.org/2000/svg">
  <g transform="matrix(1 0 0 1 -959 -367 )">
    <path d="M 2.909092350297992 10.805297641231725  C 2.389612139647562 10.999988119937504  1.9740248066643218 11  1.558440631951291 11  C 1.3506485445947753 11  1.0389620081768236 10.999994059968751  0.9350659644985658 10.902648820615862  C 0.831169920820308 10.805303581262972  0.623376254328688 10.805297641231725  0.5194802106504303 10.805297641231725  C 0.5194802106504303 10.805297641231725  0.9350659644985658 9.53982143146501  0.9350659644985658 9.53982143146501  C 1.2467541032741973 9.637166670817898  1.5584453848383213 9.637172610849147  1.7662374721948368 9.637172610849147  C 1.9740295595513522 9.637172610849147  2.1818200522910463 9.539809551402511  2.389612139647562 9.34511907269673  C 2.5974042270040774 9.15042859399095  2.701300262941477 8.955750009853238  2.909092350297992 8.56636905244168  C 2.909092350297992 8.56636905244168  3.116881263902582 8.079642862930015  3.116881263902582 8.079642862930015  L 0 0  L 1.7662374721948368 0  L 3.9480527715988525 6.132738104883358  L 4.051947228401147 6.132738104883358  L 6.233762527805164 0  L 8 0  C 8 0  4.467532982249283 9.053095241953343  4.467532982249283 9.053095241953343  C 4.259740894892768 9.442476199364904  4.051950402153073 9.831863075049355  3.844158314796558 10.123898800360811  C 3.6363662274400426 10.415934525672265  3.324676525011023 10.610607162525945  2.909092350297992 10.805297641231725  Z " fill-rule="nonzero" fill="#2c3b51" stroke="none" transform="matrix(1 0 0 1 959 367 )" />
  </g>
</svg>