<?xml version="1.0" encoding="utf-8"?>
<svg version="1.1" xmlns:xlink="http://www.w3.org/1999/xlink" width="7px" height="8px" xmlns="http://www.w3.org/2000/svg">
  <g transform="matrix(1 0 0 1 -1022 -367 )">
    <path d="M 5.196974601075513 5.78311977203787  C 5.196974601075572 5.397578448156999  5.303025398924487 5.012054790192113  5.303025398924487 4.626513466311241  C 5.303025398924487 4.626513466311241  5.303025398924487 0  5.303025398924487 0  L 7 0  L 7 7.903608787572387  L 5.409092380322654 7.903608787572387  L 5.409092380322654 6.554220056990532  C 5.409092380322654 6.554220056990532  5.303025398924487 6.554220056990532  5.303025398924487 6.554220056990532  C 5.090904379806658 6.939761380871404  4.772729338773414 7.32530856466587  4.348487300537756 7.614464564757791  C 3.9242452623020982 7.90362056484971  3.3939427540181444 8  2.75757968086041 8  C 2.2272771409679613 8  1.6969810808168877 7.903597024657596  1.2727390425812297 7.710826362717161  C 0.848497004345572 7.518055700776726  0.5303057797631364 7.132514391258387  0.31818476064530743 6.746973067377516  C 0.10606374152747851 6.361431743496644  0 5.7831374092287895  0 5.108440113981064  C 0 5.108440113981064  0 0.09639121242761282  0 0.09639121242761282  L 1.6969746010755125 0.09639121242761282  C 1.6969746010755125 0.09639121242761282  1.6969746010755125 4.915657689125839  1.6969746010755125 4.915657689125839  C 1.6969746010755125 5.493969689309679  1.909095604389094 5.879528621656402  2.2272771409679613 6.168684621748322  C 2.5454586775468284 6.457840621840242  2.969697460107551 6.650611269418145  3.5 6.650611269418145  C 3.8181815365788667 6.650611269418145  4.136372745357056 6.554214175533137  4.4545542819359225 6.457828844562919  C 4.772735818514789 6.3614435135927  4.984853581957683 6.072275772129791  5.196974601075513 5.78311977203787  Z " fill-rule="nonzero" fill="#2c3b51" stroke="none" transform="matrix(1 0 0 1 1022 367 )" />
  </g>
</svg>