<?xml version="1.0" encoding="utf-8"?>
<svg version="1.1" xmlns:xlink="http://www.w3.org/1999/xlink" width="7px" height="8px" xmlns="http://www.w3.org/2000/svg">
  <g transform="matrix(1 0 0 1 -1022 -491 )">
    <path d="M 5.196974601075513 5.783141035540162  C 5.196974601075572 5.493983972273084  5.303025398924487 5.108429482229919  5.303025398924487 4.626501062601572  C 5.303025398924487 4.626501062601572  5.303025398924487 0  5.303025398924487 0  L 7 0  L 7 7.903637847735445  L 5.409092380322654 7.903637847735445  L 5.409092380322654 6.554214741114959  C 5.409092380322654 6.554214741114959  5.303025398924487 6.554214741114959  5.303025398924487 6.554214741114959  C 5.090904379806658 6.939757482562671  4.772729338773414 7.325306083945524  4.348487300537756 7.614463147212601  C 3.9242452623020982 7.903620210479678  3.3939427540181444 8  2.75757968086041 8  C 2.2272771409679613 8  1.6969810808168877 7.903626084777405  1.2727390425812297 7.710854714053549  C 0.848497004345572 7.518083343329693  0.5303057797631364 7.132540616244567  0.31818476064530743 6.746997874796855  C 0.10606374152747851 6.361455133349143  0 5.783129258219535  0 5.108429482229919  C 0 5.108429482229919  0 0.09639156684094803  0 0.09639156684094803  L 1.6969746010755125 0.09639156684094803  C 1.6969746010755125 0.09639156684094803  1.6969746010755125 4.915675763124416  1.6969746010755125 4.915675763124416  C 1.6969746010755125 5.49398988965857  1.909095604389094 5.8795208250604825  2.2272771409679613 6.16867788832756  C 2.5454586775468284 6.457834951594638  2.969697460107551 6.650606307955907  3.5 6.650606307955907  C 3.8181815365788667 6.650606307955907  4.136372745357056 6.554238274212333  4.4545542819359225 6.457852588850405  C 4.772735818514789 6.361466903488477  4.984853581957683 6.07229809880724  5.196974601075513 5.783141035540162  Z " fill-rule="nonzero" fill="#2c3b51" stroke="none" transform="matrix(1 0 0 1 1022 491 )" />
  </g>
</svg>