<?xml version="1.0" encoding="utf-8"?>
<svg version="1.1" xmlns:xlink="http://www.w3.org/1999/xlink" width="228px" height="44px" xmlns="http://www.w3.org/2000/svg">
  <g transform="matrix(1 0 0 1 -936 -189 )">
    <path d="M 228 40.07142883904124  C 228 42.23214302440078  226.30148996433778 44  224.00350591054044 44  C 224.00350591054044 44  3.996494089459561 44  3.996494089459561 44  C 1.79842229261488 44  0 42.23214302440078  0 40.07142883904124  C 0 40.07142883904124  0 3.9285711609587555  0 3.9285711609587555  C 0 1.7678569755992226  1.79842229261488 0  3.996494089459561 0  C 3.996494089459561 0  224.00350591054044 0  224.00350591054044 0  C 226.20157770738513 0  228 1.7678569755992226  228 3.9285711609587555  C 228 3.9285711609587555  228 40.07142883904124  228 40.07142883904124  Z " fill-rule="nonzero" fill="#f6f6f6" stroke="none" transform="matrix(1 0 0 1 936 189 )" />
  </g>
</svg>