<?xml version="1.0" encoding="utf-8"?>
<svg version="1.1" xmlns:xlink="http://www.w3.org/1999/xlink" width="7px" height="8px" xmlns="http://www.w3.org/2000/svg">
  <g transform="matrix(1 0 0 1 -951 -491 )">
    <path d="M 3.865673783254743 8  C 3.865673783254743 7.903614314638071  3.4477620268212887 8  2.925374324030413 8  C 2.4029866212395365 8  1.880597330475254 7.903626084777405  1.4626871620152064 7.710854714053549  C 1.0447769935551587 7.518083343329693  0.6268668406634779 7.228908657169435  0.4179117564334541 6.939751593902358  C 0.20895667220343028 6.5542088524546465  0 6.168672028392419  0 5.590357901858265  C 0 5.108429482229919  0.10448072584600818 4.819266559027701  0.313435810076032 4.530109495760623  C 0.5223908943060558 4.240952432493546  0.7313427714525332 4.048198727750631  1.0447754055817522 3.8554273570267745  C 1.3582080397109715 3.6626559863029184  1.6716406427034571 3.5662761896013033  2.0895508111635044 3.4698905042393755  C 2.507460979623552 3.3735048188774477  2.925377499977226 3.2771073705574794  3.2388101341064446 3.2771073705574794  C 3.7611978368973205 3.1807216851955515  4.179104798273822 3.1807158037165317  4.492537432403042 3.1807158037165317  C 4.80597006653226 3.1807158037165317  5.014921943678737 3.0843477699729567  5.223877027908761 2.987962084611029  C 5.328354570023773 2.891576399249101  5.432836891627372 2.7951671879710926  5.432836891627372 2.602395817247237  C 5.432836891627372 2.12046739761889  5.328357769323136 1.8313338889930655  5.014925135193918 1.5421768257259885  C 4.701492501064698 1.2530197624589114  4.388063105155759 1.1566105583621964  3.7611978368973205 1.1566105583621964  C 3.2388101341064446 1.1566105583621964  2.7164192553687556 1.2530197624589114  2.4029866212395365 1.5421768257259885  C 2.0895539871103175 1.8313338889930655  1.8806005142062505 2.0240934680337093  1.7761229720912384 2.313250531300786  C 1.7761229720912384 2.313250531300786  0.20895986371860992 2.0241052453543356  0.20895986371860992 2.0241052453543356  C 0.4179149479486337 1.5421768257259887  0.6268652371217047 1.1566223356828227  1.0447754055817522 0.8674652724157456  C 1.3582080397109715 0.5783082091486685  1.7761229720912384 0.3855250898293587  2.298510674882115 0.19275371910550274  C 2.716420843342162 0.09636803374357475  3.2388101341064446 0  3.7611978368973205 0  C 4.07463047102654 0  4.492540608349854 0  4.805973242479073 0.09639156684094803  C 5.119405876608292 0.192777252202876  5.537316013931607 0.28915704890449084  5.850748648060826 0.4819284196283468  C 6.164181282190045 0.6746997903522027  6.477609105693944 0.9638509505963804  6.686564189923969 1.3493936920440923  C 6.895519274153992 1.7349364334918043  7 2.2168648243949787  7 2.7951789509291327  C 7 2.7951789509291327  7 8  7 8  L 5.328360945269949 8  L 5.328360945269949 6.939751593902358  C 5.328360945269949 6.939751593902358  5.223877027908761 6.939751593902358  5.223877027908761 6.939751593902358  C 5.11939948579375 7.132522964626213  4.910444409347909 7.325300209647796  4.701489325117885 7.518071580371652  C 4.492534240887862 7.7108429510955085  4.179106417383963 7.903614314638071  3.865673783254743 8  Z M 2.0895508111635044 6.4578231742740115  C 2.507460979623552 6.650594544997867  2.820898377672991 6.746997874796856  3.343286080463867 6.746997874796856  C 3.7611962489239144 6.746997874796856  4.179104798273822 6.650594544997867  4.492537432403042 6.4578231742740115  C 4.80597006653226 6.265051803550156  5.11939948579375 6.07229809880724  5.223877027908761 5.7831410355401625  C 5.432832112138786 5.493983972273085  5.432836891627372 5.204832826391494  5.432836891627372 4.915675763124416  C 5.432836891627372 4.915675763124416  5.432836891627372 3.8554273570267745  5.432836891627372 3.8554273570267745  C 5.328359349512359 3.9518130423887023  5.2238786236663515 3.951795390770349  5.11940108155134 4.048181076132277  C 5.014923539436328 4.144566761494206  4.80597006653226 4.144572642973226  4.492537432403042 4.144572642973226  C 4.2835823481730175 4.144572642973226  4.074628867484767 4.240964209814173  3.865673783254743 4.240964209814173  C 3.6567186990247196 4.240964209814173  3.447763622578879 4.2409700912931925  3.343286080463867 4.337355776655121  C 3.0298534463346476 4.337355776655121  2.7164176518269825 4.433723810398695  2.507462567596959 4.530109495760623  C 2.1940299334677396 4.626495181122552  1.9850764605636724 4.722904392400561  1.8805989184486602 4.915675763124416  C 1.7761213763336485 5.108447133848272  1.6716470257338163 5.301200838591188  1.6716470257338163 5.590357901858265  C 1.6716470257338163 5.975900643305978  1.7761181770342858 6.265051803550156  2.0895508111635044 6.4578231742740115  Z " fill-rule="nonzero" fill="#2c3b51" stroke="none" transform="matrix(1 0 0 1 951 491 )" />
  </g>
</svg>