<?xml version="1.0" encoding="utf-8"?>
<svg version="1.1" xmlns:xlink="http://www.w3.org/1999/xlink" width="4px" height="10px" xmlns="http://www.w3.org/2000/svg">
  <g transform="matrix(1 0 0 1 -966 -455 )">
    <path d="M 0 1.8269182803334636  L 3.9069782296268696 1.8269182803334636  L 3.9069782296268696 2.884617077529366  L 0 2.884617077529366  L 0 1.8269182803334636  Z M 1.2093043061691595 0  L 1.116282535796029 0  L 2.2325579744859034 0  C 2.2325579744859034 0  2.2325579744859034 7.499992664039415  2.2325579744859034 7.499992664039415  C 2.2325579744859034 7.884608280107884  2.325585421157804 8.076904339142741  2.418608612338319 8.269212147176976  C 2.511631803518834 8.46151995521121  2.6046493114698106 8.55769732857098  2.7906956938308403 8.653851232588096  C 2.9767420761918704 8.750005136605214  3.0697652604416175 8.749981660098536  3.255811642802647 8.749981660098536  C 3.348834833983162 8.749981660098536  3.4418608598476785 8.749981660098536  3.534884051028193 8.749981660098536  C 3.627907242208708 8.749981660098536  3.720927591774454 8.749981660098536  3.720927591774454 8.749981660098536  C 3.720927591774454 8.749981660098536  4 9.807680457294438  4 9.807680457294438  C 3.906976808819485 9.807680457294438  3.813950782954969 9.903840228647221  3.720927591774454 9.903840228647221  C 3.627904400593939 9.903840228647221  3.4418594529018294 10  3.1627898724295167 10  C 2.8837202919572045 10  2.5116275549582157 9.903834361311555  2.2325579744859034 9.807680457294438  C 1.953488394013591 9.615372649260204  1.6744230967557354 9.423082464725033  1.4883767143947055 9.13462074550966  C 1.3023303320336759 8.846159026294284  1.2093043061691595 8.461531689882536  1.2093043061691595 7.980762176960976  C 1.2093043061691595 7.980762176960976  1.2093043061691595 0  1.2093043061691595 0  Z " fill-rule="nonzero" fill="#466da1" stroke="none" fill-opacity="0.30196078431372547" transform="matrix(1 0 0 1 966 455 )" />
  </g>
</svg>