<?xml version="1.0" encoding="utf-8"?>
<svg version="1.1" xmlns:xlink="http://www.w3.org/1999/xlink" width="7px" height="11px" xmlns="http://www.w3.org/2000/svg">
  <g transform="matrix(1 0 0 1 -1031 -616 )">
    <path d="M 0 11  L 0 0.1929938215421516  L 1.5135174145869719 0.1929938215421516  L 1.5135174145869719 1.4473653213975952  C 1.5135174145869719 1.4473653213975952  1.6081032317662851 1.4473653213975952  1.6081032317662851 1.4473653213975952  C 1.7026977107382435 1.254383275668926  1.7973008444550094 1.0613953492226564  1.986489802398926 0.8684133034939875  C 2.175678760342843 0.6754312577653182  2.3648648145775897 0.48244333131904915  2.6486482585413027 0.28946128559038  C 2.9324317025050157 0.09647923986171084  3.3108067146836797 0  3.7837791024956338 0  C 4.445940434155829 0  4.918915697485602 0.19298203135038655  5.486482585413029 0.48245510713253165  C 5.959454973224982 0.7719281829146767  6.337829985403646 1.2543773661947606  6.621613429367359 1.8333235177590508  C 6.905396873331072 2.412269669323341  7 3.1842155087691006  7 4.052634678602405  C 7 4.921053848435709  6.905396873331072 5.596479254239993  6.621613429367359 6.271916392722911  C 6.337829985403646 6.850862544287202  5.959454973224982 7.333317622663169  5.486482585413029 7.719281714120506  C 5.013510197601073 8.008754789902651  4.445940434155829 8.20173682125304  3.7837791024956338 8.20173682125304  C 3.3108067146836797 8.20173682125304  2.9324317025050157 8.105234022575221  2.6486482585413027 8.008742999710886  C 2.3648648145775897 7.815760953982217  2.0810842813708845 7.622802474258796  1.986489802398926 7.429820428530126  C 1.7973008444550094 7.236838382801457  1.7026977107382435 7.043821009632341  1.6081032317662851 6.850838963903671  C 1.6081032317662851 6.850838963903671  1.5135174145869719 6.850838963903671  1.5135174145869719 6.850838963903671  L 1.5135174145869719 11  L 0 11  Z M 1.7027034829173944 2.60526935720481  C 1.5135145249734776 3.0877244643373416  1.4189171634358626 3.570179571469873  1.4189171634358626 4.052634678602405  C 1.4189171634358626 4.631580830166696  1.5135145249734776 5.114035908542663  1.7027034829173944 5.5  C 1.8918924408613111 5.885964091457337  2.081078495096058 6.271928168536394  2.364861939059771 6.464910214265064  C 2.648645383023484 6.657892259993733  3.0270203952021477 6.850838963903671  3.499992783014102 6.850838963903671  C 3.972965170826056 6.850838963903671  4.351354616976516 6.754383290047208  4.635138060940228 6.464910214265064  C 4.918921504903942 6.175437138482918  5.2027020381106475 5.885964091457337  5.297296517082605 5.5  C 5.486485475026523 5.114035908542663  5.486482585413029 4.631580830166696  5.486482585413029 4.052634678602405  C 5.486482585413029 3.570179571469873  5.391890996054563 3.0877244643373416  5.297296517082605 2.60526935720481  C 5.2027020381106475 2.1228142500722784  4.918921504903942 1.8333411886684159  4.635138060940228 1.6403591429397468  C 4.351354616976516 1.4473770972110773  3.972965170826056 1.2543714998554434  3.499992783014102 1.2543714998554434  C 3.0270203952021477 1.2543714998554434  2.648645383023484 1.3508860671576017  2.364861939059771 1.6403591429397468  C 2.081078495096058 1.8333411886684159  1.7972979618893525 2.219305265747472  1.7027034829173944 2.60526935720481  Z " fill-rule="nonzero" fill="#2c3b51" stroke="none" transform="matrix(1 0 0 1 1031 616 )" />
  </g>
</svg>