<?xml version="1.0" encoding="utf-8"?>
<svg version="1.1" xmlns:xlink="http://www.w3.org/1999/xlink" width="7px" height="8px" xmlns="http://www.w3.org/2000/svg">
  <g transform="matrix(1 0 0 1 -968 -367 )">
    <path d="M 4.91892008924337 7.904756022684749  C 4.729730741191779 7.904756022684803  4.256754516682612 8  3.689186458432137 8  C 2.932429066225777 8  2.270267835142051 7.809523682475268  1.702699776891576 7.523809177804985  C 1.1351317186411005 7.238094673134702  0.7567573922063608 6.761903850939689  0.4729733630811232 6.0952367112199415  C 0.18918933395588558 5.523807701879376  0 4.761890794674679  0 3.9999854678093816  C 0 3.238080140944084  0.18918933395588558 2.4761922981206244  0.4729733630811232 1.904763288780059  C 0.7567573922063608 1.3333342794394936  1.2297264138104527 0.8571434856276635  1.702699776891576 0.47619082219501474  C 2.270267835142051 0.09523815876236597  2.837835837009708 0  3.5945932292160685 0  C 4.067566592297192 0  4.445948163924121 0.09522072439110121  4.8243268600273 0.1904588902492634  C 5.202705556130481 0.3809352219655878  5.581081348518504 0.5714231624044962  5.959460044621685 0.857137667074779  C 6.243244073746923 1.1428521717450617  6.527030964300203 1.6190313568343075  6.716220312351793 2.0952221790293226  C 6.905409660403384 2.5714130012243372  7 3.238074350774384  7 3.9047414904941307  C 7 3.9047414904941307  7 4.476176290004396  7 4.476176290004396  L 0.8513462799453982 4.476176290004396  L 0.8513462799453982 3.3333357553651033  C 0.8513462799453982 3.3333357553651033  5.486486681540561 3.3333357553651033  5.486486681540561 3.3333357553651033  C 5.486486681540561 2.9523830919324543  5.391896341943945 2.571424638330106  5.202706993892356 2.285710133659823  C 5.013517645840765 1.9999956289895404  4.824323984503553 1.7142637112353816  4.540539955378315 1.5237873795190573  C 4.256755926253077 1.3333110478027328  3.8783786961031805 1.2380845119545434  3.5 1.2380845119545434  C 3.12162130389682 1.2380845119545434  2.7432455115087966 1.3333110478027328  2.364866815405616 1.5237873795190573  C 1.9864881193024357 1.7142637112353816  1.7972958957270975 2.0000014475424246  1.6081065476755072 2.3809541109750736  C 1.418917199623917 2.7619067744077226  1.3243196430265214 3.047598004866467  1.3243196430265214 3.428550668299116  C 1.3243196430265214 3.428550668299116  1.3243196430265214 4.285717399755132  1.3243196430265214 4.285717399755132  C 1.3243196430265214 4.761908221950147  1.418917199623917 5.238093225592278  1.6081065476755072 5.619045889024926  C 1.7972958957270975 5.999998552457575  2.0810827862803785 6.285707224383382  2.364866815405616 6.476183556099706  C 2.6486508445308536 6.66665988781603  3.12162130389682 6.76188642366422  3.5 6.76188642366422  C 3.7837840291252376 6.76188642366422  4.067570919678518 6.761909676588369  4.256760267730109 6.666671510730207  C 4.445949615781699 6.571433344872045  4.729732186001506 6.47617193318553  4.8243268600273 6.285695601469205  C 5.013516208078891 6.095219269752881  5.10811231986656 5.904766198056501  5.202706993892356 5.714289866340176  C 5.202706993892356 5.714289866340176  6.621627083135725 5.999992733904691  6.621627083135725 5.999992733904691  C 6.52703240910993 6.38094539733734  6.337837302962991 6.761909669492573  6.054053273837754 7.142862332925222  C 5.770269244712516 7.428576837595504  5.391893452324493 7.714279690968425  4.91892008924337 7.904756022684749  Z " fill-rule="nonzero" fill="#2c3b51" stroke="none" transform="matrix(1 0 0 1 968 367 )" />
  </g>
</svg>