<?xml version="1.0" encoding="utf-8"?>
<svg version="1.1" xmlns:xlink="http://www.w3.org/1999/xlink" width="431px" height="254px" xmlns="http://www.w3.org/2000/svg">
  <g transform="matrix(1 0 0 1 9 -189 )">
    <path d="M 431 15.663058392878428  C 431 15.663058392878428  430.9233833312988 238.3369279601764  430.9233833312988 238.3369279601764  C 430.9233833312988 246.89509671170944  426.2111111111111 253.99999999999997  417.639397515191 253.99999999999997  C 417.639397515191 253.99999999999997  10.889609877268473 253.99999999999997  10.889609877268473 253.99999999999997  C 6.833377016915216 253.99999999999997  0 247.05657191567576  0 238.3369279601764  C 0 238.3369279601764  0.07653736097531186 15.663058392878428  0.07653736097531186 15.663058392878428  C 0.07653736097531186 7.104889641345386  6.909889785448709 0  10.966122645801967 0  C 10.966122645801967 0  417.715904574924 0  417.715904574924 0  C 427.4083333333333 0  431 6.943414437379076  431 15.663058392878428  Z " fill-rule="nonzero" fill="#f6f6f6" stroke="none" transform="matrix(1 0 0 1 -9 189 )" />
  </g>
</svg>