<?xml version="1.0" encoding="utf-8"?>
<svg version="1.1" xmlns:xlink="http://www.w3.org/1999/xlink" width="4px" height="10px" xmlns="http://www.w3.org/2000/svg">
  <g transform="matrix(1 0 0 1 -966 -331 )">
    <path d="M 0 1.9230752301654255  L 3.9069782296268696 1.9230752301654255  L 3.9069782296268696 2.9807724755162672  L 0 2.9807724755162672  L 0 1.9230752301654255  Z M 1.2093043061691595 0  L 1.116282535796029 0  L 2.2325579744859034 0  C 2.2325579744859034 0  2.2325579744859034 7.499996332025089  2.2325579744859034 7.499996332025089  C 2.2325579744859034 7.884611383789384  2.325585421157804 8.07692183258904  2.418608612338319 8.269229358471188  C 2.511631803518834 8.461536884353336  2.6046493114698106 8.557684772803341  2.7906956938308403 8.653838535744416  C 2.9767420761918704 8.74999229868549  3.0697652604416175 8.749998166012544  3.255811642802647 8.749998166012544  C 3.348834833983162 8.749998166012544  3.4418608598476785 8.749998166012544  3.534884051028193 8.749998166012544  C 3.627907242208708 8.749998166012544  3.720927591774454 8.749998166012544  3.720927591774454 8.749998166012544  C 3.720927591774454 8.749998166012544  4 9.807695411363387  4 9.807695411363387  C 3.906976808819485 9.807695411363387  3.813950782954969 9.90384036973187  3.720927591774454 9.90384036973187  C 3.627904400593939 9.90384036973187  3.4418594529018294 10  3.1627898724295167 10  C 2.8837202919572045 10  2.5116275549582157 9.90384917430446  2.2325579744859034 9.807695411363387  C 1.953488394013591 9.615387885481237  1.6744230967557354 9.423068639273009  1.4883767143947055 9.134607343285772  C 1.3023303320336759 8.846146047298536  1.2093043061691595 8.461533947107801  1.2093043061691595 7.980765139566445  C 1.2093043061691595 7.980765139566445  1.2093043061691595 0  1.2093043061691595 0  Z " fill-rule="nonzero" fill="#466da1" stroke="none" fill-opacity="0.30196078431372547" transform="matrix(1 0 0 1 966 331 )" />
  </g>
</svg>