<?xml version="1.0" encoding="utf-8"?>
<svg version="1.1" xmlns:xlink="http://www.w3.org/1999/xlink" width="431px" height="248px" xmlns="http://www.w3.org/2000/svg">
  <g transform="matrix(1 0 0 1 9 -481 )">
    <path d="M 431 15.293065071105957  C 431 15.293065071105957  430.92340087890625 232.70692443847656  430.92340087890625 232.70692443847656  C 430.92340087890625 241.06293201446533  426.2111177444458 248  417.639404296875 248  C 417.639404296875 248  10.889610290527344 248  10.889610290527344 248  C 6.833377361297607 248  0 241.2205924987793  0 232.70692443847656  C 0 232.70692443847656  0.0765373632311821 15.293065071105957  0.0765373632311821 15.293065071105957  C 0.0765373632311821 6.9370574951171875  6.909889698028564 0  10.9661226272583 0  C 10.9661226272583 0  417.7159118652344 0  417.7159118652344 0  C 427.40834045410156 0  431 6.779397010803223  431 15.293065071105957  Z " fill-rule="nonzero" fill="#f6f6f6" stroke="none" transform="matrix(1 0 0 1 -9 481 )" />
  </g>
</svg>