<?xml version="1.0" encoding="utf-8"?>
<svg version="1.1" xmlns:xlink="http://www.w3.org/1999/xlink" width="4px" height="8px" xmlns="http://www.w3.org/2000/svg">
  <g transform="matrix(1 0 0 1 -981 -332 )">
    <path d="M 0 7.90475619569739  L 0 8  L 0 0.19047307644100034  L 1.1999969482421875 0.19047307644100034  L 1.1999969482421875 1.3333405994154437  C 1.1999969482421875 1.3333405994154437  1.2999954223632812 1.3333405994154437  1.2999954223632812 1.3333405994154437  C 1.3999954238533974 0.952388627991128  1.6999984681606293 0.6666746707102413  2.0999984741210938 0.3809606850462213  C 2.4999984800815582 0.09524669938220137  2.899993896484375 0  3.399993896484375 0  C 3.499993897974491 0  3.5999969467520714 0  3.6999969482421875 0  C 3.7999969497323036 0  3.899999998509884 0  4 0  C 4 0  4 1.2380967951128332  4 1.2380967951128332  C 4 1.2380967951128332  3.8999969512224197 1.2380909836663014  3.6999969482421875 1.1428529908102225  C 3.4999969452619553 1.0476149979541436  3.3999969512224197 1.1428529908102225  3.1999969482421875 1.1428529908102225  C 2.799996942281723 1.1428529908102225  2.4999969601631165 1.2381026065593648  2.1999969482421875 1.3333405994154437  C 1.8999969363212585 1.5238165851276015  1.7000000029802322 1.7142896473770353  1.5 2.000003633041055  C 1.2999999970197678 2.285717618705075  1.1999969482421875 2.5714315759859616  1.1999969482421875 2.9523835474102773  C 1.1999969482421875 2.9523835474102773  1.1999969482421875 7.90475619569739  1.1999969482421875 7.90475619569739  L 0 7.90475619569739  Z " fill-rule="nonzero" fill="#466da1" stroke="none" fill-opacity="0.30196078431372547" transform="matrix(1 0 0 1 981 332 )" />
  </g>
</svg>