<?xml version="1.0" encoding="utf-8"?>
<svg version="1.1" xmlns:xlink="http://www.w3.org/1999/xlink" width="10px" height="11px" xmlns="http://www.w3.org/2000/svg">
  <g transform="matrix(1 0 0 1 -996 -364 )">
    <path d="M 7.999991969064838 3.535716426613479  C 7.999991969064838 3.535716426613479  7.999991969064838 3.6339365998005455  7.999991969064838 3.6339365998005455  C 7.894728894137718 3.3392940520845253  7.7894722502328975 3.0446575340103728  7.5789461003786585 2.750014986294352  C 7.3684199505244194 2.4553724385783324  7.157887385333304 2.258932106839251  6.947361235479065 2.0625037465735883  C 6.736835085624827 1.8660753863079256  6.421050699795613 1.7678672065468564  6.105261467171545 1.669653026414025  C 5.7894722345474765 1.5714388462811937  5.47368303329425 1.5714328532269577  5.052630733585772 1.5714328532269577  C 4.421052268337636 1.5714328532269577  3.789469034721748 1.7678611988575677  3.263153667928862 2.0625037465735883  C 2.736838301135976 2.3571462942896084  2.3157892326240677 2.8482111579943705  2 3.437496253426412  C 1.6842107673759321 4.026781348858454  1.5789461003786587 4.812506732124417  1.5789461003786587 5.598220173187068  C 1.5789461003786587 6.482147757794917  1.6842107673759321 7.169658997515682  2 7.758944092947723  C 2.3157892326240677 8.348229188379765  2.736838301135976 8.839294052084526  3.263153667928862 9.133936599800546  C 3.789469034721748 9.428579147516565  4.421052268337636 9.625007493147177  5.052630733585772 9.625007493147177  C 5.6842091988339085 9.625007493147177  6.21052293434309 9.526799320703633  6.736838301135975 9.232156772987615  C 7.157890600844453 9.035728412721951  7.57894288486751 8.642871706825677  7.789469034721748 8.250014986294353  C 7.999995184575987 7.857158265763027  8.21052293434309 7.267867228499436  8.21052293434309 6.678582133067395  C 8.21052293434309 6.678582133067395  8.63157683396443 6.776802306254463  8.63157683396443 6.776802306254463  L 5.368415135100407 6.776802306254463  L 5.368415135100407 5.401779826812933  L 9.894730501893292 5.401779826812933  C 9.894730501893292 5.401779826812933  9.894730501893292 6.580361959880328  9.894730501893292 6.580361959880328  C 9.894730501893292 7.464289544488177  9.68420596763734 8.249997014449173  9.263153667928862 8.937496253426412  C 8.842101368220385 9.624995492403652  8.315787601340363 10.116072386122045  7.5789461003786585 10.508929106653369  C 6.842104599416954 10.901785827184694  5.999996800174271 11  5.157892200757317 11  C 4.105261467171545 11  3.1578954005830457 10.803559653625864  2.4210538996213415 10.312488760279235  C 1.684212398659637 9.821417866932604  1.0526291336729081 9.232138801142433  0.631576833964431 8.446425360079783  C 0.21052453425595394 7.660711919017132  0 6.678570190864082  0 5.5  C 0 4.61607241539215  0.10526466699727349 3.8303709750730244  0.42105389962134143 3.241085879640983  C 0.6315800494755799 2.553586640663743  1.0526323334986367 1.9642835733865212  1.4736846332071138 1.4732126800398906  C 1.8947369329155908 0.9821417866932606  2.5263137355091816 0.5893090530139312  3.1578922007573174 0.39288069274826837  C 3.7894706660054527 0.0982381450322478  4.421049068511908 0  5.2631536679288615 0  C 5.894732133176998 0  6.421045868686179 0.09823215929553855  6.947361235479065 0.29466051956120126  C 7.473676602271952 0.491088879826864  7.999993568977702 0.6874992389772399  8.421045868686178 0.9821417866932606  C 8.842098168394656 1.2767843344092813  9.157887369647884 1.6696470260422627  9.473676602271953 2.0625037465735883  C 9.789465834896019 2.4553604671049136  9.89473692507288 2.9464313311814374  10 3.535716426613479  C 10 3.535716426613479  7.999991969064838 3.535716426613479  7.999991969064838 3.535716426613479  Z " fill-rule="nonzero" fill="#2c3b51" stroke="none" transform="matrix(1 0 0 1 996 364 )" />
  </g>
</svg>