<?xml version="1.0" encoding="utf-8"?>
<svg version="1.1" xmlns:xlink="http://www.w3.org/1999/xlink" width="11px" height="8px" xmlns="http://www.w3.org/2000/svg">
  <g transform="matrix(1 0 0 1 -1010 -457 )">
    <path d="M 0 8  L 0 0.09639156684094803  L 1.257139660063244 0.09639156684094803  L 1.257139660063244 1.3493936920440923  C 1.257139660063244 1.3493936920440923  1.361907958984375 1.3493936920440923  1.361907958984375 1.3493936920440923  C 1.5714317716303325 0.9638509505963804  1.7809587688673112 0.5783082235112548  2.2000063941592263 0.3855368527873988  C 2.6190540194511414 0.19276548206354285  3.0381048293340776 0  3.5619143531436013 0  C 4.085723876953125 0  4.609520599955604 0.09637978952032179  4.923806326729911 0.3855368527873988  C 5.342853952021827 0.5783082235112548  5.552380949258804 0.9638509505963804  5.761904761904762 1.3493936920440923  C 5.761904761904762 1.3493936920440923  5.866673060825892 1.3493936920440923  5.866673060825892 1.3493936920440923  C 6.076196873471851 0.9638509505963804  6.390476184231894 0.5783082235112548  6.80952380952381 0.3855368527873988  C 7.228571434815724 0.09637978952032179  7.752380927403768 0  8.38095238095238 0  C 9.114285701797122 0  9.742860339936755 0.19278313368189606  10.26666986374628 0.6747115533102429  C 10.790479387555804 1.1566399729385897  11 1.831316251737298  11 2.6987873840881846  C 11 2.6987873840881846  11 8  11 8  L 9.742860339936755 8  C 9.742860339936755 8  9.742860339936755 2.6987873840881846  9.742860339936755 2.6987873840881846  C 9.742860339936755 2.1204732575540306  9.533336542901537 1.7349423221521174  9.219050816127233 1.4457852588850404  C 8.904765089352924 1.1566281956179636  8.485711094878969 1.0602484060976416  8.066663469587054 1.0602484060976416  C 7.43809201603844 1.0602484060976416  7.01905722277505 1.2530197624589114  6.7047714960007445 1.5421768257259885  C 6.390485769226437 1.8313338889930655  6.18096197219122 2.313250531300786  6.18096197219122 2.795178950929133  C 6.18096197219122 2.795178950929133  6.18096197219122 7.903637847735445  6.18096197219122 7.903637847735445  L 4.819054013206845 7.903637847735445  C 4.819054013206845 7.903637847735445  4.819054013206845 2.5060336649826818  4.819054013206845 2.5060336649826818  C 4.819054013206845 2.024105245354335  4.714282529694693 1.7349423221521174  4.399996802920387 1.4457852588850404  C 4.08571107614608 1.1566281956179636  3.666673067070189 1.0602484060976416  3.2476254417782737 1.0602484060976416  C 2.9333397150039673 1.0602484060976416  2.6190444344565984 1.1566223213202365  2.304758707682292 1.3493936920440923  C 1.9904729809079853 1.5421650627679482  1.780952384074529 1.7349481820872585  1.5714285714285714 2.0241052453543356  C 1.3619047587826139 2.3132623086214124  1.257139660063244 2.698810910004265  1.257139660063244 3.084353651451977  C 1.257139660063244 3.084353651451977  1.257139660063244 8  1.257139660063244 8  L 0 8  Z " fill-rule="nonzero" fill="#466da1" stroke="none" fill-opacity="0.30196078431372547" transform="matrix(1 0 0 1 1010 457 )" />
  </g>
</svg>