<?xml version="1.0" encoding="utf-8"?>
<svg version="1.1" xmlns:xlink="http://www.w3.org/1999/xlink" width="4px" height="8px" xmlns="http://www.w3.org/2000/svg">
  <g transform="matrix(1 0 0 1 -977 -367 )">
    <path d="M 1.4545435629606895 8  L 0 8  L 0 0.0963621522645547  L 1.3636358907401724 0.0963621522645547  L 1.3636358907401724 1.3493936920440923  C 1.3636358907401724 1.3493936920440923  1.4545435629606895 1.3493936920440923  1.4545435629606895 1.3493936920440923  C 1.5454526236980182 0.9638509505963804  1.818182569397122 0.5783082235112548  2.1818188123464366 0.3855368527873988  C 2.5454550552957516 0.19276548206354285  2.909087125921379 0  3.36363242283477 0  C 3.4545414835720987 0  3.545451926052986 0  3.7272700475276435 0  C 3.8181791082649723 0  3.909090939262671 0  4 0  C 4 0  4 1.4457852588850404  4 1.4457852588850404  C 3.909090939262671 1.4457852588850404  3.8181791082649723 1.4457793774060204  3.7272700475276435 1.3493936920440923  C 3.545451926052986 1.3493936920440923  3.45454287208891 1.3493936920440923  3.2727247506142527 1.3493936920440923  C 2.9090885076649378 1.3493936920440923  2.63636134577271 1.4457617257876672  2.3636341567874712 1.5421474111495952  C 2.0909069678022325 1.734918781873451  1.9090916369077033 1.9277019011927612  1.727273515433046 2.216858964459838  C 1.5454553939583886 2.5060160277269152  1.4545435629606895 2.79517306226882  1.4545435629606895 3.1807158037165317  C 1.4545435629606895 3.1807158037165317  1.4545435629606895 8  1.4545435629606895 8  Z " fill-rule="nonzero" fill="#2c3b51" stroke="none" transform="matrix(1 0 0 1 977 367 )" />
  </g>
</svg>