<?xml version="1.0" encoding="utf-8"?>
<svg version="1.1" xmlns:xlink="http://www.w3.org/1999/xlink" width="8px" height="11px" xmlns="http://www.w3.org/2000/svg">
  <g transform="matrix(1 0 0 1 -1044 -489 )">
    <path d="M 6.051273423699238 10.705368650221663  C 5.435889024631197 10.901797545713006  4.717940599807113 11  3.9999921749830296 11  C 3.2820437501589454 11  2.5640953253348617 10.901791559959989  1.9487109262668214 10.607148209405425  C 1.3333265271987809 10.312504858850861  0.9230765680355881 10.017855537178374  0.512820312179052 9.52678330576756  C 0.1025640563225159 9.035711074356747  0 8.54466284449838  0 7.955376143389255  C 0 7.955376143389255  1.7435859314019888 7.955376143389255  1.7435859314019888 7.955376143389255  C 1.7435859314019888 8.25001949394382  1.84615312078794 8.544650829087065  2.051281248716208 8.741079724578407  C 2.256409376644476 8.937508620069751  2.5641046786754593 9.133937508243548  2.8717968782094796 9.23215195598922  C 3.1794890777435 9.330366403734894  3.5897359191264933 9.428592837621697  3.9999921749830296 9.428592837621697  C 4.410248430839566 9.428592837621697  4.8205109222565 9.330366403734894  5.12820312179052 9.23215195598922  C 5.435895321324541 9.133937508243548  5.743590623355524 8.839288179253513  5.948718751283792 8.64285928376217  C 6.15384687921206 8.348215933207607  6.25639841856407 8.053578612311343  6.25639841856407 7.75893526175678  C 6.25639841856407 7.3660774707740915  6.15384687921206 7.071434149489716  5.948718751283792 6.776790798935153  C 5.743590623355524 6.482147448380591  5.435895321324541 6.2857065813832085  5.12820312179052 6.089277685891865  C 4.7179468659339845 5.892848790400521  4.307687492297249 5.892866776929763  3.794867180118197 5.892866776929763  C 3.794867180118197 5.892866776929763  2.8717968782094796 5.892866776929763  2.8717968782094796 5.892866776929763  L 2.8717968782094796 4.616060991659423  C 2.8717968782094796 4.616060991659423  3.794867180118197 4.616060991659423  3.794867180118197 4.616060991659423  C 4.205123435974733 4.616060991659423  4.615385927391667 4.517864530442994  4.923078126925688 4.419650082697322  C 5.230770326459708 4.3214356349516505  5.435895306041305 4.125000761024834  5.641023433969573 3.8303574104702713  C 5.84615156189784 3.535714059915709  5.948718751283792 3.2410767390194444  5.948718751283792 2.9464333884648815  C 5.948718751283792 2.651790037910319  5.846142170349152 2.3571527170140545  5.743578106385018 2.062509366459492  C 5.53844997845675 1.7678660159049295  5.333331249718788 1.669645589723785  5.12820312179052 1.4732166942324407  C 4.8205109222565 1.3750022464867688  4.512818753288952 1.2767758125999658  4.102562497432416 1.2767758125999658  C 3.69230624157588 1.2767758125999658  3.3846140726083327 1.3750022464867688  3.0769218730743124 1.4732166942324407  C 2.769229673540292 1.5714311419781128  2.4615406299945617 1.7678660159049295  2.3589765660304276 2.062509366459492  C 2.1538484381021594 2.258938261950836  2.051281248716208 2.5535755974821934  2.051281248716208 2.9464333884648815  C 2.051281248716208 2.9464333884648815  0.4102499897296652 2.9464333884648815  0.4102499897296652 2.9464333884648815  C 0.4102499897296652 2.3571466873557565  0.615378102374697 1.8660684848270168  0.9230703019087173 1.3749962534162032  C 1.2307625014427375 0.9821384624335151  1.7435859314019888 0.5892806860859201  2.256406243581041 0.39285179059457603  C 2.769226555760093 0.19642289510323202  3.487178098364376 0  4.102562497432416 0  C 4.8205109222565 0  5.43589843910474 0.09820844004001349  5.948718751283792 0.39285179059457603  C 6.461539063462844 0.6874951411491386  6.871792170972708 0.9821444628216273  7.179484370506729 1.4732166942324407  C 7.487176570040749 1.9642889256432545  7.589734360236394 2.3571466873557565  7.589734360236394 2.9464333884648815  C 7.589734360236394 3.5357200895740064  7.384606247591362 4.026798292102746  7.076914048057342 4.51787052351356  C 6.769221848523322 4.910728314496248  6.2564078330376125 5.205365650027606  5.641023433969573 5.40179454551895  C 5.641023433969573 5.40179454551895  5.641023433969573 5.500014986335188  5.641023433969573 5.500014986335188  C 6.358971858793656 5.598229434080859  6.974353109515025 5.892866776929763  7.384609365371561 6.383939008340576  C 7.794865621228097 6.87501123975139  8 7.366065499268054  8 8.05356661153512  C 8 8.642853312644244  7.794871887354968 9.133931515172984  7.487179687820948 9.625003746583797  C 7.179487488286927 10.11607597799461  6.666657822767278 10.4107252996671  6.051273423699238 10.705368650221663  Z " fill-rule="nonzero" fill="#2c3b51" stroke="none" transform="matrix(1 0 0 1 1044 489 )" />
  </g>
</svg>