<?xml version="1.0" encoding="utf-8"?>
<svg version="1.1" xmlns:xlink="http://www.w3.org/1999/xlink" width="7px" height="8px" xmlns="http://www.w3.org/2000/svg">
  <g transform="matrix(1 0 0 1 -968 -616 )">
    <path d="M 4.91892008924337 7.809512045369499  C 4.729730741191779 7.904750211227662  4.256754516682612 8  3.689186458432137 8  C 2.932429066225777 8  2.270267835142051 7.809523682475268  1.702699776891576 7.523809177804985  C 1.1351317186411005 7.238094673134703  0.7567573922063608 6.761903850939687  0.4729733630811232 6.095236711219941  C 0.18918933395588558 5.523807701879375  0 4.761890794674678  0 3.999985467809381  C 0 3.2380801409440836  0.18918933395588558 2.4761922981206244  0.4729733630811232 1.9047632887800587  C 0.7567573922063608 1.3333342794394931  1.2297264138104527 0.8571434856276634  1.702699776891576 0.4761908221950147  C 2.270267835142051 0.095238158762366  2.837835837009708 0  3.5945932292160685 0  C 4.067566592297192 0  4.445948163924121 0.09522072439110123  4.8243268600273 0.1904588902492634  C 5.202705556130481 0.3809352219655877  5.581081348518504 0.5714231624044962  5.959460044621685 0.857137667074779  C 6.243244073746923 1.142852171745062  6.527030964300203 1.6190313568343073  6.716220312351793 2.095222179029322  C 6.905409660403384 2.571413001224337  7 3.2381034151556216  7 3.9047705548753684  C 7 3.9047705548753684  7 4.476176290004396  7 4.476176290004396  L 0.8513462799453982 4.476176290004396  L 0.8513462799453982 3.238091778049853  C 0.8513462799453982 3.238091778049853  5.486486681540561 3.238091778049853  5.486486681540561 3.238091778049853  C 5.486486681540561 2.8571391146172043  5.391896341943945 2.4761806610148556  5.202706993892356 2.1904661563445726  C 5.013517645840765 1.90475165167429  4.824323984503553 1.6190487983013684  4.540539955378315 1.428572466585044  C 4.256755926253077 1.2380961348687198  3.8783786961031805 1.1428405346392927  3.5 1.1428405346392927  C 3.12162130389682 1.1428405346392927  2.7432455115087966 1.2380961348687198  2.364866815405616 1.428572466585044  C 1.9864881193024357 1.6190487983013684  1.7972958957270975 1.9047574702271743  1.6081065476755072 2.285710133659823  C 1.418917199623917 2.6666627970924717  1.3243196430265214 2.9523830919324543  1.3243196430265214 3.333335755365103  C 1.3243196430265214 3.333335755365103  1.3243196430265214 4.190473422439882  1.3243196430265214 4.190473422439882  C 1.3243196430265214 4.666664244634897  1.418917199623917 5.142878312658263  1.6081065476755072 5.523830976090913  C 1.7972958957270975 5.904783639523562  2.0810827862803785 6.19046324706813  2.364866815405616 6.380939578784454  C 2.6486508445308536 6.571415910500778  3.12162130389682 6.666642446348969  3.5 6.666642446348969  C 3.7837840291252376 6.666642446348969  4.067570919678518 6.666665699273118  4.256760267730109 6.571427533414956  C 4.445949615781699 6.476189367556794  4.729732186001506 6.380927955870278  4.8243268600273 6.190451624153954  C 5.013516208078891 5.99997529243763  5.10811231986656 5.80952222074125  5.202706993892356 5.6190458890249255  C 5.202706993892356 5.6190458890249255  6.621627083135725 5.9047487565894405  6.621627083135725 5.9047487565894405  C 6.52703240910993 6.2857014200220895  6.337837302962991 6.666665692177322  6.054053273837754 7.047618355609971  C 5.770269244712516 7.333332860280253  5.391893452324493 7.619035713653175  4.91892008924337 7.809512045369499  Z " fill-rule="nonzero" fill="#2c3b51" stroke="none" transform="matrix(1 0 0 1 968 616 )" />
  </g>
</svg>