<?xml version="1.0" encoding="utf-8"?>
<svg version="1.1" xmlns:xlink="http://www.w3.org/1999/xlink" width="8px" height="11px" xmlns="http://www.w3.org/2000/svg">
  <g transform="matrix(1 0 0 1 -938 -364 )">
    <path d="M 1.6623367358464767 11  L 0 11  L 0 0  C 0 0  4.051951243195469 0  4.051951243195469 0  C 4.883120416168774 0  5.714287979041946 0.20183496337363616  6.233768704409395 0.5045874385098454  C 6.857145599621107 0.8073399136460547  7.272733313417633 1.2109975093337644  7.5844217610234885 1.816502459606183  C 7.896110208629344 2.3210898981160284  8 2.926613314902036  8 3.6330357167855176  C 8 4.339458118668999  7.896110208629344 4.944950737881855  7.5844217610234885 5.4495381763917  C 7.272733313417633 5.954125614901546  6.857145599621107 6.4587007223518285  6.233768704409395 6.761453197488037  C 5.610391809197685 7.064205672624247  4.883120416168774 7.266040635997883  4.051951243195469 7.266040635997883  C 4.051951243195469 7.266040635997883  1.2467545335465602 7.266040635997883  1.2467545335465602 7.266040635997883  L 1.2467545335465602 5.853201967684948  C 1.2467545335465602 5.853201967684948  3.844154197060403 5.853201967684948  3.844154197060403 5.853201967684948  C 4.363634922427853 5.853201967684948  4.883118806068641 5.752296802019813  5.1948072536744965 5.550461823608298  C 5.506495701280351 5.348626845196785  5.818180951908539 5.146773400271684  5.922077098530202 4.743103443448656  C 6.025973245151865 4.339433486625629  6.129874144665267 4.0367056736085445  6.129874144665267 3.6330357167855176  C 6.129874144665267 3.22936575996249  6.025973245151865 2.8256896676854364  5.922077098530202 2.522937192549227  C 5.7142848052868755 2.2201847174130176  5.506495701280351 1.9174137908010973  5.1948072536744965 1.7155788123895837  C 4.883118806068641 1.51374383397807  4.363634922427853 1.4128386683129368  3.844154197060403 1.4128386683129368  C 3.844154197060403 1.4128386683129368  1.6623367358464767 1.4128386683129368  1.6623367358464767 1.4128386683129368  L 1.6623367358464767 11  Z " fill-rule="nonzero" fill="#2c3b51" stroke="none" transform="matrix(1 0 0 1 938 364 )" />
  </g>
</svg>