<?xml version="1.0" encoding="utf-8"?>
<svg version="1.1" xmlns:xlink="http://www.w3.org/1999/xlink" width="7px" height="8px" xmlns="http://www.w3.org/2000/svg">
  <g transform="matrix(1 0 0 1 -972 -332 )">
    <path d="M 5.028168590313245 7.904770554875369  C 4.6338023024993795 8.00000872073353  4.239433017662589 8  3.7464751652409007 8  C 2.957742589613168 8  2.3661932019662353 7.809523682475268  1.7746437555541468 7.523809177804985  C 1.1830943091420583 7.142856514372336  0.7887325756277328 6.761903850939689  0.4929578524216885 6.0952367112199415  C 0.19718312921564435 5.523807701879376  0 4.761905326865298  0 4  C 0 3.2380946731347025  0.19718312921564435 2.4761922981206244  0.4929578524216885 1.904763288780059  C 0.7887325756277328 1.3333342794394936  1.1830943091420583 0.8571434856276635  1.7746437555541468 0.47619082219501474  C 2.267601607975835 0.09523815876236597  2.9577441175072074 0  3.6478850991445406 0  C 4.042251386958407 0  4.436614648366772 0.09523525658171995  4.830980936180638 0.19047342243988216  C 5.225347223994505 0.2857115882980444  5.619719505854218 0.5714231624044962  5.915494229060262 0.857137667074779  C 6.211268952266307 1.1428521717450617  6.507039135864099 1.5238077018793756  6.704222279771033 2.095236711219941  C 6.901405423677966 2.571427533414956  7 3.2380888829650027  7 3.9047560226847495  C 7 3.9047560226847495  7 4.380946844879765  7 4.380946844879765  L 0.88731811680713 4.380946844879765  L 0.88731811680713 3.3333357553651033  C 0.88731811680713 3.3333357553651033  5.718306574927655 3.3333357553651033  5.718306574927655 3.3333357553651033  C 5.718306574927655 2.857144933170088  5.619719520545507 2.4761951932054744  5.422536376638575 2.1904806885351915  C 5.225353232731641 1.9047661838649088  5.028167091801784 1.6190429939400766  4.633800803987918 1.3333284892697939  C 4.338026080781873 1.1428521575534694  3.943662819373508 1.0476110895146613  3.45070496695182 1.0476110895146613  C 2.957747114530131 1.0476110895146613  2.5633778296933416 1.1428579619147616  2.169011541879475 1.428572466585044  C 1.7746452540656084 1.6190487983013686  1.5774591131357516 2.0000014475424246  1.3802759692288187 2.3809541109750736  C 1.1830928253218853 2.7619067744077226  1.0845057709397374 3.142862332925221  1.0845057709397374 3.619053155120236  C 1.0845057709397374 3.619053155120236  1.0845057709397374 4.285717399755132  1.0845057709397374 4.285717399755132  C 1.0845057709397374 4.857146409095698  1.1830928253218853 5.333328489269793  1.3802759692288187 5.8095193114648085  C 1.5774591131357516 6.1904719748974575  1.8732353201619687 6.571424624138514  2.267601607975835 6.761900955854838  C 2.6619678957897017 6.952377287571163  3.0563371806264916 7.047618355609971  3.54929503304818 7.047618355609971  C 3.8450697562542246 7.047618355609971  4.140845948589153 7.047627076343501  4.436620671795197 6.952388910485339  C 4.732395395001241 6.857150744627177  4.929575512502673 6.761903865131281  5.126758656409606 6.571427533414957  C 5.323941800316539 6.380951201698632  5.422534870781468 6.190477793450342  5.521126442734935 5.904763288780059  C 5.521126442734935 5.904763288780059  6.704222279771033 6.1904806885351915  6.704222279771033 6.1904806885351915  C 6.605630707817566 6.5714333519678405  6.408449084459027 6.95237727337957  6.112674361252983 7.238091778049853  C 5.816899638046939 7.523806282720136  5.422534878127112 7.809532389017208  5.028168590313245 7.904770554875369  Z " fill-rule="nonzero" fill="#466da1" stroke="none" fill-opacity="0.30196078431372547" transform="matrix(1 0 0 1 972 332 )" />
  </g>
</svg>