<?xml version="1.0" encoding="utf-8"?>
<svg version="1.1" xmlns:xlink="http://www.w3.org/1999/xlink" width="14px" height="14px" xmlns="http://www.w3.org/2000/svg">
  <g transform="matrix(1 0 0 1 -974 -195 )">
    <path d="M 7 6.999415104155733  C 10.431529361880202 6.999415104155733  13.286350491293076 7.548122579259033  13.884666889299357 8.27224885385149  C 13.960419140684 7.8596834038194485  14 7.434464125037179  14 7  C 14 3.1340067603206716  10.865993456815955 0  7 0  C 3.1340067856781593 0  0 3.1340067603206716  0 7  C 0 7.434464125037179  0.03958085931600031 7.8596834038194485  0.11533336835063819 8.27224885385149  C 0.713649887603978 7.548122579259033  3.5684706381197975 6.999415104155733  7 6.999415104155733  Z M 7 14  C 10.17129534813148 14  12.850036651253278 11.891123599327916  13.710344660348888 8.999248198909484  C 12.850035681276822 9.64188674567957  10.17129534813148 10.11052605360409  7 10.11052605360409  C 3.828704651868521 10.11052605360409  1.1499635003055426 9.64188674567957  0.289654884974649 8.999248198909484  C 1.1499633790584856 11.891123599327916  3.8287044093744065 14  7 14  Z " fill-rule="nonzero" fill="#dfe3eb" stroke="none" transform="matrix(1 0 0 1 974 195 )" />
  </g>
</svg>