<?xml version="1.0" encoding="utf-8"?>
<svg version="1.1" xmlns:xlink="http://www.w3.org/1999/xlink" width="14px" height="14px" xmlns="http://www.w3.org/2000/svg">
  <g transform="matrix(1 0 0 1 -139 -130 )">
    <path d="M 8.645525810114421 3.3335972069433333  C 8.645831513669316 3.32033619317732  8.645984365446765 3.306998747055307  8.645984365446765 3.2936613009332936  C 8.645984365446765 2.4914655085344917  8.072560922351297 1.8232174200258229  7.313269717879291 1.6765819450396764  C 7.313269717879291 1.6765819450396764  7.313269717879291 1.2352615214952352  7.313269717879291 1.2352615214952352  L 8.647130753777622 1.2352615214952352  L 8.647130753777622 0  L 6.687188837453053 0  C 6.687188837453053 0  6.687188837453053 1.676161567081676  6.687188837453053 1.676161567081676  C 5.926827670538912 1.821956286151822  5.352257839112586 2.4907011849744904  5.352257839112586 3.2936613009332936  C 5.352257839112586 3.308145232395308  5.352410690890034 3.3225527315013226  5.3527928203336534 3.336922014429337  C 5.353251375665997 3.3569472917013568  5.354168486330684 3.3768579204393765  5.3553913005502665 3.3966921168213964  C 2.282917722071797 3.7882168604317883  0 5.2528136661052525  0 6.999713378664999  C 0 6.999713378664999  13.998395056336799 6.999713378664999  13.998395056336799 6.999713378664999  C 13.998395056336799 5.252775449927252  11.715400908376278 3.7881786442537884  8.642850904009084 3.3966921168213964  C 8.64415014411739 3.3757878674553754  8.645067254782077 3.3547307533773543  8.645525810114421 3.3335972069433333  Z M 11.941392261332867 7.000210188979  C 11.941392261332867 7.000210188979  11.941392261332867 12.833298301836832  11.941392261332867 12.833298301836832  C 11.685212682330334 12.773184253842771  11.409391649925757 12.717732579564718  11.116374792558302 12.667478305494667  C 11.116374792558302 12.667478305494667  11.116374792558302 7.000210188979  11.116374792558302 7.000210188979  L 9.469473316446852 7.000210188979  C 9.469473316446852 7.000210188979  9.469473316446852 12.458053650054458  9.469473316446852 12.458053650054458  C 8.947255218796402 12.411697426140412  8.395231024543628 12.379595836620378  7.8221132850030575 12.363812555106362  C 7.8221132850030575 12.363812555106362  7.8221132850030575 7.000210188979  7.8221132850030575 7.000210188979  L 6.175211808891606 7.000210188979  C 6.175211808891606 7.000210188979  6.175211808891606 12.363850771284362  6.175211808891606 12.363850771284362  C 5.602934754126998 12.379634052798378  5.051827670538912 12.41165920996241  4.530297405886977 12.457939001520456  C 4.530297405886977 12.457939001520456  4.530297405886977 7.000210188979  4.530297405886977 7.000210188979  L 2.8833959297755265 7.000210188979  C 2.8833959297755265 7.000210188979  2.8833959297755265 12.667249008426666  2.8833959297755265 12.667249008426666  C 2.590455498296795 12.717465066318717  2.314710891780942 12.77284030824077  2.0586077386671326 12.832916140056831  C 2.0586077386671326 12.832916140056831  2.0586077386671326 7.000210188979  2.0586077386671326 7.000210188979  L 0 6.999713378664999  L 0 14  L 14 14  L 14 7.000210188979  L 11.941392261332867 7.000210188979  Z " fill-rule="nonzero" fill="#2b3b51" stroke="none" transform="matrix(1 0 0 1 139 130 )" />
  </g>
</svg>