<?xml version="1.0" encoding="utf-8"?>
<svg version="1.1" xmlns:xlink="http://www.w3.org/1999/xlink" width="201px" height="40px" xmlns="http://www.w3.org/2000/svg">
  <g transform="matrix(1 0 0 1 -541 -600 )">
    <path d="M 201 35.8312521297944  C 200.8998005845175 38.21338694104729  199.0962600119176 40  196.79167353794006 40  C 196.79167353794006 40  4.208387618928811 40  4.208387618928811 40  C 1.9038011449512875 40  0 38.114131185869525  0 35.8312521297944  C 0 35.8312521297944  0 4.168747870205596  0 4.168747870205596  C 0 1.8858688141304758  1.9038011449512875 0  4.208387618928811 0  C 4.208387618928811 0  196.79167353794006 0  196.79167353794006 0  C 199.0962600119176 0  201 1.8858688141304758  201 4.168747870205596  C 201 4.168747870205596  201 35.8312521297944  201 35.8312521297944  Z " fill-rule="nonzero" fill="#466da1" stroke="none" transform="matrix(1 0 0 1 541 600 )" />
  </g>
</svg>