<?xml version="1.0" encoding="utf-8"?>
<svg version="1.1" xmlns:xlink="http://www.w3.org/1999/xlink" width="81px" height="82px" xmlns="http://www.w3.org/2000/svg">
  <g transform="matrix(1 0 0 1 -1 -477 )">
    <path d="M 2.2846151865445647 41.00001591883722  C 23.573076725006104 42.14759855179834  40.5 60.091604754684894  40.5 82  C 40.5 82  40.5 79.70482204875435  40.5 79.70482204875435  C 41.64230771706654 58.109403082430454  59.296154242295486 41.00001591883722  81 41.00001591883722  C 81 41.00001591883722  78.71537986168495 41.00001591883722  78.71537986168495 41.00001591883722  C 57.426918323223404 39.85243328587611  40.5 21.908395245315106  40.5 0  C 40.5 0  40.5 2.2951461135711964  40.5 2.2951461135711964  C 39.357692282933456 23.89056507989509  21.703845757704514 41.00001591883722  0 41.00001591883722  C 0 41.00001591883722  2.2846151865445647 41.00001591883722  2.2846151865445647 41.00001591883722  Z " fill-rule="nonzero" fill="#5b5f68" stroke="none" transform="matrix(1 0 0 1 1 477 )" />
  </g>
</svg>