<?xml version="1.0" encoding="utf-8"?>
<svg version="1.1" xmlns:xlink="http://www.w3.org/1999/xlink" width="81px" height="162px" xmlns="http://www.w3.org/2000/svg">
  <g transform="matrix(1 0 0 1 -1199 -396 )">
    <path d="M 0 80.99998413399526  C 0 80.99998413399526  0 162  0 162  C 42.735543428190745 162  77.67260742531815 128.9345281969265  80.68801094401535 87.03081119356429  C 80.68801094401535 86.7188728352881  80.68798555686334 86.51089492361915  80.79196498667257 86.19895656534297  C 80.79196498667257 85.57507984879061  80.89591902932978 84.95121589941392  80.89591902932978 84.32733918286156  C 80.89591902932978 83.3915241700096  81 82.45570277356984  81 81.6238671721589  C 81 81.41590827180616  81 81.31192882937685  81 81.10396992902412  C 81 81.10396992902412  81 80.99998413399526  81 80.99998413399526  C 81 80.99998413399526  81 0  81 0  C 66.23492138543101 0  52.40563144629769 3.9512128005848868  40.551977021328604 10.81385631080132  C 38.26442955003137 12.165589093370457  36.08081083495127 13.517328321504019  34.00122226975494 15.077020050908327  C 31.921633704558598 16.532732306895053  29.946100699639253 18.19640983132821  27.97049158749336 19.860081034150106  C 27.86651215768413 19.860081034150106  27.866436003975146 19.964066829178954  27.76245657416592 19.964066829178954  C 25.890826915070466 21.62773803200085  24.123201995465553 23.291402789258324  22.459531118517855 25.059053465497804  C 22.355551688708626 25.163032915674172  22.25154687949445 25.267006013250985  22.043588019875987 25.474964913603728  C 21.523690878576907 26.098841630156084  21.00379373727782 26.618751516513374  20.483896595978734 27.24262823306573  C 20.483896595978734 27.24262823306573  20.379942553321516 27.34661402809458  20.379942553321516 27.34661402809458  C 19.444127723773793 28.490387987781705  18.40428262038916 29.63414918029315  17.46846779084144 30.777923139980274  C 17.260508931222976 30.98588204033301  17.052575466503605 31.29783307282  16.84461660688514 31.505791973172737  C 16.428698887648217 32.025689216307505  16.012831958209464 32.64954052246166  15.596914238972541 33.169437765596435  C 15.38895537935408 33.48137612387261  15.181021914634705 33.79333983057042  14.973063055016242 34.10527818884659  C 14.349186460666713 35.041093201698544  13.725259169483861 35.872903454687865  13.101382575134332 36.808718467539826  C 12.78944427795957 37.2246362682453  12.581434675025355 37.64056674316158  12.26949637785059 38.05648454386706  C 11.957558080675827 38.57638178700183  11.645721363097413 39.09627903013659  11.333783065922649 39.616176273271364  C 11.021844768747885 40.24005298982372  10.709906502561404 40.759962876181014  10.29398878332448 41.383839592733366  C 9.878071064087555 42.007716309285726  9.566132797901075 42.735566053691244  9.25419450072631 43.359442770243604  C 8.942256203551546 43.98331948679595  8.63029255796012 44.503197641143785  8.318354260785355 45.12707435769614  C 8.110395401166894 45.54299215840162  7.902461936447518 46.062908428346745  7.694503076829056 46.47882622905222  C 7.2785853575921315 47.31066183046317  6.966545542797584 48.142484726675015  6.550627823560659 48.87034085466838  C 6.342668963942197 49.28625865537385  6.238689541880037 49.70218913029013  6.0307306822615745 50.11810693099561  C 5.71879238508681 50.845963058988964  5.406955667508398 51.67777963358956  5.0950173703336334 52.405635761582914  C 4.991037940524402 52.821553562288386  4.783053701500993 53.237477684605125  4.679074271691762 53.549416042881305  C 4.367135974516998 54.58921052915084  3.9512182862683574 55.525019220391535  3.639279989093593 56.56481370666107  C 3.535300559284362 56.77277260701382  3.5352244055753825 57.0847236395008  3.4312449757661514 57.292682539853544  C 3.119306678591387 58.22849755270549  2.911424003670188 59.16432533273313  2.5994857064954235 60.10014034558509  C 2.4955062766861924 60.41207870386127  2.3914760803199995 60.827996473578445  2.287496650510768 61.139934831854625  C 1.9755583533360033 62.283708791541756  1.7676502835157164 63.32348418902435  1.5596914238972541 64.46725814871147  C 1.5596914238972541 64.57123759888783  1.5597168110492707 64.67521069646466  1.4557373812400396 64.8831695968174  C 1.2477785216215773 65.92296408308694  1.0398196697501862 66.96276489096775  0.935840239940955 68.10653885065487  C 0.935840239940955 68.41847720893105  0.8317592692707281 68.73040918361936  0.8317592692707281 69.04234754189555  C 0.6238004096522656 70.18612150158268  0.5199225284511014 71.43390022113243  0.41594309864187023 72.57767418081956  C 0.41594309864187023 72.57767418081956  0.41594309864187023 72.68162824383894  0.41594309864187023 72.68162824383894  C 0.3119636688326391 73.82540220352608  0.2079334724664456 74.96920144965824  0.10395404265721445 76.21695488276295  C 0.10395404265721445 76.52889324103914  0.10395404265721445 76.84082521572748  0.10395404265721445 77.15276357400366  C -2.5387152016715357E-05 78.40051700710836  0 79.64827663787118  0 80.89603007097588  C 0 80.89603007097588  0 80.99998413399526  0 80.99998413399526  Z " fill-rule="nonzero" fill="#5b5f68" stroke="none" transform="matrix(1 0 0 1 1199 396 )" />
  </g>
</svg>