<?xml version="1.0" encoding="utf-8"?>
<svg version="1.1" xmlns:xlink="http://www.w3.org/1999/xlink" width="162px" height="162px" xmlns="http://www.w3.org/2000/svg">
  <g transform="matrix(1 0 0 1 0 -162 )">
    <path d="M 4.471116927177676 80.99999206699685  C 47.102695039493135 83.39151957005767  81 118.74454672142203  81 162  C 81 162  81 157.52886423193985  81 157.52886423193985  C 83.28754814341283 114.89728611962441  118.74454672142203 80.99999206699685  162 80.99999206699685  C 162 80.99999206699685  157.52888009794614 80.99999206699685  157.52888009794614 80.99999206699685  C 114.89730198563069 78.71244392358402  81 43.25545327857798  81 0  C 81 0  81 4.471119902053855  81 4.471119902053855  C 78.71245185658717 47.10269801436932  43.25545327857798 80.99999206699685  0 80.99999206699685  C 0 80.99999206699685  4.471116927177676 80.99999206699685  4.471116927177676 80.99999206699685  Z " fill-rule="nonzero" fill="#5b5f68" stroke="none" transform="matrix(1 0 0 1 0 162 )" />
  </g>
</svg>