<?xml version="1.0" encoding="utf-8"?>
<svg version="1.1" xmlns:xlink="http://www.w3.org/1999/xlink" width="162px" height="81px" xmlns="http://www.w3.org/2000/svg">
  <g transform="matrix(1 0 0 1 -1119 -479 )">
    <path d="M 162 80.99999999999999  C 162 38.31923235379732  128.8920264479181 3.3230643455798807  87.0385486496558 0.3115257850060096  C 86.72620925661812 0.3115257850060096  86.51793219120192 0.3115194482872119  86.20559279816423 0.2076732928936298  C 85.58091401208885 0.2076732928936298  84.95631155521261 0.10382080078124999  84.33163276913723 0.10382080078124999  C 83.39461465208045 0.10382080078124999  82.45762191603376 0  81.62471688861868 0  C 81.4164906317649 0  81.31237751109504 0  81.10415125424127 0  C 81.10415125424127 0  80.99993645439032 0  80.99993645439032 0  C 80.99993645439032 0  0 0  0 0  C 0 14.746153648083025  3.9563243388020464 28.5576923076923  10.827790613293585 40.49999999999999  C 12.18126121302979 42.78461543413308  13.534706493812147 44.96537193885216  15.096403396944318 47.04229501577524  C 16.553987148378507 49.11921809269831  18.21977176014229 51.09228236400164  19.885581814972443 53.0653592623197  C 19.885581814972443 53.16920541771329  19.989669523604057 53.16921809115089  19.989669523604057 53.27306424654447  C 21.65547957843421 55.14229496625753  23.32131495221821 56.9076542533361  25.091238158746346 58.569192739633415  C 25.19535128717323 58.67303889502699  25.299489827638354 58.776910397295765  25.507716084492124 58.98460270808293  C 26.132394870567502 59.5038334773137  26.652909618812146 60.023064246544465  27.277588404887517 60.54229501577523  C 27.277588404887517 60.54229501577523  27.381676113519134 60.64611581655648  27.381676113519134 60.64611581655648  C 28.526920533971893 61.58073117641301  29.672215716444875 62.619243470522065  30.81746013689764 63.5538588303786  C 31.02568639375141 63.76155114116577  31.337974931684485 63.96921808960345  31.546201188538255 64.17691040039061  C 32.066766822915646 64.59229502196494  32.69154725714397 65.00769230150259  33.212112891521365 65.42307692307692  C 33.52445228455905 65.63076923386407  33.836689967387514 65.83843618230176  34.1490293604252 66.04612849308893  C 35.086047477482 66.66920544092471  35.9190542151063 67.29226963795148  36.856072332163095 67.91534658578725  C 37.272524845870635 68.22688505970515  37.688926504473564 68.43462804876842  38.105379018181104 68.7461665226863  C 38.6259446525585 69.05770499660419  39.146510286935886 69.36920540378644  39.66707592131328 69.68074387770432  C 40.187641555690675 69.99228235162222  40.8122694556333 70.30382079459154  41.43694824170866 70.71920541616586  C 42.06162702778404 71.1345900377402  42.79044428451125 71.4461284807095  43.41512307058662 71.7576669546274  C 44.03980185666199 72.06920542854527  44.56044369612598 72.38076921838979  45.18512248220135 72.69230769230768  C 45.60157499590889 72.90000000309485  46.12206436314342 73.10766695153254  46.53851687685096 73.3153592623197  C 47.371421904266036 73.73074388389404  48.2043777557576 74.04232036265041  48.933169631474684 74.45770498422475  C 49.349622145182224 74.66539729501191  49.76602380378515 74.76924344266835  50.18247631749269 74.97693575345552  C 50.911268193209786 75.28847422737341  51.744249487767725 75.59997463455566  52.47304136348481 75.91151310847354  C 52.88949387719235 76.01535926386713  53.30592094783351 76.2230769215295  53.6182603408712 76.32692307692307  C 54.659391609625985 76.63846155084096  55.59643516974915 77.05384614146672  56.637566438503924 77.36538461538461  C 56.845792695357694 77.46923077077818  57.15808123329077 77.46924344421579  57.36630749014454 77.57308959960938  C 58.303325607201344 77.88462807352725  59.24029296223792 78.09230767992825  60.17731107929472 78.40384615384616  C 60.48965047233241 78.50769230923973  60.906102955011804 78.61152578345857  61.21844234804949 78.71537193885216  C 62.36368676850226 79.02691041277005  63.40489424234364 79.23461538152053  64.5501386627964 79.4423076923077  C 64.65425179122329 79.4423076923077  64.7583903316884 79.44228233769536  64.96661658854217 79.54612849308894  C 66.00774785729696 79.7538208038761  67.04885368298537 79.96151310692613  68.19409810343814 80.0653592623197  C 68.50643749647581 80.0653592623197  68.81880227052362 80.16924344576323  69.13114166356131 80.16924344576323  C 70.27638608401406 80.37693575655038  71.52564188389933 80.48074387615691  72.6708863043521 80.58459003155048  C 72.6708863043521 80.58459003155048  72.77510110420303 80.58459003155048  72.77510110420303 80.58459003155048  C 73.9203455246558 80.68843618694406  75.06548817284309 80.7922696611629  76.31484574499383 80.89611581655647  C 76.6271851380315 80.89611581655647  76.9395499120793 80.89611581655647  77.25188930511698 80.89611581655647  C 78.50124687726772 80.99996197195006  79.7505788822396 80.99999999999999  80.99993645439032 80.99999999999999  C 80.99993645439032 80.99999999999999  81.10415125424127 81  81.10415125424127 81  L 162 81  Z " fill-rule="nonzero" fill="#9cafc6" stroke="none" transform="matrix(1 0 0 1 1119 479 )" />
  </g>
</svg>