<?xml version="1.0" encoding="utf-8"?>
<svg version="1.1" xmlns:xlink="http://www.w3.org/1999/xlink" width="332px" height="389px" xmlns="http://www.w3.org/2000/svg">
  <g transform="matrix(1 0 0 1 -61 -180 )">
    <path d="M 332 379.90155029296875  C 331.8605041950941 385.0094704627991  328.3731064796448 389  323.90924072265625 389  C 323.90924072265625 389  7.951260566711426 389  7.951260566711426 389  C 3.6268906593322754 389  0 385.0094704627991  0 379.90155029296875  C 0 379.90155029296875  0 9.098482131958008  0 9.098482131958008  C 0 4.1501851081848145  3.4873948097229004 0  7.951260566711426 0  C 7.951260566711426 0  324.04876708984375 0  324.04876708984375 0  C 328.3731369972229 0  332 3.9905619621276855  332 9.098482131958008  C 332 9.098482131958008  332 379.90155029296875  332 379.90155029296875  Z " fill-rule="nonzero" fill="#f6f6f6" stroke="none" transform="matrix(1 0 0 1 61 180 )" />
  </g>
</svg>