<?xml version="1.0" encoding="utf-8"?>
<svg version="1.1" xmlns:xlink="http://www.w3.org/1999/xlink" width="211px" height="39px" xmlns="http://www.w3.org/2000/svg">
  <g transform="matrix(1 0 0 1 -1019 -530 )">
    <path d="M 211 34.93547439575195  C 210.89481554476131 37.16128158569336  209.0014781296708 39  206.5822356711817 39  C 206.5822356711817 39  4.417747432038984 39  4.417747432038984 39  C 1.9985049735498788 39  0 37.16128158569336  0 34.93547439575195  C 0 34.93547439575195  0 4.0645294189453125  0 4.0645294189453125  C 0 1.8387222290039062  1.9985049735498788 0  4.417747432038984 0  C 4.417747432038984 0  206.5822356711817 0  206.5822356711817 0  C 209.0014781296708 0  211 1.8387222290039062  211 4.0645294189453125  C 211 4.0645294189453125  211 34.93547439575195  211 34.93547439575195  Z " fill-rule="nonzero" fill="#466da1" stroke="none" transform="matrix(1 0 0 1 1019 530 )" />
  </g>
</svg>