<?xml version="1.0" encoding="utf-8"?>
<svg version="1.1" xmlns:xlink="http://www.w3.org/1999/xlink" width="131px" height="39px" xmlns="http://www.w3.org/2000/svg">
  <g transform="matrix(1 0 0 1 -97 -450 )">
    <path d="M 131 34.93547439575195  C 130.93469590985808 37.16128158569336  129.759217468175 39  128.25722338936544 39  C 128.25722338936544 39  2.742772174152461 39  2.742772174152461 39  C 1.2407780953428962 39  0 37.16128158569336  0 34.93547439575195  C 0 34.93547439575195  0 4.0645294189453125  0 4.0645294189453125  C 0 1.8387222290039062  1.2407780953428962 0  2.742772174152461 0  C 2.742772174152461 0  128.25722338936544 0  128.25722338936544 0  C 129.759217468175 0  131 1.8387222290039062  131 4.0645294189453125  C 131 4.0645294189453125  131 34.93547439575195  131 34.93547439575195  Z " fill-rule="nonzero" fill="#466da1" stroke="none" transform="matrix(1 0 0 1 97 450 )" />
  </g>
</svg>