<?xml version="1.0" encoding="utf-8"?>
<svg version="1.1" xmlns:xlink="http://www.w3.org/1999/xlink" width="31px" height="31px" xmlns="http://www.w3.org/2000/svg">
  <defs>
    <mask fill="white" id="clip532">
      <path d="M 15.5 0  C 24.06041382062066 0  31 6.939586639404297  31 15.5  C 31 24.060413360595703  24.06041382062066 31  15.5 31  C 6.93958617937934 31  0 24.060413360595703  0 15.5  C 0 6.939586639404297  6.93958617937934 0  15.5 0  Z " fill-rule="evenodd" />
    </mask>
  </defs>
  <g transform="matrix(1 0 0 1 -612 -635 )">
    <path d="M 15.5 0  C 24.06041382062066 0  31 6.939586639404297  31 15.5  C 31 24.060413360595703  24.06041382062066 31  15.5 31  C 6.93958617937934 31  0 24.060413360595703  0 15.5  C 0 6.939586639404297  6.93958617937934 0  15.5 0  Z " fill-rule="nonzero" fill="#264877" stroke="none" transform="matrix(1 0 0 1 612 635 )" />
    <path d="M 15.5 0  C 24.06041382062066 0  31 6.939586639404297  31 15.5  C 31 24.060413360595703  24.06041382062066 31  15.5 31  C 6.93958617937934 31  0 24.060413360595703  0 15.5  C 0 6.939586639404297  6.93958617937934 0  15.5 0  Z " stroke-width="4" stroke="#66b0dd" fill="none" transform="matrix(1 0 0 1 612 635 )" mask="url(#clip532)" />
  </g>
</svg>