<?xml version="1.0" encoding="utf-8"?>
<svg version="1.1" xmlns:xlink="http://www.w3.org/1999/xlink" width="33px" height="33px" xmlns="http://www.w3.org/2000/svg">
  <defs>
    <mask fill="white" id="clip527">
      <path d="M 16.5 0  C 25.612698554992676 0  33 7.387301445007324  33 16.5  C 33 25.612698554992676  25.612698554992676 33  16.5 33  C 7.387301445007324 33  0 25.612698554992676  0 16.5  C 0 7.387301445007324  7.387301445007324 0  16.5 0  Z " fill-rule="evenodd" />
    </mask>
  </defs>
  <g transform="matrix(1 0 0 1 -296 -106 )">
    <path d="M 16.5 0  C 25.612698554992676 0  33 7.387301445007324  33 16.5  C 33 25.612698554992676  25.612698554992676 33  16.5 33  C 7.387301445007324 33  0 25.612698554992676  0 16.5  C 0 7.387301445007324  7.387301445007324 0  16.5 0  Z " fill-rule="nonzero" fill="#264877" stroke="none" transform="matrix(1 0 0 1 296 106 )" />
    <path d="M 16.5 0  C 25.612698554992676 0  33 7.387301445007324  33 16.5  C 33 25.612698554992676  25.612698554992676 33  16.5 33  C 7.387301445007324 33  0 25.612698554992676  0 16.5  C 0 7.387301445007324  7.387301445007324 0  16.5 0  Z " stroke-width="4" stroke="#66b0dd" fill="none" transform="matrix(1 0 0 1 296 106 )" mask="url(#clip527)" />
  </g>
</svg>