<?xml version="1.0" encoding="utf-8"?>
<svg version="1.1" xmlns:xlink="http://www.w3.org/1999/xlink" width="8px" height="16px" xmlns="http://www.w3.org/2000/svg">
  <g transform="matrix(1 0 0 1 -142 -267 )">
    <path d="M 4 0  C 6.20915218162469 0  8 1.879342034852609  8 4.197575672971778  C 8 4.458118703613224  7.977438808087975 4.713115097368605  7.934161050017737 4.9605174379376935  C 7.592266761262859 4.5262790535352835  5.960908123448031 4.197240641213559  4 4.197240641213559  C 2.039162823696346 4.197240641213559  0.40780418588151823 4.5262790535352835  0.06590989712664065 4.9605174379376935  C 0.022632139056402982 4.713115097368605  0 4.458118703613224  0 4.197575672971778  C 0 1.879342034852609  1.7908478183753105 0  4 0  Z M 0.16551968783256474 5.396468206882111  C 0.6571124512238382 5.781829180335498  2.187868038311458 6.062846373979201  4 6.062846373979201  C 5.812202908832919 6.062846373979201  7.342887548776162 5.781829180335498  7.834480312167435 5.396468206882111  C 7.523448031216743 6.493548312044857  6.796594537069883 7.402675600846886  5.845689960979071 7.92260766385147  C 5.845689960979071 7.92260766385147  5.845689960979071 16  5.845689960979071 16  L 2.1533877261440226 16  C 2.1533877261440226 16  2.1533877261440226 7.922086503338685  2.1533877261440226 7.922086503338685  C 1.202908832919475 7.402079988832275  0.47641007449450157 6.493176054535725  0.16551968783256474 5.396468206882111  Z " fill-rule="nonzero" fill="#dfe3eb" stroke="none" transform="matrix(1 0 0 1 142 267 )" />
  </g>
</svg>