<?xml version="1.0" encoding="utf-8"?>
<svg version="1.1" xmlns:xlink="http://www.w3.org/1999/xlink" width="7px" height="14px" xmlns="http://www.w3.org/2000/svg">
  <g transform="matrix(1 0 0 1 -143 -98 )">
    <path d="M 6.602467693269306 2.6318584664420337  C 6.532674526936101 2.3153026552140363  6.428692260115798 2.028505689974165  6.297197760596231 1.7710994981182755  C 6.297197760596231 1.7710994981182755  7 1.7710994981182755  7 1.7710994981182755  L 7 0  L 0 0  L 0 1.7710994981182755  L 0.00042448960770322304 1.8518995281029715  L 3.5373849324034254 1.8518995281029715  C 3.5373849324034254 1.8518995281029715  3.5742127221967404 1.8487038415238017  3.5742127221967404 1.8487038415238017  C 3.743330929524066 1.834029075342904  4.102253750822864 1.8990069097512916  4.409787351709933 2.154120072622806  C 4.539605725272 2.2618103751071037  4.67273240944202 2.4137731260389184  4.776008851745346 2.6318584664420337  C 4.776008851745346 2.6318584664420337  0 2.6318584664420337  0 2.6318584664420337  L 0 4.402957964560309  C 0 4.402957964560309  4.842422130121383 4.402957964560309  4.842422130121383 4.402957964560309  C 4.734444244324406 4.710508172237308  4.569609623533148 4.9101859413115525  4.4097892862328845 5.042763582009794  C 4.1022570671479235 5.297874070548811  3.743332587686596 5.362853030991934  3.574208576790415 5.348178546319721  C 3.574208576790415 5.348178546319721  3.537382997880474 5.3449834227579185  3.537382997880474 5.3449834227579185  L 0.1492564256364245 5.3449834227579185  C 0.1492564256364245 5.3449834227579185  0.10457289222275187 6.1824762613780795  0.10457289222275187 6.1824762613780795  C 0.03374479065540137 7.509991265992007  0.24970739353352944 9.420818725378547  1.1869272479610722 11.034501945586946  C 2.1591028266854573 12.708371722404447  3.878799768267838 14.000000000000004  6.611534525983841 14.000000000000004  C 6.611534525983841 14.000000000000004  6.611534525983841 12.228900501881727  6.611534525983841 12.228900501881727  C 4.522047994961713 12.228900501881727  3.357486181386715 11.293379583333369  2.683365455626347 10.13269450701757  C 2.1407399202866 9.198414478747663  1.9007065233140419 8.082440300654492  1.8442670925565003 7.116082920876194  C 1.8442670925565003 7.116082920876194  3.4682127479377396 7.116082920876194  3.4682127479377396 7.116082920876194  C 4.071734440375279 7.156557113406739  4.858059155500982 6.955005341024044  5.507725023907151 6.416080612504986  C 6.0555835820116535 5.961609615178434  6.476315240700847 5.293054641881141  6.634718401758726 4.402957964560309  C 6.634718401758726 4.402957964560309  7 4.402957964560309  7 4.402957964560309  L 7 2.6318584664420337  C 7 2.6318584664420337  6.602467693269306 2.6318584664420337  6.602467693269306 2.6318584664420337  Z " fill-rule="nonzero" fill="#2b3b51" stroke="none" transform="matrix(1 0 0 1 143 98 )" />
  </g>
</svg>