<?xml version="1.0" encoding="utf-8"?>
<svg version="1.1" xmlns:xlink="http://www.w3.org/1999/xlink" width="14px" height="14px" xmlns="http://www.w3.org/2000/svg">
  <g transform="matrix(1 0 0 1 -139 -470 )">
    <path d="M 4.083636063808632 2.857045795233989  C 4.083636063808632 4.434951382504353  5.389394652219673 5.714091590467978  7.000101853244025 5.714091590467978  C 8.610876956431062 5.714091590467978  9.916635544842103 4.434951382504353  9.916635544842103 2.857045795233989  C 9.916635544842103 1.2791402079636245  8.610876956431062 0  7.000101853244025 0  C 5.389394652219673 0  4.083636063808632 1.2791402079636245  4.083636063808632 2.857045795233989  Z M 9.916635544842103 8.571569752386926  C 9.916635544842103 6.993664165116561  8.610876956431062 5.714091590467978  7.000101853244025 5.714091590467978  C 5.389394652219673 5.714091590467978  4.083636063808632 6.993664165116561  4.083636063808632 8.571569752386926  C 4.083636063808632 8.571569752386926  4.083636063808632 13.999966741024235  4.083636063808632 13.999966741024235  L 9.916635544842103 13.999966741024235  C 9.916635544842103 13.999966741024235  9.916635544842103 8.571569752386926  9.916635544842103 8.571569752386926  Z M 13.999999999999998 10.714412302020008  C 13.999999999999998 9.688772007345483  13.15122296645148 8.857330872169127  12.104239520028711 8.857330872169127  C 11.057323975768627 8.857330872169127  10.208546942220108 9.688772007345483  10.208546942220108 10.714412302020008  C 10.208546942220108 10.714412302020008  10.208546942220108 14.000000000000004  10.208546942220108 14.000000000000004  L 13.999999999999998 14.000000000000004  C 13.999999999999998 14.000000000000004  13.999999999999998 10.714412302020008  13.999999999999998 10.714412302020008  Z M 3.79145305777989 8.999313439714543  C 3.79145305777989 7.981156414587387  2.9549663156771544 7.154371536018283  1.9185077044703873 7.142365045766727  C 2.9549663156771544 7.1306246273213  3.79145305777989 6.3035736769460655  3.79145305777989 5.28541665181891  C 3.79145305777989 4.259776357144384  2.9426760242313716 3.428335221968029  1.8956925778086033 3.428335221968029  C 0.8487770335485185 3.428335221968029  0 4.259776357144384  0 5.28541665181891  C 0 6.3035736769460655  0.836486742102736 7.1306246273213  1.872877451146819 7.142365045766727  C 0.836486742102736 7.154371536018283  0 7.981156414587387  0 8.999313439714543  C 0 8.999313439714543  0 13.999135266630082  0 13.999135266630082  L 3.79145305777989 13.999135266630082  C 3.79145305777989 13.999135266630082  3.79145305777989 8.999313439714543  3.79145305777989 8.999313439714543  Z M 12.104239520028711 5.142968458612769  C 13.15122296645148 5.142968458612769  13.999999999999998 5.974409593789124  13.999999999999998 7.00004988846365  C 13.999999999999998 8.025690183138176  13.15122296645148 8.857330872169127  12.104239520028711 8.857330872169127  C 11.057323975768627 8.857330872169127  10.208546942220108 8.025690183138176  10.208546942220108 7.00004988846365  C 10.208546942220108 5.974409593789124  11.057323975768627 5.142968458612769  12.104239520028711 5.142968458612769  Z " fill-rule="nonzero" fill="#dfe3eb" stroke="none" transform="matrix(1 0 0 1 139 470 )" />
  </g>
</svg>