<?xml version="1.0" encoding="utf-8"?>
<svg version="1.1" xmlns:xlink="http://www.w3.org/1999/xlink" width="31px" height="35px" xmlns="http://www.w3.org/2000/svg">
  <g transform="matrix(1 0 0 1 -105 -186 )">
    <path d="M 31 35  C 31 35  31 19.455588072174503  31 19.455588072174503  C 31 15.544413362435792  25.90000629425049 12.335244520034593  19.100006103515625 11.43266578684522  C 19.100006103515625 11.332379256784217  19.100006103515625 11.232095790213958  19.100006103515625 11.232095790213958  C 19.100006103515625 9.426938323835211  17.80000615119934 7.922634238466772  16.100006103515625 7.621774640811838  C 16.100006103515625 7.621774640811838  16.100006103515625 2.707733210796664  16.100006103515625 2.707733210796664  L 19.100006103515625 2.707733210796664  L 19.100006103515625 0  L 15.5 0  L 14.9000244140625 0  C 14.9000244140625 0  14.9000244140625 7.621774640811838  14.9000244140625 7.621774640811838  C 13.200024366378784 7.922634238466772  11.9000244140625 9.426938323835211  11.9000244140625 11.232095790213958  C 11.9000244140625 11.33238232027496  11.9000244140625 11.43266578684522  11.9000244140625 11.43266578684522  C 5.100024223327637 12.335244520034593  0 15.544413362435792  0 19.455588072174503  C 0 19.455588072174503  0 35  0 35  C 5.900000095367432 35  6.899999618530273 35  15.5 35  C 24.100000381469727 35  23.699999809265137 35  31 35  Z M 26.4000244140625 19.355295422603948  C 26.4000244140625 19.355295422603948  26.4000244140625 32.39254413626404  26.4000244140625 32.39254413626404  C 25.800024390220642 32.29225760620304  25.200006127357483 32.09169067306252  24.600006103515625 31.991404143001517  C 24.600006103515625 31.991404143001517  24.600006103515625 19.355295422603948  24.600006103515625 19.355295422603948  C 25.200006127357483 19.355295422603948  25.800024390220642 19.355295422603948  26.4000244140625 19.355295422603948  Z M 13.70001220703125 19.455588072174503  C 13.70001220703125 19.455588072174503  13.70001220703125 31.38967885059788  13.70001220703125 31.38967885059788  C 12.400012254714966 31.38967885059788  11.200006127357483 31.48996231716814  10.100006103515625 31.59024884722914  C 10.100006103515625 31.59024884722914  10.100006103515625 19.455588072174503  10.100006103515625 19.455588072174503  C 11.100006103515625 19.455588072174503  12.300012230873108 19.455588072174503  13.70001220703125 19.455588072174503  Z M 17.300018310546875 31.38967885059788  C 17.300018310546875 31.38967885059788  17.300018310546875 19.455588072174503  17.300018310546875 19.455588072174503  C 18.800018310546875 19.455588072174503  20.000024437904358 19.455588072174503  20.9000244140625 19.455588072174503  C 20.9000244140625 19.455588072174503  20.9000244140625 31.59024884722914  20.9000244140625 31.59024884722914  C 19.700024366378784 31.48996231716814  18.50001835823059 31.38967885059788  17.300018310546875 31.38967885059788  Z M 4.600006103515625 19.55586541923521  C 5.200006127357483 19.45557888917421  5.800024390220642 19.455588072174503  6.4000244140625 19.455588072174503  C 6.4000244140625 19.455588072174503  6.4000244140625 32.09168149006222  6.4000244140625 32.09168149006222  C 5.800024390220642 32.19196802012323  5.100006103515625 32.292263725712594  4.600006103515625 32.4928367858346  C 4.600006103515625 32.4928367858346  4.600006103515625 19.55586541923521  4.600006103515625 19.55586541923521  Z " fill-rule="nonzero" fill="#2b3b51" stroke="none" transform="matrix(1 0 0 1 105 186 )" />
  </g>
</svg>