<?xml version="1.0" encoding="utf-8"?>
<svg version="1.1" xmlns:xlink="http://www.w3.org/1999/xlink" width="10px" height="27px" xmlns="http://www.w3.org/2000/svg">
  <g transform="matrix(1 0 0 1 -890 -195 )">
    <path d="M 5.052618729440789 9.434940252467783  C 7.684197676809211 9.535312023949338  9.894762541118421 7.327151365661931  9.894762541118421 4.7174854417505525  C 9.894762541118421 2.1078195178391734  7.684223275435599 0  4.947381270559211 0  C 2.2105392656828227 0  0 2.1078195178391734  0 4.7174854417505525  C 0 7.327151365661931  2.2105392656828227 9.434940252467783  4.947381270559211 9.434940252467783  C 2.2105392656828227 9.434940252467783  0 11.542759770306956  0 14.152425694218337  C 0 14.152425694218337  0 27  0 27  L 10 27  C 10 27  10 14.152425694218337  10 14.152425694218337  C 10 11.542759770306956  7.789460734317178 9.434940252467783  5.052618729440789 9.434940252467783  Z " fill-rule="nonzero" fill="#ffffff" stroke="none" transform="matrix(1 0 0 1 890 195 )" />
  </g>
</svg>