<?xml version="1.0" encoding="utf-8"?>
<svg version="1.1" xmlns:xlink="http://www.w3.org/1999/xlink" width="347px" height="40px" xmlns="http://www.w3.org/2000/svg">
  <g transform="matrix(1 0 0 1 -872 -640 )">
    <path d="M 347 35.8312521297944  C 346.8270189195402 38.21338694104729  343.7134439011712 40  339.7348791923642 40  C 339.7348791923642 40  7.265226386906953 40  7.265226386906953 40  C 3.286661678099984 40  0 38.114131185869525  0 35.8312521297944  C 0 35.8312521297944  0 4.168747870205596  0 4.168747870205596  C 0 1.8858688141304758  3.286661678099984 0  7.265226386906953 0  C 7.265226386906953 0  339.7348791923642 0  339.7348791923642 0  C 343.7134439011712 0  347 1.8858688141304758  347 4.168747870205596  C 347 4.168747870205596  347 35.8312521297944  347 35.8312521297944  Z " fill-rule="nonzero" fill="#466da1" stroke="none" transform="matrix(1 0 0 1 872 640 )" />
  </g>
</svg>