<?xml version="1.0" encoding="utf-8"?>
<svg version="1.1" xmlns:xlink="http://www.w3.org/1999/xlink" width="17px" height="33px" xmlns="http://www.w3.org/2000/svg">
  <g transform="matrix(1 0 0 1 -637 -190 )">
    <path d="M 17 3.431193720099252  L 17 3.33027014352359  L 17 0  L 0 0  L 0 3.33027014352359  C 0 3.33027014352359  8.697656180692324 3.33027014352359  8.697656180692324 3.33027014352359  C 9.38951614300558 3.33027014352359  10.377923765158975 3.532104965623983  11.267457994002946 4.3394443141770225  C 11.86048085250661 4.94494884062967  12.255781122300606 5.752291256907576  12.453455403559198 6.660547986435079  C 12.453455403559198 6.660547986435079  0.09881300899558206 6.660547986435079  0.09881300899558206 6.660547986435079  L 0.09881300899558206 9.990825829346567  C 0.09881300899558206 9.990825829346567  12.354642394563616 9.990825829346567  12.354642394563616 9.990825829346567  C 12.156968113305023 10.697247736773676  11.76164368978549 11.30275533095119  11.267457994002946 11.807342416277907  C 10.279086602437856 12.715599145805408  9.191866030200405 12.816516586931337  8.59884317169674 12.816516586931337  C 8.59884317169674 12.816516586931337  0.8895583825695073 12.816516586931337  0.8895583825695073 12.816516586931337  C 0.8895583825695073 12.816516586931337  0.790685048171608 14.431186020711353  0.790685048171608 14.431186020711353  C 0.691847907542311 16.550451682841214  0.6918480032735402 23.614677133167913  5.23835631021451 28.660547986435077  C 7.906959114569472 31.587153177572382  11.563933310489523 33  16.110441617430492 33  C 16.110441617430492 33  16.110441617430492 29.669722157088515  16.110441617430492 29.669722157088515  C 12.552304702054611 29.669722157088515  9.686051608159898 28.55962753773575  7.610471780131651 26.339444314177022  C 5.04070625632086 23.61467400529158  4.151159847518952 19.577977322677846  3.9534855662603574 16.247702607642694  C 3.9534855662603574 16.247702607642694  8.302343819307678 16.247702607642694  8.302343819307678 16.247702607642694  C 9.686063743934191 16.348620026211822  11.662782373338834 15.94495654001757  13.343013786128706 14.330277842911489  C 14.232548014972675 13.52293849435845  15.22090735913076 12.210999669276292  15.616255921647948 10.091734007146432  C 15.616255921647948 10.091734007146432  17 10.091734007146432  17 10.091734007146432  L 17 6.7614715630107405  C 17 6.7614715630107405  15.715129256045847 6.7614715630107405  15.715129256045847 6.7614715630107405  C 15.517454974787253 5.348627748156522  15.12209437959094 4.238533068652292  14.529071521087277 3.431193720099252  C 14.529071521087277 3.431193720099252  17 3.431193720099252  17 3.431193720099252  Z " fill-rule="nonzero" fill="#2b3b51" stroke="none" transform="matrix(1 0 0 1 637 190 )" />
  </g>
</svg>