<?xml version="1.0" encoding="utf-8"?>
<svg version="1.1" xmlns:xlink="http://www.w3.org/1999/xlink" width="50px" height="50px" xmlns="http://www.w3.org/2000/svg">
  <g transform="matrix(1 0 0 1 -95 -180 )">
    <path d="M 0 6.6999969482421875  C 0 2.9999969005584717  3.000012159347534 0  6.70001220703125 0  C 6.70001220703125 0  43.29998779296875 0  43.29998779296875 0  C 46.999987840652466 0  50 2.9999969005584717  50 6.6999969482421875  C 50 6.6999969482421875  50 43.30000305175781  50 43.30000305175781  C 50 47.00000309944153  46.999987840652466 50  43.29998779296875 50  C 43.29998779296875 50  6.70001220703125 50  6.70001220703125 50  C 3.000012159347534 50  0 47.00000309944153  0 43.30000305175781  C 0 43.30000305175781  0 6.6999969482421875  0 6.6999969482421875  Z " fill-rule="nonzero" fill="#db4e79" stroke="none" transform="matrix(1 0 0 1 95 180 )" />
  </g>
</svg>