<?xml version="1.0" encoding="utf-8"?>
<svg version="1.1" xmlns:xlink="http://www.w3.org/1999/xlink" width="50px" height="50px" xmlns="http://www.w3.org/2000/svg">
  <g transform="matrix(1 0 0 1 -882 -180 )">
    <path d="M 0 6.65323114047744  C 0 3.02419942511904  3.0242283280747975 0  6.653257810586885 0  C 6.653257810586885 0  43.34674218941312 0  43.34674218941312 0  C 47.07657819331456 0  50 3.02419942511904  50 6.65323114047744  C 50 6.65323114047744  50 43.34676885952256  50 43.34676885952256  C 50 47.07660715829392  46.9757716719252 50  43.34674218941312 50  C 43.34674218941312 50  6.653257810586885 50  6.653257810586885 50  C 2.9234218066854365 50  0 46.975800574880964  0 43.34676885952256  C 0 43.34676885952256  0 6.65323114047744  0 6.65323114047744  Z " fill-rule="nonzero" fill="#2e9260" stroke="none" transform="matrix(1 0 0 1 882 180 )" />
  </g>
</svg>