<?xml version="1.0" encoding="utf-8"?>
<svg version="1.1" xmlns:xlink="http://www.w3.org/1999/xlink" width="10px" height="23px" xmlns="http://www.w3.org/2000/svg">
  <g transform="matrix(1 0 0 1 -915 -200 )">
    <path d="M 9.9965478872267 14.413339572482638  C 10.101774708660248 11.857784016927084  7.786771724627373 9.608882649739584  5.050874508475339 9.608882649739584  C 7.786771724627373 9.608882649739584  9.9965478872267 7.462234603034126  9.9965478872267 4.804456922743055  C 9.9965478872267 2.146679242451986  7.786771724627373 0  5.050874508475339 0  C 2.314977292323304 0  0.10520112972397548 2.146679242451986  0.10520112972397548 4.804456922743055  C 0.10520112972397548 7.462234603034126  2.314977292323304 9.608882649739584  5.050874508475339 9.608882649739584  C 2.314977292323304 9.608882649739584  0 11.755561892191569  0 14.413339572482638  C 0 14.413339572482638  0 23  0 23  L 9.9965478872267 23  C 9.9965478872267 23  9.9965478872267 14.413339572482638  9.9965478872267 14.413339572482638  Z " fill-rule="nonzero" fill="#ffffff" stroke="none" transform="matrix(1 0 0 1 915 200 )" />
  </g>
</svg>