<?xml version="1.0" encoding="utf-8"?>
<svg version="1.1" xmlns:xlink="http://www.w3.org/1999/xlink" width="237px" height="256px" xmlns="http://www.w3.org/2000/svg">
  <g transform="matrix(1 0 0 1 -860 -253 )">
    <path d="M 237 250.01232562910286  C 236.90042016336537 253.37383592467862  234.4109223966139 256.00000000000006  231.2243676243058 256.00000000000006  C 231.2243676243058 256.00000000000006  5.676050464790988 256.00000000000006  5.676050464790988 256.00000000000006  C 2.589075561029366 256.00000000000006  0 253.37383592467862  0 250.01232562910286  C 0 250.01232562910286  0 5.987689863409464  0 5.987689863409464  C 0 2.7312270817662747  2.489495692482915 0  5.676050464790988 0  C 5.676050464790988 0  231.3239692779909 0  231.3239692779909 0  C 234.41094418175248 0  237 2.6261795678336983  237 5.987689863409464  C 237 5.987689863409464  237 250.01232562910286  237 250.01232562910286  Z " fill-rule="nonzero" fill="#f6f6f6" stroke="none" transform="matrix(1 0 0 1 860 253 )" />
  </g>
</svg>