<?xml version="1.0" encoding="utf-8"?>
<svg version="1.1" xmlns:xlink="http://www.w3.org/1999/xlink" width="50px" height="50px" xmlns="http://www.w3.org/2000/svg">
  <g transform="matrix(1 0 0 1 -358 -180 )">
    <path d="M 0 6.699981689453124  C 0 2.999981641769409  3.000012159347534 0  6.70001220703125 0  C 6.70001220703125 0  43.29998779296875 0  43.29998779296875 0  C 46.999987840652466 0  50 2.999981641769409  50 6.699981689453124  C 50 6.699981689453124  50 43.29998779296875  50 43.29998779296875  C 50 46.999987840652466  46.999987840652466 50  43.29998779296875 50  C 43.29998779296875 50  6.70001220703125 50  6.70001220703125 50  C 3.000012159347534 50  0 46.999987840652466  0 43.29998779296875  C 0 43.29998779296875  0 6.699981689453124  0 6.699981689453124  Z " fill-rule="nonzero" fill="#238bcc" stroke="none" transform="matrix(1 0 0 1 358 180 )" />
  </g>
</svg>