<?xml version="1.0" encoding="utf-8"?>
<svg version="1.1" xmlns:xlink="http://www.w3.org/1999/xlink" width="104px" height="104px" xmlns="http://www.w3.org/2000/svg">
  <defs>
    <mask fill="white" id="clip47">
      <path d="M 0 52  C 0 23.28119375132172  23.28119375132172 0  52 0  C 80.71880624867829 0  104 23.28119375132172  104 52  C 104 80.71880624867829  80.71880624867829 104  52 104  C 23.28119375132172 104  0 80.71880624867829  0 52  Z " fill-rule="evenodd" />
    </mask>
  </defs>
  <g transform="matrix(1 0 0 1 -1066 -225 )">
    <path d="M 0 52  C 0 23.28119375132172  23.28119375132172 0  52 0  C 80.71880624867829 0  104 23.28119375132172  104 52  C 104 80.71880624867829  80.71880624867829 104  52 104  C 23.28119375132172 104  0 80.71880624867829  0 52  Z " fill-rule="nonzero" fill="#ffffff" stroke="none" fill-opacity="0" transform="matrix(1 0 0 1 1066 225 )" />
    <path d="M 0 52  C 0 23.28119375132172  23.28119375132172 0  52 0  C 80.71880624867829 0  104 23.28119375132172  104 52  C 104 80.71880624867829  80.71880624867829 104  52 104  C 23.28119375132172 104  0 80.71880624867829  0 52  Z " stroke-width="3.3007736206054688" stroke="#e3e3e3" fill="none" transform="matrix(1 0 0 1 1066 225 )" mask="url(#clip47)" />
  </g>
</svg>