<?xml version="1.0" encoding="utf-8"?>
<svg version="1.1" xmlns:xlink="http://www.w3.org/1999/xlink" width="83px" height="83px" xmlns="http://www.w3.org/2000/svg">
  <g transform="matrix(1 0 0 1 -1077 -236 )">
    <path d="M 41.500049879969104 41.50001918461592  C 41.500049879969104 41.50001918461592  27.30623464942795 80.49723639829223  27.30623464942795 80.49723639829223  C 37.250136464938635 84.11652306365279  48.20102660742708 83.80043781142642  57.91961101020574 79.61360833686669  C 67.63819541298442 75.42677886230697  75.39027162624879 67.68550528533858  79.59065806888243 57.97276685985651  C 83.79104451151608 48.26002843437447  84.1224160910515 37.30958492072547  80.5170135073477 27.36063495253957  C 76.91161092364389 17.411684984353673  69.64180950335916 9.215834810933991  60.1941721335082 4.449013629906847  C 50.74653476365724 -0.31780755112029835  39.83479560076239 -1.295484355153746  29.690242017240255 1.715902982773232  C 19.54568843371812 4.72729032070021  10.934703612900005 11.500243910433085  5.618103701334093 20.649794914144454  C 0.30150378976818065 29.79934591785582  -1.3190618740445257 40.6342817367634  1.0877883613482477 50.939019040199675  C 3.494638596741021 61.24375634363595  9.747076416667397 70.23981315386025  18.566571498705848 76.08762940832425  C 18.566571498705848 76.08762940832425  41.500049879969104 41.50001918461592  41.500049879969104 41.50001918461592  Z " fill-rule="nonzero" fill="#e3e3e3" stroke="none" transform="matrix(1 0 0 1 1077 236 )" />
  </g>
</svg>