<?xml version="1.0" encoding="utf-8"?>
<svg version="1.1" xmlns:xlink="http://www.w3.org/1999/xlink" width="3px" height="3px" xmlns="http://www.w3.org/2000/svg">
  <defs>
    <mask fill="white" id="clip44">
      <path d="M 0 1.4999804264860461  C 0.8293494030203499 1.506162602329741  1.5002594705334544 2.1753997855520257  1.5002594705334544 3  C 1.5002594705334544 2.1753997855520257  2.17065059697965 1.506162602329741  3 1.4999804264860461  C 2.1706513020626215 1.4937972789076162  1.5002594705334544 0.824603757422385  1.5002594705334544 0  C 1.5002594705334544 0.8246043126993767  0.8293494735286469 1.4937981118231036  0 1.4999804264860461  Z " fill-rule="evenodd" />
    </mask>
  </defs>
  <g transform="matrix(1 0 0 1 -172 -254 )">
    <path d="M 0 1.4999804264860461  C 0.8293494030203499 1.506162602329741  1.5002594705334544 2.1753997855520257  1.5002594705334544 3  C 1.5002594705334544 2.1753997855520257  2.17065059697965 1.506162602329741  3 1.4999804264860461  C 2.1706513020626215 1.4937972789076162  1.5002594705334544 0.824603757422385  1.5002594705334544 0  C 1.5002594705334544 0.8246043126993767  0.8293494735286469 1.4937981118231036  0 1.4999804264860461  Z " fill-rule="nonzero" fill="#264877" stroke="none" fill-opacity="0.2901960784313726" transform="matrix(1 0 0 1 172 254 )" />
    <path d="M 0 1.4999804264860461  C 0.8293494030203499 1.506162602329741  1.5002594705334544 2.1753997855520257  1.5002594705334544 3  C 1.5002594705334544 2.1753997855520257  2.17065059697965 1.506162602329741  3 1.4999804264860461  C 2.1706513020626215 1.4937972789076162  1.5002594705334544 0.824603757422385  1.5002594705334544 0  C 1.5002594705334544 0.8246043126993767  0.8293494735286469 1.4937981118231036  0 1.4999804264860461  Z " stroke-width="0.6219695806503296" stroke="#e3e3e3" fill="none" transform="matrix(1 0 0 1 172 254 )" mask="url(#clip44)" />
  </g>
</svg>