<?xml version="1.0" encoding="utf-8"?>
<svg version="1.1" xmlns:xlink="http://www.w3.org/1999/xlink" width="1px" height="3px" xmlns="http://www.w3.org/2000/svg">
  <defs>
    <mask fill="white" id="clip500">
      <path d="M 0 1.5000249339472624  C 0.552266704545149 1.5000249339472624  1 0.828440598048503  1 0  C 1 0  1 2.990541367107439  1 2.990541367107439  C 0.9999870054102302 2.993691844679198  0.9999804633064151 2.9968447223100516  0.9999804633064151 3  C 0.9999804633064151 3  0 3  0 3  C 0 3  0 1.5000249339472624  0 1.5000249339472624  Z " fill-rule="evenodd" />
    </mask>
  </defs>
  <g transform="matrix(1 0 0 1 -167 -253 )">
    <path d="M 0 1.5000249339472624  C 0.552266704545149 1.5000249339472624  1 0.828440598048503  1 0  C 1 0  1 2.990541367107439  1 2.990541367107439  C 0.9999870054102302 2.993691844679198  0.9999804633064151 2.9968447223100516  0.9999804633064151 3  C 0.9999804633064151 3  0 3  0 3  C 0 3  0 1.5000249339472624  0 1.5000249339472624  Z " fill-rule="nonzero" fill="#264877" stroke="none" transform="matrix(1 0 0 1 167 253 )" />
    <path d="M 0 1.5000249339472624  C 0.552266704545149 1.5000249339472624  1 0.828440598048503  1 0  C 1 0  1 2.990541367107439  1 2.990541367107439  C 0.9999870054102302 2.993691844679198  0.9999804633064151 2.9968447223100516  0.9999804633064151 3  C 0.9999804633064151 3  0 3  0 3  C 0 3  0 1.5000249339472624  0 1.5000249339472624  Z " stroke-width="0.8237792253494263" stroke="#e3e3e3" fill="none" transform="matrix(1 0 0 1 167 253 )" mask="url(#clip500)" />
  </g>
</svg>