<?xml version="1.0" encoding="utf-8"?>
<svg version="1.1" xmlns:xlink="http://www.w3.org/1999/xlink" width="1px" height="3px" xmlns="http://www.w3.org/2000/svg">
  <defs>
    <mask fill="white" id="clip502">
      <path d="M 0 1.4999894498006243  C 0.5521986905197488 1.4999894498006243  1 2.1715670414732964  1 3  C 1 3  1 0.010292551316886991  1 0.010292551316886991  C 0.9999847001552243 0.006871510622055256  0.9999770502307012 0.003447693827978288  0.9999770502307012 2.1100396633062716E-05  C 0.9999770502307012 2.1100396633062716E-05  0 0  0 0  C 0 0  0 1.4999894498006243  0 1.4999894498006243  Z " fill-rule="evenodd" />
    </mask>
  </defs>
  <g transform="matrix(1 0 0 1 -190 -254 )">
    <path d="M 0 1.4999894498006243  C 0.5521986905197488 1.4999894498006243  1 2.1715670414732964  1 3  C 1 3  1 0.010292551316886991  1 0.010292551316886991  C 0.9999847001552243 0.006871510622055256  0.9999770502307012 0.003447693827978288  0.9999770502307012 2.1100396633062716E-05  C 0.9999770502307012 2.1100396633062716E-05  0 0  0 0  C 0 0  0 1.4999894498006243  0 1.4999894498006243  Z " fill-rule="nonzero" fill="#264877" stroke="none" fill-opacity="0.2901960784313726" transform="matrix(1 0 0 1 190 254 )" />
    <path d="M 0 1.4999894498006243  C 0.5521986905197488 1.4999894498006243  1 2.1715670414732964  1 3  C 1 3  1 0.010292551316886991  1 0.010292551316886991  C 0.9999847001552243 0.006871510622055256  0.9999770502307012 0.003447693827978288  0.9999770502307012 2.1100396633062716E-05  C 0.9999770502307012 2.1100396633062716E-05  0 0  0 0  C 0 0  0 1.4999894498006243  0 1.4999894498006243  Z " stroke-width="0.6219695806503296" stroke="#e3e3e3" fill="none" transform="matrix(1 0 0 1 190 254 )" mask="url(#clip502)" />
  </g>
</svg>