<?xml version="1.0" encoding="utf-8"?>
<svg version="1.1" xmlns:xlink="http://www.w3.org/1999/xlink" width="18px" height="25px" xmlns="http://www.w3.org/2000/svg">
  <g transform="matrix(1 0 0 1 -319 -201 )">
    <path d="M 14.05027571332001 13.457479678354442  C 13.410336945713764 11.760988077623535  11.882659607305872 10.487859660990372  10.021467102893235 10.182581996916769  C 12.491353228168963 9.777465293890089  14.373902318157127 7.6679160577542245  14.373902318157127 5.12639700392287  C 14.373902318157127 2.2951661563653722  12.037701226903332 0  9.155850683692993 0  C 6.274000140482655 0  3.9377990492288597 2.2951661563653722  3.9377990492288597 5.12639700392287  C 3.9377990492288597 7.6679160577542245  5.820348139217022 9.777465293890089  8.290234264492751 10.182581996916769  C 6.443370507535477 10.485509289352457  4.924906060279946 11.741442482047148  4.276362891184585 13.41837329287997  C 3.6266305331961157 13.461933513902652  2.227970885936462 13.802550321314321  1.3093366028845341 14.878181045205235  C 0.3570920863800778 15.99316696158845  0.03967700588931642 17.619187298276387  0 18.292823752249898  C 0 18.292823752249898  0.014882665354186253 18.29100043364594  0.014882665354186253 18.29100043364594  C -0.04434070032466073 18.90014838774572  0.08415033851164427 20.361002648978044  1.0687780200065344 21.43526018604535  C 1.9005024349252766 22.342697365882003  3.1569987910758712 22.86546370182906  3.9377990492288597 23.08844796993226  C 3.9377990492288597 23.08844796993226  3.9377990492288597 25  3.9377990492288597 25  C 3.9377990492288597 25  14.373902318157127 25  14.373902318157127 25  C 14.373902318157127 25  14.373902318157127 22.99099728842135  14.373902318157127 22.99099728842135  C 15.148957689588753 22.729252305662346  16.202609497529632 22.22965731030725  16.930726585311312 21.43526018604535  C 17.915385621664743 20.36096846175422  18.04385185395217 18.900053423235097  17.984613282828317 18.290941555649358  C 17.989794386235793 18.291560724258616  17.99492522520723 18.292187490028727  18 18.292823752249898  C 17.960322027486914 17.619187298276387  17.642907913619922 15.99316696158845  16.690663638771408 14.878181045205235  C 15.905418119555895 13.958735603000333  14.769430265505772 13.576348655591222  14.05027571332001 13.457479678354442  Z M 17.754044514957858 18.26878253674063  C 17.823038253169077 18.27473871084689  17.886792890546612 18.28024285388259  17.944682054887476 18.286434539975197  C 16.98661870494325 18.480253307575918  15.334453757685464 18.896418181768453  14.3890957105748 20.191986712261787  C 14.383997736811548 20.198974200953412  14.378932628256475 20.205957891064614  14.373902318157127 20.212937782595393  C 14.373902318157127 20.212937782595393  14.373902318157127 16.26608167008691  14.373902318157127 16.26608167008691  C 14.557837288865203 16.592102432215853  14.789979720233305 16.902657274144765  15.083750216684829 17.177837835866683  C 16.095536582520992 18.1256007454942  17.135451700065666 18.215380193837  17.754044514957858 18.26878253674063  Z M 3.9377990492288597 15.58816421597452  C 3.9377990492288597 15.58816421597452  3.9377990492288597 20.718426275479736  3.9377990492288597 20.718426275479736  C 3.8484071329101237 20.54617014966103  3.74048648885515 20.37025219231271  3.6104091363989914 20.191986712261787  C 2.6651076367788744 18.896494153376953  1.0130871808953417 18.48030268912144  0.054997852937295755 18.286468727199022  C 0.11297183473810617 18.280263746074926  0.17683368428488852 18.274750106588165  0.24595631573444396 18.26878253674063  C 0.8645473786210532 18.215380193837  1.9044629341671215 18.1256007454942  2.9162493000032867 17.177837835866683  C 3.4090976534885775 16.716175464634762  3.72849092952475 16.154956099046313  3.9377990492288597 15.58816421597452  Z " fill-rule="nonzero" fill="#c4c4c4" stroke="none" transform="matrix(1 0 0 1 319 201 )" />
  </g>
</svg>