<?xml version="1.0" encoding="utf-8"?>
<svg version="1.1" xmlns:xlink="http://www.w3.org/1999/xlink" width="40px" height="56px" xmlns="http://www.w3.org/2000/svg">
  <g transform="matrix(1 0 0 1 -501 -255 )">
    <path d="M 31.22326573545518 30.14502369448558  C 29.801446591701396 26.344831215560717  26.40689692058394 23.492877884406028  22.2711499348788 22.808759140806146  C 27.759045293806714 21.900761149305595  31.94174700208783 17.175672943431948  31.94174700208783 11.483125918818285  C 31.94174700208783 5.141170366752926  26.750278144380665 0  20.346276141837492 0  C 13.94227413929432 0  8.750804317899393 5.141170366752926  8.750804317899393 11.483125918818285  C 8.750804317899393 17.175823730859985  12.933727674366049 21.90101118921791  18.42183600828964 22.808831671467733  C 14.318154769218463 23.487806464199778  10.94428294643679 26.30114103546245  9.5033750754688 30.057345576836216  C 8.05976791507598 30.15477715976746  4.951196442450253 30.917656567044716  2.90958585036531 33.32735037176736  C 0.7935236327559398 35.82491316430144  0.08816875714634707 39.46720066684581  0 40.97614382012178  C 0 40.97614382012178  0.034441922092108314 40.97189505031405  0.034441922092108314 40.97189505031405  C -0.09727094617514737 42.33611281190059  0.18807956784385946 45.608887132883396  2.3763477775673727 48.01549265838372  C 4.224379276665601 50.04791250075496  7.016113341245211 51.218874223243645  8.751238941080612 51.71845396804751  C 8.751238941080612 51.71845396804751  8.751238941080612 56  8.751238941080612 56  C 8.751238941080612 56  31.94218258895681 56  31.94218258895681 56  C 31.94218258895681 56  31.94218258895681 51.500064146008036  31.94218258895681 51.500064146008036  C 33.66441982864668 50.91368428630034  36.005348467085966 49.79466215231466  37.62310653423669 48.01549265838372  C 39.811410159485504 45.608852776254224  40.09673497767376 42.33600974201307  39.96500656994132 40.97183015445895  C 39.97679439866125 40.973246411061524  39.98845887534747 40.97468557208355  40 40.97614382012178  C 39.91183027916589 39.46720066684581  39.20647636724406 35.82491316430144  37.090414631478566 33.32735037176736  C 35.34556156736105 31.267914766656453  32.8213742091135 30.411344831624568  31.22326573545518 30.14502369448558  Z M 39.453604457248645 40.922303164804525  C 39.60703125865813 40.93565644134308  39.7487935833814 40.947994288619405  39.877503721039375 40.96187818420852  C 37.74868661403968 41.39592838496985  34.076288414401155 42.32793975156067  31.97513492833295 45.23055956723735  C 31.96407950231309 45.24583299760636  31.953095389187713 45.26109879316887  31.94218258895681 45.276356953924896  C 31.94218258895681 45.276356953924896  31.94218258895681 36.436308467450296  31.94218258895681 36.436308467450296  C 32.35091340735419 37.166573890134316  32.86676775751303 37.862188743595794  33.519558284076844 38.478577210184454  C 35.767934349734816 40.60156494445883  38.07898095801164 40.80267719942755  39.453604457248645 40.922303164804525  Z M 8.751238941080612 34.91572986909442  C 8.751238941080612 34.91572986909442  8.751238941080612 46.4086102075454  8.751238941080612 46.4086102075454  C 8.552711552351616 46.02313264562814  8.313084807896072 45.629470571161235  8.024321069924703 45.23055956723735  C 5.923228778029461 42.32802373443198  2.250993795477028 41.39598182861523  0.12215090982966337 40.961916358240934  C 0.25040540386708626 40.948074454087475  0.39257525558204087 40.93569843277873  0.5453919824069162 40.922383330272595  C 0.5453919824069162 40.922383330272595  0.5465570809126701 40.9222917125948  0.5465570809126701 40.9222917125948  C 1.9211793755399664 40.80266574721783  4.23206468657742 40.60156494445883  6.480441715923158 38.478577210184454  C 7.576211078458157 37.44391587043134  8.286130461158324 36.18601660652212  8.751238941080612 34.91572986909442  Z " fill-rule="nonzero" fill="#c4c4c4" stroke="none" transform="matrix(1 0 0 1 501 255 )" />
  </g>
</svg>