<?xml version="1.0" encoding="utf-8"?>
<svg version="1.1" xmlns:xlink="http://www.w3.org/1999/xlink" width="17px" height="35px" xmlns="http://www.w3.org/2000/svg">
  <defs>
    <mask fill="white" id="clip494">
      <path d="M 0 0.0008816063169686333  C 0 0.0008816063169686333  0 34.99912030607968  0 34.99912030607968  C 2.224390318330889 35.022335200810986  4.431141935737207 34.5868473451268  6.492664216890428 33.71784476603639  C 8.554186498043649 32.848842186945994  10.429580186262747 31.56356060956601  12.010415201762573 29.93631231232524  C 13.591250217262399 28.309064015084466  14.84616319168586 26.372135210838692  15.702597834285788 24.237509825938975  C 16.559032476885715 22.102884441039258  17 19.812913214024956  17 17.5  C 17 15.187086785975042  16.559032476885715 12.897117576607354  15.702597834285788 10.762492191707636  C 14.84616319168586 8.627866806807917  13.591250217262399 6.690938002562142  12.010415201762573 5.0636897053213685  C 10.429580186262747 3.4364414080805945  8.554186498043649 2.15114898585011  6.492664216890428 1.2821464067597081  C 4.431141935737207 0.4131438276693061  2.224390318330889 -0.022333288414337335  0 0.0008816063169686333  Z " fill-rule="evenodd" />
    </mask>
  </defs>
  <g transform="matrix(1 0 0 1 -108 -235 )">
    <path d="M 0 0.0008816063169686333  C 0 0.0008816063169686333  0 34.99912030607968  0 34.99912030607968  C 2.224390318330889 35.022335200810986  4.431141935737207 34.5868473451268  6.492664216890428 33.71784476603639  C 8.554186498043649 32.848842186945994  10.429580186262747 31.56356060956601  12.010415201762573 29.93631231232524  C 13.591250217262399 28.309064015084466  14.84616319168586 26.372135210838692  15.702597834285788 24.237509825938975  C 16.559032476885715 22.102884441039258  17 19.812913214024956  17 17.5  C 17 15.187086785975042  16.559032476885715 12.897117576607354  15.702597834285788 10.762492191707636  C 14.84616319168586 8.627866806807917  13.591250217262399 6.690938002562142  12.010415201762573 5.0636897053213685  C 10.429580186262747 3.4364414080805945  8.554186498043649 2.15114898585011  6.492664216890428 1.2821464067597081  C 4.431141935737207 0.4131438276693061  2.224390318330889 -0.022333288414337335  0 0.0008816063169686333  Z " fill-rule="nonzero" fill="#a0b3ca" stroke="none" transform="matrix(1 0 0 1 108 235 )" />
    <path d="M 0 0.0008816063169686333  C 0 0.0008816063169686333  0 34.99912030607968  0 34.99912030607968  C 2.224390318330889 35.022335200810986  4.431141935737207 34.5868473451268  6.492664216890428 33.71784476603639  C 8.554186498043649 32.848842186945994  10.429580186262747 31.56356060956601  12.010415201762573 29.93631231232524  C 13.591250217262399 28.309064015084466  14.84616319168586 26.372135210838692  15.702597834285788 24.237509825938975  C 16.559032476885715 22.102884441039258  17 19.812913214024956  17 17.5  C 17 15.187086785975042  16.559032476885715 12.897117576607354  15.702597834285788 10.762492191707636  C 14.84616319168586 8.627866806807917  13.591250217262399 6.690938002562142  12.010415201762573 5.0636897053213685  C 10.429580186262747 3.4364414080805945  8.554186498043649 2.15114898585011  6.492664216890428 1.2821464067597081  C 4.431141935737207 0.4131438276693061  2.224390318330889 -0.022333288414337335  0 0.0008816063169686333  Z " stroke-width="0.8237792253494263" stroke="#e3e3e3" fill="none" transform="matrix(1 0 0 1 108 235 )" mask="url(#clip494)" />
  </g>
</svg>