<?xml version="1.0" encoding="utf-8"?>
<svg version="1.1" xmlns:xlink="http://www.w3.org/1999/xlink" width="17px" height="17px" xmlns="http://www.w3.org/2000/svg">
  <defs>
    <mask fill="white" id="clip34">
      <path d="M 17 0.9436846181818266  L 17 0  L 0 0  C 0 0  0 16.999996080002084  0 16.999996080002084  C 4.349010861490476 17.002946575789885  8.534076066101228 15.340686769030878  11.695643965483313 12.354620843582014  C 14.857211864865398 9.36855491813315  16.75527605061567 5.285366509428632  17 0.9436846181818266  Z " fill-rule="evenodd" />
    </mask>
  </defs>
  <g transform="matrix(1 0 0 1 -116 -277 )">
    <path d="M 17 0.9436846181818266  L 17 0  L 0 0  C 0 0  0 16.999996080002084  0 16.999996080002084  C 4.349010861490476 17.002946575789885  8.534076066101228 15.340686769030878  11.695643965483313 12.354620843582014  C 14.857211864865398 9.36855491813315  16.75527605061567 5.285366509428632  17 0.9436846181818266  Z " fill-rule="nonzero" fill="#a0b3ca" stroke="none" transform="matrix(1 0 0 1 116 277 )" />
    <path d="M 17 0.9436846181818266  L 17 0  L 0 0  C 0 0  0 16.999996080002084  0 16.999996080002084  C 4.349010861490476 17.002946575789885  8.534076066101228 15.340686769030878  11.695643965483313 12.354620843582014  C 14.857211864865398 9.36855491813315  16.75527605061567 5.285366509428632  17 0.9436846181818266  Z " stroke-width="0.8237792253494263" stroke="#e3e3e3" fill="none" transform="matrix(1 0 0 1 116 277 )" mask="url(#clip34)" />
  </g>
</svg>