<?xml version="1.0" encoding="utf-8"?>
<svg version="1.1" xmlns:xlink="http://www.w3.org/1999/xlink" width="9px" height="18px" xmlns="http://www.w3.org/2000/svg">
  <defs>
    <mask fill="white" id="clip486">
      <path d="M 0 0  L 0 18  C 0 18  0.014148486699307104 18  0.014148486699307104 18  C 2.397344595123364 17.999999999999996  4.682932033023031 17.051787212889817  6.368106222041919 15.3639599211324  C 8.053280411060808 13.676132629374985  8.999999999999995 11.386947486466875  9 8.99999932430089  C 8.999999999999995 6.613051162134903  8.053280411060808 4.323866019226793  6.368106222041919 2.636038727469377  C 4.682932033023031 0.9482114357119594  2.397344595123364 0  0.014148486699307104 0  C 0.014148486699307104 0  0 0  0 0  Z " fill-rule="evenodd" />
    </mask>
  </defs>
  <g transform="matrix(1 0 0 1 -258 -239 )">
    <path d="M 0 0  L 0 18  C 0 18  0.014148486699307104 18  0.014148486699307104 18  C 2.397344595123364 17.999999999999996  4.682932033023031 17.051787212889817  6.368106222041919 15.3639599211324  C 8.053280411060808 13.676132629374985  8.999999999999995 11.386947486466875  9 8.99999932430089  C 8.999999999999995 6.613051162134903  8.053280411060808 4.323866019226793  6.368106222041919 2.636038727469377  C 4.682932033023031 0.9482114357119594  2.397344595123364 0  0.014148486699307104 0  C 0.014148486699307104 0  0 0  0 0  Z " fill-rule="nonzero" fill="#5b5f68" stroke="none" transform="matrix(1 0 0 1 258 239 )" />
    <path d="M 0 0  L 0 18  C 0 18  0.014148486699307104 18  0.014148486699307104 18  C 2.397344595123364 17.999999999999996  4.682932033023031 17.051787212889817  6.368106222041919 15.3639599211324  C 8.053280411060808 13.676132629374985  8.999999999999995 11.386947486466875  9 8.99999932430089  C 8.999999999999995 6.613051162134903  8.053280411060808 4.323866019226793  6.368106222041919 2.636038727469377  C 4.682932033023031 0.9482114357119594  2.397344595123364 0  0.014148486699307104 0  C 0.014148486699307104 0  0 0  0 0  Z " stroke-width="0.8237792253494263" stroke="#e3e3e3" fill="none" transform="matrix(1 0 0 1 258 239 )" mask="url(#clip486)" />
  </g>
</svg>