<?xml version="1.0" encoding="utf-8"?>
<svg version="1.1" xmlns:xlink="http://www.w3.org/1999/xlink" width="35px" height="36px" xmlns="http://www.w3.org/2000/svg">
  <g transform="matrix(1 0 0 1 -211 -209 )">
    <path d="M 16.990564557480493 35  L 16.99228044944097 35  C 16.99228044944097 35  16.99228044944097 34.0305263574434  16.99228044944097 34.0305263574434  C 17.236608605165074 29.559275396840185  19.135575771177454 25.354222677796088  22.29886284720886 22.279689472065865  C 25.462149923240265 19.205156266335646  29.649417122579987 17.49474111207934  34 17.500002694539187  C 34 17.500002694539187  33.056460983417736 17.500002694539187  33.056460983417736 17.500002694539187  C 28.714230808910596 17.248132770353315  24.630541444869262 15.294213173001578  21.64424024797168 12.03960526078751  C 18.657939051074102 8.784997348573443  16.99576217099148 4.476807437220701  16.9991427084408 0  C 16.9991427084408 0  16.9991427084408 0.9712412602621525  16.9991427084408 0.9712412602621525  C 16.75447312899101 5.440654208323601  14.856524712478192 9.643984780010893  11.69511255271939 12.717917777137588  C 8.533700392960586 15.791850774264285  4.348821175986905 17.503030914181707  0 17.500002694539187  C 0 17.500002694539187  0.9332458734904047 17.500002694539187  0.9332458734904047 17.500002694539187  C 5.275476047997548 17.751872618725056  9.35916582105203 19.705792216076787  12.345467017949613 22.96040012829086  C 15.331768214847196 26.21500804050493  16.993945094929813 30.5231925627793  16.990564557480493 35  Z " fill-rule="nonzero" fill="#5b5f68" stroke="none" transform="matrix(1 0 0 1 211 209 )" />
    <path d="M 16.99228044944097 35  C 16.99228044944097 35  16.99228044944097 34.0305263574434  16.99228044944097 34.0305263574434  C 17.236608605165074 29.559275396840185  19.135575771177454 25.354222677796088  22.29886284720886 22.279689472065865  C 25.462149923240265 19.205156266335646  29.649417122579987 17.49474111207934  34 17.500002694539187  C 34 17.500002694539187  33.056460983417736 17.500002694539187  33.056460983417736 17.500002694539187  C 28.714230808910596 17.248132770353315  24.630541444869262 15.294213173001578  21.64424024797168 12.03960526078751  C 18.657939051074102 8.784997348573443  16.99576217099148 4.476807437220701  16.9991427084408 0  C 16.9991427084408 0  16.9991427084408 0.9712412602621525  16.9991427084408 0.9712412602621525  C 16.75447312899101 5.440654208323601  14.856524712478192 9.643984780010893  11.69511255271939 12.717917777137588  C 8.533700392960586 15.791850774264285  4.348821175986905 17.503030914181707  0 17.500002694539187  C 0 17.500002694539187  0.9332458734904047 17.500002694539187  0.9332458734904047 17.500002694539187  C 5.275476047997548 17.751872618725056  9.35916582105203 19.705792216076787  12.345467017949613 22.96040012829086  C 15.331768214847196 26.21500804050493  16.993945094929813 30.5231925627793  16.990564557480493 35  " stroke-width="0.41188961267471313" stroke="#e3e3e3" fill="none" transform="matrix(1 0 0 1 211 209 )" />
  </g>
</svg>