<?xml version="1.0" encoding="utf-8"?>
<svg version="1.1" xmlns:xlink="http://www.w3.org/1999/xlink" width="34px" height="35px" xmlns="http://www.w3.org/2000/svg">
  <defs>
    <mask fill="white" id="clip488">
      <path d="M 17 0  C 26.388840913172032 0  34 7.835016707028791  34 17.5  C 34 27.16498329297121  26.388840913172032 35  17 35  C 7.611159086827968 35  0 27.16498329297121  0 17.5  C 0 7.835016707028791  7.611159086827968 0  17 0  Z " fill-rule="evenodd" />
    </mask>
  </defs>
  <g transform="matrix(1 0 0 1 -99 -209 )">
    <path d="M 17 0  C 26.388840913172032 0  34 7.835016707028791  34 17.5  C 34 27.16498329297121  26.388840913172032 35  17 35  C 7.611159086827968 35  0 27.16498329297121  0 17.5  C 0 7.835016707028791  7.611159086827968 0  17 0  Z " fill-rule="nonzero" fill="#5b5f68" stroke="none" transform="matrix(1 0 0 1 99 209 )" />
    <path d="M 17 0  C 26.388840913172032 0  34 7.835016707028791  34 17.5  C 34 27.16498329297121  26.388840913172032 35  17 35  C 7.611159086827968 35  0 27.16498329297121  0 17.5  C 0 7.835016707028791  7.611159086827968 0  17 0  Z " stroke-width="0.8237792253494263" stroke="#e3e3e3" fill="none" transform="matrix(1 0 0 1 99 209 )" mask="url(#clip488)" />
  </g>
</svg>