<?xml version="1.0" encoding="utf-8"?>
<svg version="1.1" xmlns:xlink="http://www.w3.org/1999/xlink" width="34px" height="35px" xmlns="http://www.w3.org/2000/svg">
  <defs>
    <mask fill="white" id="clip498">
      <path d="M 0 0  C 0 18.70774831173378  14.21369215873943 33.991776813114704  32.113302833717775 35  C 32.113302833717775 35  34 35  34 35  L 34 0  C 34 0  0 0  0 0  Z " fill-rule="evenodd" />
    </mask>
  </defs>
  <g transform="matrix(1 0 0 1 -211 -277 )">
    <path d="M 0 0  C 0 18.70774831173378  14.21369215873943 33.991776813114704  32.113302833717775 35  C 32.113302833717775 35  34 35  34 35  L 34 0  C 34 0  0 0  0 0  Z " fill-rule="nonzero" fill="#5b5f68" stroke="none" transform="matrix(1 0 0 1 211 277 )" />
    <path d="M 0 0  C 0 18.70774831173378  14.21369215873943 33.991776813114704  32.113302833717775 35  C 32.113302833717775 35  34 35  34 35  L 34 0  C 34 0  0 0  0 0  Z " stroke-width="0.8237792253494263" stroke="#e3e3e3" fill="none" transform="matrix(1 0 0 1 211 277 )" mask="url(#clip498)" />
  </g>
</svg>