<?xml version="1.0" encoding="utf-8"?>
<svg version="1.1" xmlns:xlink="http://www.w3.org/1999/xlink" width="34px" height="35px" xmlns="http://www.w3.org/2000/svg">
  <defs>
    <mask fill="white" id="clip27">
      <path d="M 0 0  C 0 18.70774831173378  14.21126009930682 33.991776813114704  32.11339795381061 35  C 32.11339795381061 35  34 35  34 35  L 34 0  C 34 0  0 0  0 0  Z " fill-rule="evenodd" />
    </mask>
  </defs>
  <g transform="matrix(1 0 0 1 -246 -209 )">
    <path d="M 0 0  C 0 18.70774831173378  14.21126009930682 33.991776813114704  32.11339795381061 35  C 32.11339795381061 35  34 35  34 35  L 34 0  C 34 0  0 0  0 0  Z " fill-rule="nonzero" fill="#5b5f68" stroke="none" transform="matrix(1 0 0 1 246 209 )" />
    <path d="M 0 0  C 0 18.70774831173378  14.21126009930682 33.991776813114704  32.11339795381061 35  C 32.11339795381061 35  34 35  34 35  L 34 0  C 34 0  0 0  0 0  Z " stroke-width="0.8237792253494263" stroke="#e3e3e3" fill="none" transform="matrix(1 0 0 1 246 209 )" mask="url(#clip27)" />
  </g>
</svg>