<?xml version="1.0" encoding="utf-8"?>
<svg version="1.1" xmlns:xlink="http://www.w3.org/1999/xlink" width="17px" height="17px" xmlns="http://www.w3.org/2000/svg">
  <defs>
    <mask fill="white" id="clip35">
      <path d="M 0.942065273932867 0  L 0 0  L 0 17  C 0 17  16.999996079606735 17  16.999996079606735 17  C 17.002946872963953 12.650989138509525  15.340519420590473 8.465923933898774  12.354152338333934 5.304356034516688  C 9.367785256077397 2.142788135134603  5.2841850413320905 0.244723949384329  0.942065273932867 0  Z " fill-rule="evenodd" />
    </mask>
  </defs>
  <g transform="matrix(1 0 0 1 -99 -277 )">
    <path d="M 0.942065273932867 0  L 0 0  L 0 17  C 0 17  16.999996079606735 17  16.999996079606735 17  C 17.002946872963953 12.650989138509525  15.340519420590473 8.465923933898774  12.354152338333934 5.304356034516688  C 9.367785256077397 2.142788135134603  5.2841850413320905 0.244723949384329  0.942065273932867 0  Z " fill-rule="nonzero" fill="#a0b3ca" stroke="none" transform="matrix(1 0 0 1 99 277 )" />
    <path d="M 0.942065273932867 0  L 0 0  L 0 17  C 0 17  16.999996079606735 17  16.999996079606735 17  C 17.002946872963953 12.650989138509525  15.340519420590473 8.465923933898774  12.354152338333934 5.304356034516688  C 9.367785256077397 2.142788135134603  5.2841850413320905 0.244723949384329  0.942065273932867 0  Z " stroke-width="0.8237792253494263" stroke="#e3e3e3" fill="none" transform="matrix(1 0 0 1 99 277 )" mask="url(#clip35)" />
  </g>
</svg>