<?xml version="1.0" encoding="utf-8"?>
<svg version="1.1" xmlns:xlink="http://www.w3.org/1999/xlink" width="17px" height="35px" xmlns="http://www.w3.org/2000/svg">
  <defs>
    <mask fill="white" id="clip497">
      <path d="M 0 17.500005380931515  C 0 17.500005380931515  0.011997221424075534 35  0.011997221424075534 35  C 4.301126781448022 35.000311562983626  8.431551380274202 33.33096889437231  11.57379377133846 30.32720983326799  C 14.716036162402716 27.32345077216367  16.63739128378506 23.207716159706045  16.952011114303698 18.806549362359615  C 16.952011114303716 18.74836297995387  16.952012369410927 18.690176602802936  16.964008335727772 18.63022699843953  C 16.97257688318815 18.496222003541803  16.979430884269338 18.360455930651323  16.984572012554047 18.224687713795937  C 16.99314056001442 18.02720666536467  16.998286290571762 17.82972647872322  17 17.630482208334293  C 17 17.595217735024793  17 17.561722513574242  17 17.526458040264743  C 17 17.526458040264743  17 17.500005380931515  17 17.500005380931515  C 17 17.500005380931515  17 1.1329561478124565E-05  17 1.1329561478124565E-05  C 14.01706040464704 -0.003490758610414651  11.086303852213106 0.8049656629307628  8.505140919206568 2.3433369894841225  C 8.029872164299759 2.626628257265218  7.5700288636418165 2.9322506220500966  7.125606890572961 3.2602102214637667  C 6.686897276944833 3.583467895657012  6.265323883620522 3.9261240381584916  5.860888467494783 4.288172616439514  C 5.860888467494783 4.288172616439514  5.826612186233497 4.31814440498428  5.826612186233497 4.31814440498428  C 5.438171376541798 4.670789132824451  5.065159371456408 5.038716841210633  4.707565343602661 5.4219241250221  C 4.707565343602661 5.4219241250221  4.6287309426669525 5.50655541590757  4.6287309426669525 5.50655541590757  C 4.515626113380979 5.629981068549704  4.40252129430951 5.7569374740562225  4.2859890493591 5.885652803080967  C 4.2859890493591 5.885652803080967  4.267140755543769 5.9068106258023345  4.267140755543769 5.9068106258023345  C 4.059781903555235 6.148372265213623  3.860989935978082 6.3952220571109  3.6656270592440867 6.64912627124507  C 3.6656270592440867 6.64912627124507  3.540529615275523 6.813104778267186  3.540529615275523 6.813104778267186  C 3.4514167262841227 6.933003986994  3.3691519781212143 7.052906422177797  3.276611663250872 7.174568852862271  C 3.276611663250872 7.174568852862271  3.139516997858232 7.372049039503724  3.139516997858232 7.372049039503724  C 3.0058476643711316 7.566003644019671  2.8756059508385565 7.763485764433388  2.74879144868033 7.962730034822314  C 2.693952746976814 8.050891216782357  2.6374003323338275 8.139048741390509  2.5774205020264036 8.228973145308212  C 2.51744067171898 8.318897549225914  2.445467593429692 8.445852451855076  2.382060342350579 8.556935540283959  C 2.318653091271466 8.668018628712842  2.24153595792276 8.805549216245705  2.1729875782397388 8.930738090845496  C 2.104439198556718 9.055926965445291  2.020466181785184 9.214615806594429  1.9467766734982554 9.359200143747742  C 1.8730871652113263 9.503784480901055  1.8199627995320498 9.609580478316767  1.7599829692246258 9.736532585383854  C 1.7119991039572364 9.833509887641824  1.665729365316746 9.930487830987342  1.6211729208210457 10.029228355202976  C 1.5406285760979903 10.205550719123062  1.4635106051599236 10.381873083043146  1.3898210968729947 10.558195446963232  C 1.3504057784275763 10.649883072838595  1.3144172525618265 10.743331566514078  1.276715644502253 10.8367824143471  C 1.2115946855909212 10.998998992096276  1.148186387525107 11.162979622064029  1.0882065572176833 11.328722643728524  C 1.0882065572176833 11.328722643728524  0.9956647816732122 11.584386842853737  0.9956647816732122 11.584386842853737  C 0.9202615655540648 11.799500131880865  0.8482857650993543 12.01638416776207  0.7814510983558042 12.236787122662175  C 0.7660277125440804 12.286157384769991  0.7523215943193589 12.337288288720845  0.7368982085076353 12.388421772786323  C 0.67863208603243 12.585902821217587  0.623793384328914 12.786903860650208  0.5655272618537088 12.987911352996795  C 0.5449627487148903 13.063729970743587  0.526112571600311 13.13955547229925  0.5072617675705242 13.215374090046046  C 0.448995645095319 13.455172507499672  0.3941565245971226 13.694966616004233  0.34617265932973307 13.93829147737318  C 0.34617265932973307 13.93829147737318  0.3307499017100301 14.017638693509827  0.3307499017100301 14.017638693509827  C 0.28619345721433 14.245094536240574  0.24677604479550957 14.474317930897309  0.21078814712178048 14.705300217543375  C 0.21078814712178048 14.705300217543375  0.17994263188237442 14.915113499219764  0.17994263188237442 14.915113499219764  C 0.14395473420864538 15.169017713353933  0.11139111634650259 15.424691581340468  0.08568547332696319 15.682122239389956  C 0.08568547332696319 15.692701580988695  0.08568547332696319 15.70327963187327  0.08568547332696319 15.713858973472007  C 0.061693540693268455 15.965999944629253  0.044560420491537904 16.218140495401226  0.03085074506565893 16.473807931493056  C 0.03085074506565893 16.540810428941917  0.03085116322193281 16.60781551176022  0.020568906652523575 16.67481800920908  C 0.008572940335676207 16.94106477704687  0 17.203781233424806  0 17.475317667135574  C 0 17.475317667135574  0 17.49118926260414  0 17.500005380931515  Z " fill-rule="evenodd" />
    </mask>
  </defs>
  <g transform="matrix(1 0 0 1 -142 -286 )">
    <path d="M 0 17.500005380931515  C 0 17.500005380931515  0.011997221424075534 35  0.011997221424075534 35  C 4.301126781448022 35.000311562983626  8.431551380274202 33.33096889437231  11.57379377133846 30.32720983326799  C 14.716036162402716 27.32345077216367  16.63739128378506 23.207716159706045  16.952011114303698 18.806549362359615  C 16.952011114303716 18.74836297995387  16.952012369410927 18.690176602802936  16.964008335727772 18.63022699843953  C 16.97257688318815 18.496222003541803  16.979430884269338 18.360455930651323  16.984572012554047 18.224687713795937  C 16.99314056001442 18.02720666536467  16.998286290571762 17.82972647872322  17 17.630482208334293  C 17 17.595217735024793  17 17.561722513574242  17 17.526458040264743  C 17 17.526458040264743  17 17.500005380931515  17 17.500005380931515  C 17 17.500005380931515  17 1.1329561478124565E-05  17 1.1329561478124565E-05  C 14.01706040464704 -0.003490758610414651  11.086303852213106 0.8049656629307628  8.505140919206568 2.3433369894841225  C 8.029872164299759 2.626628257265218  7.5700288636418165 2.9322506220500966  7.125606890572961 3.2602102214637667  C 6.686897276944833 3.583467895657012  6.265323883620522 3.9261240381584916  5.860888467494783 4.288172616439514  C 5.860888467494783 4.288172616439514  5.826612186233497 4.31814440498428  5.826612186233497 4.31814440498428  C 5.438171376541798 4.670789132824451  5.065159371456408 5.038716841210633  4.707565343602661 5.4219241250221  C 4.707565343602661 5.4219241250221  4.6287309426669525 5.50655541590757  4.6287309426669525 5.50655541590757  C 4.515626113380979 5.629981068549704  4.40252129430951 5.7569374740562225  4.2859890493591 5.885652803080967  C 4.2859890493591 5.885652803080967  4.267140755543769 5.9068106258023345  4.267140755543769 5.9068106258023345  C 4.059781903555235 6.148372265213623  3.860989935978082 6.3952220571109  3.6656270592440867 6.64912627124507  C 3.6656270592440867 6.64912627124507  3.540529615275523 6.813104778267186  3.540529615275523 6.813104778267186  C 3.4514167262841227 6.933003986994  3.3691519781212143 7.052906422177797  3.276611663250872 7.174568852862271  C 3.276611663250872 7.174568852862271  3.139516997858232 7.372049039503724  3.139516997858232 7.372049039503724  C 3.0058476643711316 7.566003644019671  2.8756059508385565 7.763485764433388  2.74879144868033 7.962730034822314  C 2.693952746976814 8.050891216782357  2.6374003323338275 8.139048741390509  2.5774205020264036 8.228973145308212  C 2.51744067171898 8.318897549225914  2.445467593429692 8.445852451855076  2.382060342350579 8.556935540283959  C 2.318653091271466 8.668018628712842  2.24153595792276 8.805549216245705  2.1729875782397388 8.930738090845496  C 2.104439198556718 9.055926965445291  2.020466181785184 9.214615806594429  1.9467766734982554 9.359200143747742  C 1.8730871652113263 9.503784480901055  1.8199627995320498 9.609580478316767  1.7599829692246258 9.736532585383854  C 1.7119991039572364 9.833509887641824  1.665729365316746 9.930487830987342  1.6211729208210457 10.029228355202976  C 1.5406285760979903 10.205550719123062  1.4635106051599236 10.381873083043146  1.3898210968729947 10.558195446963232  C 1.3504057784275763 10.649883072838595  1.3144172525618265 10.743331566514078  1.276715644502253 10.8367824143471  C 1.2115946855909212 10.998998992096276  1.148186387525107 11.162979622064029  1.0882065572176833 11.328722643728524  C 1.0882065572176833 11.328722643728524  0.9956647816732122 11.584386842853737  0.9956647816732122 11.584386842853737  C 0.9202615655540648 11.799500131880865  0.8482857650993543 12.01638416776207  0.7814510983558042 12.236787122662175  C 0.7660277125440804 12.286157384769991  0.7523215943193589 12.337288288720845  0.7368982085076353 12.388421772786323  C 0.67863208603243 12.585902821217587  0.623793384328914 12.786903860650208  0.5655272618537088 12.987911352996795  C 0.5449627487148903 13.063729970743587  0.526112571600311 13.13955547229925  0.5072617675705242 13.215374090046046  C 0.448995645095319 13.455172507499672  0.3941565245971226 13.694966616004233  0.34617265932973307 13.93829147737318  C 0.34617265932973307 13.93829147737318  0.3307499017100301 14.017638693509827  0.3307499017100301 14.017638693509827  C 0.28619345721433 14.245094536240574  0.24677604479550957 14.474317930897309  0.21078814712178048 14.705300217543375  C 0.21078814712178048 14.705300217543375  0.17994263188237442 14.915113499219764  0.17994263188237442 14.915113499219764  C 0.14395473420864538 15.169017713353933  0.11139111634650259 15.424691581340468  0.08568547332696319 15.682122239389956  C 0.08568547332696319 15.692701580988695  0.08568547332696319 15.70327963187327  0.08568547332696319 15.713858973472007  C 0.061693540693268455 15.965999944629253  0.044560420491537904 16.218140495401226  0.03085074506565893 16.473807931493056  C 0.03085074506565893 16.540810428941917  0.03085116322193281 16.60781551176022  0.020568906652523575 16.67481800920908  C 0.008572940335676207 16.94106477704687  0 17.203781233424806  0 17.475317667135574  C 0 17.475317667135574  0 17.49118926260414  0 17.500005380931515  Z " fill-rule="nonzero" fill="#5b5f68" stroke="none" transform="matrix(1 0 0 1 142 286 )" />
    <path d="M 0 17.500005380931515  C 0 17.500005380931515  0.011997221424075534 35  0.011997221424075534 35  C 4.301126781448022 35.000311562983626  8.431551380274202 33.33096889437231  11.57379377133846 30.32720983326799  C 14.716036162402716 27.32345077216367  16.63739128378506 23.207716159706045  16.952011114303698 18.806549362359615  C 16.952011114303716 18.74836297995387  16.952012369410927 18.690176602802936  16.964008335727772 18.63022699843953  C 16.97257688318815 18.496222003541803  16.979430884269338 18.360455930651323  16.984572012554047 18.224687713795937  C 16.99314056001442 18.02720666536467  16.998286290571762 17.82972647872322  17 17.630482208334293  C 17 17.595217735024793  17 17.561722513574242  17 17.526458040264743  C 17 17.526458040264743  17 17.500005380931515  17 17.500005380931515  C 17 17.500005380931515  17 1.1329561478124565E-05  17 1.1329561478124565E-05  C 14.01706040464704 -0.003490758610414651  11.086303852213106 0.8049656629307628  8.505140919206568 2.3433369894841225  C 8.029872164299759 2.626628257265218  7.5700288636418165 2.9322506220500966  7.125606890572961 3.2602102214637667  C 6.686897276944833 3.583467895657012  6.265323883620522 3.9261240381584916  5.860888467494783 4.288172616439514  C 5.860888467494783 4.288172616439514  5.826612186233497 4.31814440498428  5.826612186233497 4.31814440498428  C 5.438171376541798 4.670789132824451  5.065159371456408 5.038716841210633  4.707565343602661 5.4219241250221  C 4.707565343602661 5.4219241250221  4.6287309426669525 5.50655541590757  4.6287309426669525 5.50655541590757  C 4.515626113380979 5.629981068549704  4.40252129430951 5.7569374740562225  4.2859890493591 5.885652803080967  C 4.2859890493591 5.885652803080967  4.267140755543769 5.9068106258023345  4.267140755543769 5.9068106258023345  C 4.059781903555235 6.148372265213623  3.860989935978082 6.3952220571109  3.6656270592440867 6.64912627124507  C 3.6656270592440867 6.64912627124507  3.540529615275523 6.813104778267186  3.540529615275523 6.813104778267186  C 3.4514167262841227 6.933003986994  3.3691519781212143 7.052906422177797  3.276611663250872 7.174568852862271  C 3.276611663250872 7.174568852862271  3.139516997858232 7.372049039503724  3.139516997858232 7.372049039503724  C 3.0058476643711316 7.566003644019671  2.8756059508385565 7.763485764433388  2.74879144868033 7.962730034822314  C 2.693952746976814 8.050891216782357  2.6374003323338275 8.139048741390509  2.5774205020264036 8.228973145308212  C 2.51744067171898 8.318897549225914  2.445467593429692 8.445852451855076  2.382060342350579 8.556935540283959  C 2.318653091271466 8.668018628712842  2.24153595792276 8.805549216245705  2.1729875782397388 8.930738090845496  C 2.104439198556718 9.055926965445291  2.020466181785184 9.214615806594429  1.9467766734982554 9.359200143747742  C 1.8730871652113263 9.503784480901055  1.8199627995320498 9.609580478316767  1.7599829692246258 9.736532585383854  C 1.7119991039572364 9.833509887641824  1.665729365316746 9.930487830987342  1.6211729208210457 10.029228355202976  C 1.5406285760979903 10.205550719123062  1.4635106051599236 10.381873083043146  1.3898210968729947 10.558195446963232  C 1.3504057784275763 10.649883072838595  1.3144172525618265 10.743331566514078  1.276715644502253 10.8367824143471  C 1.2115946855909212 10.998998992096276  1.148186387525107 11.162979622064029  1.0882065572176833 11.328722643728524  C 1.0882065572176833 11.328722643728524  0.9956647816732122 11.584386842853737  0.9956647816732122 11.584386842853737  C 0.9202615655540648 11.799500131880865  0.8482857650993543 12.01638416776207  0.7814510983558042 12.236787122662175  C 0.7660277125440804 12.286157384769991  0.7523215943193589 12.337288288720845  0.7368982085076353 12.388421772786323  C 0.67863208603243 12.585902821217587  0.623793384328914 12.786903860650208  0.5655272618537088 12.987911352996795  C 0.5449627487148903 13.063729970743587  0.526112571600311 13.13955547229925  0.5072617675705242 13.215374090046046  C 0.448995645095319 13.455172507499672  0.3941565245971226 13.694966616004233  0.34617265932973307 13.93829147737318  C 0.34617265932973307 13.93829147737318  0.3307499017100301 14.017638693509827  0.3307499017100301 14.017638693509827  C 0.28619345721433 14.245094536240574  0.24677604479550957 14.474317930897309  0.21078814712178048 14.705300217543375  C 0.21078814712178048 14.705300217543375  0.17994263188237442 14.915113499219764  0.17994263188237442 14.915113499219764  C 0.14395473420864538 15.169017713353933  0.11139111634650259 15.424691581340468  0.08568547332696319 15.682122239389956  C 0.08568547332696319 15.692701580988695  0.08568547332696319 15.70327963187327  0.08568547332696319 15.713858973472007  C 0.061693540693268455 15.965999944629253  0.044560420491537904 16.218140495401226  0.03085074506565893 16.473807931493056  C 0.03085074506565893 16.540810428941917  0.03085116322193281 16.60781551176022  0.020568906652523575 16.67481800920908  C 0.008572940335676207 16.94106477704687  0 17.203781233424806  0 17.475317667135574  C 0 17.475317667135574  0 17.49118926260414  0 17.500005380931515  Z " stroke-width="0.8237792253494263" stroke="#e3e3e3" fill="none" transform="matrix(1 0 0 1 142 286 )" mask="url(#clip497)" />
  </g>
</svg>