<?xml version="1.0" encoding="utf-8"?>
<svg version="1.1" xmlns:xlink="http://www.w3.org/1999/xlink" width="34px" height="35px" xmlns="http://www.w3.org/2000/svg">
  <defs>
    <mask fill="white" id="clip482">
      <path d="M 16.999998691356105 0  C 26.388838784078914 0  34 7.835016807607624  34 17.5  C 34 27.164983192392377  26.388838784078914 35  16.999998691356105 35  C 7.611158598633299 35  0 27.164983192392377  0 17.5  C 0 7.835016807607624  7.611158598633299 0  16.999998691356105 0  Z " fill-rule="evenodd" />
    </mask>
  </defs>
  <g transform="matrix(1 0 0 1 -246 -243 )">
    <path d="M 16.999998691356105 0  C 26.388838784078914 0  34 7.835016807607624  34 17.5  C 34 27.164983192392377  26.388838784078914 35  16.999998691356105 35  C 7.611158598633299 35  0 27.164983192392377  0 17.5  C 0 7.835016807607624  7.611158598633299 0  16.999998691356105 0  Z " fill-rule="nonzero" fill="#a0b3ca" stroke="none" transform="matrix(1 0 0 1 246 243 )" />
    <path d="M 16.999998691356105 0  C 26.388838784078914 0  34 7.835016807607624  34 17.5  C 34 27.164983192392377  26.388838784078914 35  16.999998691356105 35  C 7.611158598633299 35  0 27.164983192392377  0 17.5  C 0 7.835016807607624  7.611158598633299 0  16.999998691356105 0  Z " stroke-width="0.8237792253494263" stroke="#e3e3e3" fill="none" transform="matrix(1 0 0 1 246 243 )" mask="url(#clip482)" />
  </g>
</svg>