<?xml version="1.0" encoding="utf-8"?>
<svg version="1.1" xmlns:xlink="http://www.w3.org/1999/xlink" width="18px" height="19px" xmlns="http://www.w3.org/2000/svg">
  <g transform="matrix(1 0 0 1 -151 -209 )">
    <path d="M 8.50085660612553 17.998209407203323  L 8.50085660612553 18  C 8.50085660612553 18  8.50085660612553 17.50145722152361  8.50085660612553 17.50145722152361  C 8.614701514280112 15.211242347336553  9.558999741407726 13.05382004572908  11.139713777402786 11.472509304643976  C 12.720427813397848 9.891198563558874  14.817495821705394 9.0061029346122  17 8.999101957293691  C 17 8.999101957293691  16.528967254408062 8.999101957293691  16.528967254408062 8.999101957293691  C 14.350309309490981 8.85985336179182  12.304898701626946 7.850053739906937  10.812155697147553 6.176765197076586  C 9.319412692668156 4.503476654246234  8.492455875242987 2.2934987719426196  8.50085660612553 0  C 8.50085660612553 0  8.50085660612553 0.49855376370827253  8.50085660612553 0.49855376370827253  C 8.385757457699523 2.7884572752291867  7.440780879868668 4.945184417631664  5.85992293273772 6.525985718588263  C 4.279064985606773 8.106787019544864  2.1822730383884994 8.991715755973024  0 8.999101957293691  C 0 8.999101957293691  0.4710327455919395 8.999101957293691  0.4710327455919395 8.999101957293691  C 2.650141699188002 9.137482816026813  4.696218447360943 10.146961194973525  6.18940461973099 11.820389627866117  C 7.682590792101036 13.493818060758707  8.509645791663331 15.704291651650975  8.50085660612553 17.998209407203323  Z " fill-rule="nonzero" fill="#a0b3ca" stroke="none" transform="matrix(1 0 0 1 151 209 )" />
    <path d="M 8.50085660612553 18  C 8.50085660612553 18  8.50085660612553 17.50145722152361  8.50085660612553 17.50145722152361  C 8.614701514280112 15.211242347336553  9.558999741407726 13.05382004572908  11.139713777402786 11.472509304643976  C 12.720427813397848 9.891198563558874  14.817495821705394 9.0061029346122  17 8.999101957293691  C 17 8.999101957293691  16.528967254408062 8.999101957293691  16.528967254408062 8.999101957293691  C 14.350309309490981 8.85985336179182  12.304898701626946 7.850053739906937  10.812155697147553 6.176765197076586  C 9.319412692668156 4.503476654246234  8.492455875242987 2.2934987719426196  8.50085660612553 0  C 8.50085660612553 0  8.50085660612553 0.49855376370827253  8.50085660612553 0.49855376370827253  C 8.385757457699523 2.7884572752291867  7.440780879868668 4.945184417631664  5.85992293273772 6.525985718588263  C 4.279064985606773 8.106787019544864  2.1822730383884994 8.991715755973024  0 8.999101957293691  C 0 8.999101957293691  0.4710327455919395 8.999101957293691  0.4710327455919395 8.999101957293691  C 2.650141699188002 9.137482816026813  4.696218447360943 10.146961194973525  6.18940461973099 11.820389627866117  C 7.682590792101036 13.493818060758707  8.509645791663331 15.704291651650975  8.50085660612553 17.998209407203323  " stroke-width="0.41188961267471313" stroke="#e3e3e3" fill="none" transform="matrix(1 0 0 1 151 209 )" />
  </g>
</svg>