<?xml version="1.0" encoding="utf-8"?>
<svg version="1.1" xmlns:xlink="http://www.w3.org/1999/xlink" width="18px" height="19px" xmlns="http://www.w3.org/2000/svg">
  <g transform="matrix(1 0 0 1 -134 -209 )">
    <path d="M 8.50085660612553 17.99819842252118  L 8.50085660612553 18  C 8.50085660612553 18  8.50085660612553 17.50144638842303  8.50085660612553 17.50144638842303  C 8.614701514280112 15.211232213084138  9.558999741407726 13.053810569803803  11.139713777402786 11.47250031124814  C 12.720427813397848 9.891190052692478  14.817495821705394 9.006100186442785  17 8.99909921126059  C 17 8.99909921126059  16.528967254408062 8.99909921126059  16.528967254408062 8.99909921126059  C 14.350162784758984 8.860276421677378  12.304512052752207 7.850606098541161  10.811685903246516 6.17722469186434  C 9.318859753740824 4.503843285187518  8.492042063090302 2.2936242305762846  8.50085660612553 0  C 8.50085660612553 0  8.50085660612553 0.5003551890557829  8.50085660612553 0.5003551890557829  C 8.385741377957821 2.7900901338000836  7.4407060656799775 4.946615966022687  5.859804014114649 6.52712619098186  C 4.2789019625493205 8.107636415941032  2.182115569222784 8.992172751114886  0 8.99909921126059  C 0 8.99909921126059  0.4710327455919395 8.99909921126059  0.4710327455919395 8.99909921126059  C 2.650141699188002 9.137480027767454  4.696218447360943 10.146963591290909  6.18940461973099 11.820391513544784  C 7.682590792101036 13.493819435798661  8.509645791663331 15.704281366946912  8.50085660612553 17.99819842252118  Z " fill-rule="nonzero" fill="#5b5f68" stroke="none" transform="matrix(1 0 0 1 134 209 )" />
    <path d="M 8.50085660612553 18  C 8.50085660612553 18  8.50085660612553 17.50144638842303  8.50085660612553 17.50144638842303  C 8.614701514280112 15.211232213084138  9.558999741407726 13.053810569803803  11.139713777402786 11.47250031124814  C 12.720427813397848 9.891190052692478  14.817495821705394 9.006100186442785  17 8.99909921126059  C 17 8.99909921126059  16.528967254408062 8.99909921126059  16.528967254408062 8.99909921126059  C 14.350162784758984 8.860276421677378  12.304512052752207 7.850606098541161  10.811685903246516 6.17722469186434  C 9.318859753740824 4.503843285187518  8.492042063090302 2.2936242305762846  8.50085660612553 0  C 8.50085660612553 0  8.50085660612553 0.5003551890557829  8.50085660612553 0.5003551890557829  C 8.385741377957821 2.7900901338000836  7.4407060656799775 4.946615966022687  5.859804014114649 6.52712619098186  C 4.2789019625493205 8.107636415941032  2.182115569222784 8.992172751114886  0 8.99909921126059  C 0 8.99909921126059  0.4710327455919395 8.99909921126059  0.4710327455919395 8.99909921126059  C 2.650141699188002 9.137480027767454  4.696218447360943 10.146963591290909  6.18940461973099 11.820391513544784  C 7.682590792101036 13.493819435798661  8.509645791663331 15.704281366946912  8.50085660612553 17.99819842252118  " stroke-width="0.41188961267471313" stroke="#e3e3e3" fill="none" transform="matrix(1 0 0 1 134 209 )" />
  </g>
</svg>