<?xml version="1.0" encoding="utf-8"?>
<svg version="1.1" xmlns:xlink="http://www.w3.org/1999/xlink" width="17px" height="17px" xmlns="http://www.w3.org/2000/svg">
  <defs>
    <mask fill="white" id="clip490">
      <path d="M 0 16.056220207413404  L 0 17  L 17 17  C 17 17  17 0  17 0  C 12.651269119992964 -0.0029713099863724296  8.466444039524953 1.659213992667635  5.304920571276764 4.645220398743969  C 2.143397103028574 7.631226804820301  0.24514594306273182 11.714404270492068  0 16.056220207413404  Z " fill-rule="evenodd" />
    </mask>
  </defs>
  <g transform="matrix(1 0 0 1 -99 -294 )">
    <path d="M 0 16.056220207413404  L 0 17  L 17 17  C 17 17  17 0  17 0  C 12.651269119992964 -0.0029713099863724296  8.466444039524953 1.659213992667635  5.304920571276764 4.645220398743969  C 2.143397103028574 7.631226804820301  0.24514594306273182 11.714404270492068  0 16.056220207413404  Z " fill-rule="nonzero" fill="#a0b3ca" stroke="none" transform="matrix(1 0 0 1 99 294 )" />
    <path d="M 0 16.056220207413404  L 0 17  L 17 17  C 17 17  17 0  17 0  C 12.651269119992964 -0.0029713099863724296  8.466444039524953 1.659213992667635  5.304920571276764 4.645220398743969  C 2.143397103028574 7.631226804820301  0.24514594306273182 11.714404270492068  0 16.056220207413404  Z " stroke-width="0.8237792253494263" stroke="#e3e3e3" fill="none" transform="matrix(1 0 0 1 99 294 )" mask="url(#clip490)" />
  </g>
</svg>