<?xml version="1.0" encoding="utf-8"?>
<svg version="1.1" xmlns:xlink="http://www.w3.org/1999/xlink" width="121px" height="39px" xmlns="http://www.w3.org/2000/svg">
  <g transform="matrix(1 0 0 1 -1098 -641 )">
    <path d="M 121 34.93547082654954  C 120.93968094888866 37.2580522675211  119.85396746986085 39  118.46662934373508 39  C 118.46662934373508 39  2.5334074720914734 39  2.5334074720914734 39  C 1.1460693459657003 39  0 37.16127790622278  0 34.93547082654954  C 0 34.93547082654954  0 4.064529173450456  0 4.064529173450456  C 0 1.8387220937772142  1.1460693459657003 0  2.5334074720914734 0  C 2.5334074720914734 0  118.46662934373508 0  118.46662934373508 0  C 119.85396746986085 0  121 1.8387220937772142  121 4.064529173450456  C 121 4.064529173450456  121 34.93547082654954  121 34.93547082654954  Z " fill-rule="nonzero" fill="#466da1" stroke="none" transform="matrix(1 0 0 1 1098 641 )" />
  </g>
</svg>