<?xml version="1.0" encoding="utf-8"?>
<svg version="1.1" xmlns:xlink="http://www.w3.org/1999/xlink" width="17px" height="33px" xmlns="http://www.w3.org/2000/svg">
  <defs>
    <mask fill="white" id="clip481">
      <path d="M 17 4.646050147404637  C 12.389417798640556 1.8874031595055576  7.208463582687753 0.29505259740466133  1.883371778696095 0  C 1.883371778696095 0  0 0  0 0  C 0 0  0 33  0 33  C 0.3147514009281443 27.190090797246622  2.0346945130450416 21.553212456559763  5.003563201256479 16.601497346520944  C 7.972431889467917 11.649782236482121  12.096127519759278 7.540176809771492  17 4.646050147404637  Z " fill-rule="evenodd" />
    </mask>
  </defs>
  <g transform="matrix(1 0 0 1 -255 -269 )">
    <path d="M 17 4.646050147404637  C 12.389417798640556 1.8874031595055576  7.208463582687753 0.29505259740466133  1.883371778696095 0  C 1.883371778696095 0  0 0  0 0  C 0 0  0 33  0 33  C 0.3147514009281443 27.190090797246622  2.0346945130450416 21.553212456559763  5.003563201256479 16.601497346520944  C 7.972431889467917 11.649782236482121  12.096127519759278 7.540176809771492  17 4.646050147404637  Z " fill-rule="nonzero" fill="#a0b3ca" stroke="none" transform="matrix(1 0 0 1 255 269 )" />
    <path d="M 17 4.646050147404637  C 12.389417798640556 1.8874031595055576  7.208463582687753 0.29505259740466133  1.883371778696095 0  C 1.883371778696095 0  0 0  0 0  C 0 0  0 33  0 33  C 0.3147514009281443 27.190090797246622  2.0346945130450416 21.553212456559763  5.003563201256479 16.601497346520944  C 7.972431889467917 11.649782236482121  12.096127519759278 7.540176809771492  17 4.646050147404637  Z " stroke-width="0.8237792253494263" stroke="#e3e3e3" fill="none" transform="matrix(1 0 0 1 255 269 )" mask="url(#clip481)" />
  </g>
</svg>