<?xml version="1.0" encoding="utf-8"?>
<svg version="1.1" xmlns:xlink="http://www.w3.org/1999/xlink" width="17px" height="17px" xmlns="http://www.w3.org/2000/svg">
  <defs>
    <mask fill="white" id="clip36">
      <path d="M 16.057934798484116 17  L 17 17  L 17 0  C 17 0  0 0  0 0  C -0.0033836248607917153 4.348867923556641  1.6588522088723874 8.533937063112287  4.645263165986363 11.695551677575025  C 7.631674123100339 14.85716629203776  11.715519701896397 16.755284396202583  16.057934798484116 17  Z " fill-rule="evenodd" />
    </mask>
  </defs>
  <g transform="matrix(1 0 0 1 -116 -294 )">
    <path d="M 16.057934798484116 17  L 17 17  L 17 0  C 17 0  0 0  0 0  C -0.0033836248607917153 4.348867923556641  1.6588522088723874 8.533937063112287  4.645263165986363 11.695551677575025  C 7.631674123100339 14.85716629203776  11.715519701896397 16.755284396202583  16.057934798484116 17  Z " fill-rule="nonzero" fill="#a0b3ca" stroke="none" transform="matrix(1 0 0 1 116 294 )" />
    <path d="M 16.057934798484116 17  L 17 17  L 17 0  C 17 0  0 0  0 0  C -0.0033836248607917153 4.348867923556641  1.6588522088723874 8.533937063112287  4.645263165986363 11.695551677575025  C 7.631674123100339 14.85716629203776  11.715519701896397 16.755284396202583  16.057934798484116 17  Z " stroke-width="0.8237792253494263" stroke="#e3e3e3" fill="none" transform="matrix(1 0 0 1 116 294 )" mask="url(#clip36)" />
  </g>
</svg>