<?xml version="1.0" encoding="utf-8"?>
<svg version="1.1" xmlns:xlink="http://www.w3.org/1999/xlink" width="20px" height="20px" xmlns="http://www.w3.org/2000/svg">
  <g transform="matrix(1 0 0 1 -55 -143 )">
    <path d="M 0.60003662109375 9.999996223072872  C 5.800036430358887 10.297025870534494  10 14.653466463719782  10 20  C 10 20  10 19.405934685599146  10 19.405934685599146  C 10.300000011920929 14.158410933448655  14.699999809265137 9.999996223072872  20 9.999996223072872  C 20 9.999996223072872  19.4000244140625 9.999996223072872  19.4000244140625 9.999996223072872  C 14.100024223327637 9.70296657561125  10 5.3465335362802175  10 0  C 10 0  10 0.594057760546597  10 0.594057760546597  C 9.699999988079071 5.8415815126970845  5.300000190734863 9.999996223072872  0 9.999996223072872  C 0 9.999996223072872  0.60003662109375 9.999996223072872  0.60003662109375 9.999996223072872  Z " fill-rule="nonzero" fill="#2c3b51" stroke="none" transform="matrix(1 0 0 1 55 143 )" />
  </g>
</svg>