<?xml version="1.0" encoding="utf-8"?>
<svg version="1.1" xmlns:xlink="http://www.w3.org/1999/xlink" width="17px" height="35px" xmlns="http://www.w3.org/2000/svg">
  <defs>
    <mask fill="white" id="clip23">
      <path d="M 0 4.654471175466873  C 5.173021037931717 7.735043550065487  9.466988894148972 12.160618569275583  12.450894576989924 17.486985363070403  C 15.434800259830876 22.81335215686522  17.003655403403496 28.853101839442562  16.99999344951227 35  C 16.99999344951227 35  16.99999344951227 5.407444137845053E-05  16.99999344951227 5.407444137845053E-05  C 11.034121683247237 -0.010739832738881969  5.170742450774818 1.5945910767090516  0 4.654471175466873  Z " fill-rule="evenodd" />
    </mask>
  </defs>
  <g transform="matrix(1 0 0 1 -254 -285 )">
    <path d="M 0 4.654471175466873  C 5.173021037931717 7.735043550065487  9.466988894148972 12.160618569275583  12.450894576989924 17.486985363070403  C 15.434800259830876 22.81335215686522  17.003655403403496 28.853101839442562  16.99999344951227 35  C 16.99999344951227 35  16.99999344951227 5.407444137845053E-05  16.99999344951227 5.407444137845053E-05  C 11.034121683247237 -0.010739832738881969  5.170742450774818 1.5945910767090516  0 4.654471175466873  Z " fill-rule="nonzero" fill="#a0b3ca" stroke="none" transform="matrix(1 0 0 1 254 285 )" />
    <path d="M 0 4.654471175466873  C 5.173021037931717 7.735043550065487  9.466988894148972 12.160618569275583  12.450894576989924 17.486985363070403  C 15.434800259830876 22.81335215686522  17.003655403403496 28.853101839442562  16.99999344951227 35  C 16.99999344951227 35  16.99999344951227 5.407444137845053E-05  16.99999344951227 5.407444137845053E-05  C 11.034121683247237 -0.010739832738881969  5.170742450774818 1.5945910767090516  0 4.654471175466873  Z " stroke-width="0.8237792253494263" stroke="#e3e3e3" fill="none" transform="matrix(1 0 0 1 254 285 )" mask="url(#clip23)" />
  </g>
</svg>