<?xml version="1.0" encoding="utf-8"?>
<svg version="1.1" xmlns:xlink="http://www.w3.org/1999/xlink" width="34px" height="17px" xmlns="http://www.w3.org/2000/svg">
  <defs>
    <mask fill="white" id="clip39">
      <path d="M 33.99826256106933 17  C 33.99826256106933 17  33.99997906700084 16.98973265330824  33.99997906700084 16.98973265330824  C 34.00669797073657 12.705078726206342  32.38831965967253 8.576624187370628  29.470015248766376 5.433870508919032  C 26.551710837860224 2.291116830467434  22.549711601760777 0.3669311832965765  18.26811323952169 0.047921247834985164  C 18.26811323952169 0.047921247834985164  18.09663011036462 0.03422797060925161  18.09663011036462 0.03422797060925161  C 17.964016494299067 0.025101068620990957  17.83197489696655 0.018256728219863877  17.70050450067178 0.013693277225733557  C 17.510158224854347 0.013693277225733557  17.318094400543934 0.0017112940431105318  17.124318465414145 0  C 17.124318465414145 0  17.02314404720145 0  17.02314404720145 0  C 17.02314404720145 0  1.6347140546431282E-05 0  1.6347140546431282E-05 0  C -0.004130789312769459 2.9816278830256078  0.780862686605759 5.911467290227804  2.2755955938499466 8.493153361387133  C 2.5522550441313028 8.968893111109423  2.8489212696914494 9.428660389966865  3.1655934528351057 9.87245597316764  C 3.477692756895615 10.308835955754594  3.8120861139141486 10.728103829856716  4.163626520509183 11.135391840804823  C 4.163626520509183 11.135391840804823  4.192775721846001 11.169619811414075  4.192775721846001 11.169619811414075  C 4.535741980160135 11.55865399543542  4.892998485609102 11.931712362956635  5.264545279077668 12.288802380456467  C 5.264545279077668 12.288802380456467  5.346859065042985 12.365812703099742  5.346859065042985 12.365812703099742  C 5.466897253408693 12.480469409406954  5.590362382249955 12.593414813064715  5.713830240149216 12.708071519371929  C 5.7220115580353 12.713403586404057  5.729500344874709 12.719723967360128  5.736123884259601 12.72689324748846  C 5.9716273819078705 12.93453026867765  6.211705864204633 13.134753341670447  6.456355120019197 13.327559141231776  C 6.456355120019197 13.327559141231776  6.615833174155319 13.454193232066856  6.615833174155319 13.454193232066856  L 6.96737672887718 13.717739205338948  C 6.96737672887718 13.717739205338948  7.159436996213128 13.854640642865789  7.159436996213128 13.854640642865789  C 7.3480684423743785 13.98812157631589  7.538414084477966 14.118184943320234  7.732190019607756 14.24482070697296  C 7.732190019607756 14.24482070697296  7.991125986025069 14.415950115109055  7.991125986025069 14.415950115109055  C 7.991125986025069 14.415950115109055  8.310087327547103 14.611029702252477  8.310087327547103 14.611029702252477  C 8.430125515912813 14.682904051425613  8.55187770601823 14.751361247257346  8.673630724040118 14.819813011531796  C 8.795383742062008 14.888264775806245  8.949720864204055 14.972119436938126  9.088622199230128 15.045705083660659  C 9.2275235342562 15.119290730383193  9.3321255164371 15.172336665269277  9.45559337433636 15.233943254646297  C 9.45559337433636 15.233943254646297  9.740255996727065 15.372557657440126  9.740255996727065 15.372557657440126  C 9.91173912588413 15.451277186610744  10.083222255041196 15.530002978647419  10.254705384198262 15.603588625369952  C 10.343876608089156 15.64294838995526  10.434763929063914 15.678880969393362  10.523935152954808 15.7165294389793  C 10.681699634641243 15.781558613255008  10.841179753457947 15.844872318137314  11.002373894456742 15.904767609964939  C 11.002373894456742 15.904767609964939  11.251021291784614 15.997184175100934  11.251021291784614 15.997184175100934  C 11.460230714262408 16.07248111427281  11.67115537524402 16.144355468546  11.883794457034172 16.21109593527105  C 11.883794457034172 16.21109593527105  12.032983942080854 16.25559125257206  12.032983942080854 16.25559125257206  C 12.225045047554465 16.31377525195034  12.41882349709724 16.368536661329873  12.614314261883209 16.426720660708153  C 12.614314261883209 16.426720660708153  12.835523730555975 16.483185845057744  12.835523730555975 16.483185845057744  C 13.068740788662671 16.541369844436023  13.301958889330848 16.59613125381556  13.538605606749906 16.65431525319384  C 13.538605606749906 16.65431525319384  13.614058602239002 16.66800853041957  13.614058602239002 16.66800853041957  C 13.835271832310054 16.712502174902937  14.058198869918188 16.751864030510305  14.282841759301602 16.787801205096873  C 14.351435011986549 16.798068969355533  14.418313848973547 16.810046774637847  14.486907101658494 16.81860324517215  C 14.733842817457013 16.856251714758088  14.982494385030812 16.88876588369153  15.232859760141691 16.914435295931952  C 15.232859760141691 16.914435295931952  15.2620141947283 16.914435295931952  15.2620141947283 16.914435295931952  C 15.50723506042826 16.94010470817238  15.754170346936755 16.957220572846825  16.001106062735275 16.97091092519171  C 16.001106062735275 16.97091092519171  16.19659410868444 16.981178271883472  16.19659410868444 16.981178271883472  C 16.45381880242004 16.993157330503998  16.71104329173182 17  16.97341247443596 17  C 16.97341247443596 17  33.99826256106933 17  33.99826256106933 17  Z " fill-rule="evenodd" />
    </mask>
  </defs>
  <g transform="matrix(1 0 0 1 -125 -286 )">
    <path d="M 33.99826256106933 17  C 33.99826256106933 17  33.99997906700084 16.98973265330824  33.99997906700084 16.98973265330824  C 34.00669797073657 12.705078726206342  32.38831965967253 8.576624187370628  29.470015248766376 5.433870508919032  C 26.551710837860224 2.291116830467434  22.549711601760777 0.3669311832965765  18.26811323952169 0.047921247834985164  C 18.26811323952169 0.047921247834985164  18.09663011036462 0.03422797060925161  18.09663011036462 0.03422797060925161  C 17.964016494299067 0.025101068620990957  17.83197489696655 0.018256728219863877  17.70050450067178 0.013693277225733557  C 17.510158224854347 0.013693277225733557  17.318094400543934 0.0017112940431105318  17.124318465414145 0  C 17.124318465414145 0  17.02314404720145 0  17.02314404720145 0  C 17.02314404720145 0  1.6347140546431282E-05 0  1.6347140546431282E-05 0  C -0.004130789312769459 2.9816278830256078  0.780862686605759 5.911467290227804  2.2755955938499466 8.493153361387133  C 2.5522550441313028 8.968893111109423  2.8489212696914494 9.428660389966865  3.1655934528351057 9.87245597316764  C 3.477692756895615 10.308835955754594  3.8120861139141486 10.728103829856716  4.163626520509183 11.135391840804823  C 4.163626520509183 11.135391840804823  4.192775721846001 11.169619811414075  4.192775721846001 11.169619811414075  C 4.535741980160135 11.55865399543542  4.892998485609102 11.931712362956635  5.264545279077668 12.288802380456467  C 5.264545279077668 12.288802380456467  5.346859065042985 12.365812703099742  5.346859065042985 12.365812703099742  C 5.466897253408693 12.480469409406954  5.590362382249955 12.593414813064715  5.713830240149216 12.708071519371929  C 5.7220115580353 12.713403586404057  5.729500344874709 12.719723967360128  5.736123884259601 12.72689324748846  C 5.9716273819078705 12.93453026867765  6.211705864204633 13.134753341670447  6.456355120019197 13.327559141231776  C 6.456355120019197 13.327559141231776  6.615833174155319 13.454193232066856  6.615833174155319 13.454193232066856  L 6.96737672887718 13.717739205338948  C 6.96737672887718 13.717739205338948  7.159436996213128 13.854640642865789  7.159436996213128 13.854640642865789  C 7.3480684423743785 13.98812157631589  7.538414084477966 14.118184943320234  7.732190019607756 14.24482070697296  C 7.732190019607756 14.24482070697296  7.991125986025069 14.415950115109055  7.991125986025069 14.415950115109055  C 7.991125986025069 14.415950115109055  8.310087327547103 14.611029702252477  8.310087327547103 14.611029702252477  C 8.430125515912813 14.682904051425613  8.55187770601823 14.751361247257346  8.673630724040118 14.819813011531796  C 8.795383742062008 14.888264775806245  8.949720864204055 14.972119436938126  9.088622199230128 15.045705083660659  C 9.2275235342562 15.119290730383193  9.3321255164371 15.172336665269277  9.45559337433636 15.233943254646297  C 9.45559337433636 15.233943254646297  9.740255996727065 15.372557657440126  9.740255996727065 15.372557657440126  C 9.91173912588413 15.451277186610744  10.083222255041196 15.530002978647419  10.254705384198262 15.603588625369952  C 10.343876608089156 15.64294838995526  10.434763929063914 15.678880969393362  10.523935152954808 15.7165294389793  C 10.681699634641243 15.781558613255008  10.841179753457947 15.844872318137314  11.002373894456742 15.904767609964939  C 11.002373894456742 15.904767609964939  11.251021291784614 15.997184175100934  11.251021291784614 15.997184175100934  C 11.460230714262408 16.07248111427281  11.67115537524402 16.144355468546  11.883794457034172 16.21109593527105  C 11.883794457034172 16.21109593527105  12.032983942080854 16.25559125257206  12.032983942080854 16.25559125257206  C 12.225045047554465 16.31377525195034  12.41882349709724 16.368536661329873  12.614314261883209 16.426720660708153  C 12.614314261883209 16.426720660708153  12.835523730555975 16.483185845057744  12.835523730555975 16.483185845057744  C 13.068740788662671 16.541369844436023  13.301958889330848 16.59613125381556  13.538605606749906 16.65431525319384  C 13.538605606749906 16.65431525319384  13.614058602239002 16.66800853041957  13.614058602239002 16.66800853041957  C 13.835271832310054 16.712502174902937  14.058198869918188 16.751864030510305  14.282841759301602 16.787801205096873  C 14.351435011986549 16.798068969355533  14.418313848973547 16.810046774637847  14.486907101658494 16.81860324517215  C 14.733842817457013 16.856251714758088  14.982494385030812 16.88876588369153  15.232859760141691 16.914435295931952  C 15.232859760141691 16.914435295931952  15.2620141947283 16.914435295931952  15.2620141947283 16.914435295931952  C 15.50723506042826 16.94010470817238  15.754170346936755 16.957220572846825  16.001106062735275 16.97091092519171  C 16.001106062735275 16.97091092519171  16.19659410868444 16.981178271883472  16.19659410868444 16.981178271883472  C 16.45381880242004 16.993157330503998  16.71104329173182 17  16.97341247443596 17  C 16.97341247443596 17  33.99826256106933 17  33.99826256106933 17  Z " fill-rule="nonzero" fill="#a0b3ca" stroke="none" transform="matrix(1 0 0 1 125 286 )" />
    <path d="M 33.99826256106933 17  C 33.99826256106933 17  33.99997906700084 16.98973265330824  33.99997906700084 16.98973265330824  C 34.00669797073657 12.705078726206342  32.38831965967253 8.576624187370628  29.470015248766376 5.433870508919032  C 26.551710837860224 2.291116830467434  22.549711601760777 0.3669311832965765  18.26811323952169 0.047921247834985164  C 18.26811323952169 0.047921247834985164  18.09663011036462 0.03422797060925161  18.09663011036462 0.03422797060925161  C 17.964016494299067 0.025101068620990957  17.83197489696655 0.018256728219863877  17.70050450067178 0.013693277225733557  C 17.510158224854347 0.013693277225733557  17.318094400543934 0.0017112940431105318  17.124318465414145 0  C 17.124318465414145 0  17.02314404720145 0  17.02314404720145 0  C 17.02314404720145 0  1.6347140546431282E-05 0  1.6347140546431282E-05 0  C -0.004130789312769459 2.9816278830256078  0.780862686605759 5.911467290227804  2.2755955938499466 8.493153361387133  C 2.5522550441313028 8.968893111109423  2.8489212696914494 9.428660389966865  3.1655934528351057 9.87245597316764  C 3.477692756895615 10.308835955754594  3.8120861139141486 10.728103829856716  4.163626520509183 11.135391840804823  C 4.163626520509183 11.135391840804823  4.192775721846001 11.169619811414075  4.192775721846001 11.169619811414075  C 4.535741980160135 11.55865399543542  4.892998485609102 11.931712362956635  5.264545279077668 12.288802380456467  C 5.264545279077668 12.288802380456467  5.346859065042985 12.365812703099742  5.346859065042985 12.365812703099742  C 5.466897253408693 12.480469409406954  5.590362382249955 12.593414813064715  5.713830240149216 12.708071519371929  C 5.7220115580353 12.713403586404057  5.729500344874709 12.719723967360128  5.736123884259601 12.72689324748846  C 5.9716273819078705 12.93453026867765  6.211705864204633 13.134753341670447  6.456355120019197 13.327559141231776  C 6.456355120019197 13.327559141231776  6.615833174155319 13.454193232066856  6.615833174155319 13.454193232066856  L 6.96737672887718 13.717739205338948  C 6.96737672887718 13.717739205338948  7.159436996213128 13.854640642865789  7.159436996213128 13.854640642865789  C 7.3480684423743785 13.98812157631589  7.538414084477966 14.118184943320234  7.732190019607756 14.24482070697296  C 7.732190019607756 14.24482070697296  7.991125986025069 14.415950115109055  7.991125986025069 14.415950115109055  C 7.991125986025069 14.415950115109055  8.310087327547103 14.611029702252477  8.310087327547103 14.611029702252477  C 8.430125515912813 14.682904051425613  8.55187770601823 14.751361247257346  8.673630724040118 14.819813011531796  C 8.795383742062008 14.888264775806245  8.949720864204055 14.972119436938126  9.088622199230128 15.045705083660659  C 9.2275235342562 15.119290730383193  9.3321255164371 15.172336665269277  9.45559337433636 15.233943254646297  C 9.45559337433636 15.233943254646297  9.740255996727065 15.372557657440126  9.740255996727065 15.372557657440126  C 9.91173912588413 15.451277186610744  10.083222255041196 15.530002978647419  10.254705384198262 15.603588625369952  C 10.343876608089156 15.64294838995526  10.434763929063914 15.678880969393362  10.523935152954808 15.7165294389793  C 10.681699634641243 15.781558613255008  10.841179753457947 15.844872318137314  11.002373894456742 15.904767609964939  C 11.002373894456742 15.904767609964939  11.251021291784614 15.997184175100934  11.251021291784614 15.997184175100934  C 11.460230714262408 16.07248111427281  11.67115537524402 16.144355468546  11.883794457034172 16.21109593527105  C 11.883794457034172 16.21109593527105  12.032983942080854 16.25559125257206  12.032983942080854 16.25559125257206  C 12.225045047554465 16.31377525195034  12.41882349709724 16.368536661329873  12.614314261883209 16.426720660708153  C 12.614314261883209 16.426720660708153  12.835523730555975 16.483185845057744  12.835523730555975 16.483185845057744  C 13.068740788662671 16.541369844436023  13.301958889330848 16.59613125381556  13.538605606749906 16.65431525319384  C 13.538605606749906 16.65431525319384  13.614058602239002 16.66800853041957  13.614058602239002 16.66800853041957  C 13.835271832310054 16.712502174902937  14.058198869918188 16.751864030510305  14.282841759301602 16.787801205096873  C 14.351435011986549 16.798068969355533  14.418313848973547 16.810046774637847  14.486907101658494 16.81860324517215  C 14.733842817457013 16.856251714758088  14.982494385030812 16.88876588369153  15.232859760141691 16.914435295931952  C 15.232859760141691 16.914435295931952  15.2620141947283 16.914435295931952  15.2620141947283 16.914435295931952  C 15.50723506042826 16.94010470817238  15.754170346936755 16.957220572846825  16.001106062735275 16.97091092519171  C 16.001106062735275 16.97091092519171  16.19659410868444 16.981178271883472  16.19659410868444 16.981178271883472  C 16.45381880242004 16.993157330503998  16.71104329173182 17  16.97341247443596 17  C 16.97341247443596 17  33.99826256106933 17  33.99826256106933 17  Z " stroke-width="0.8237792253494263" stroke="#e3e3e3" fill="none" transform="matrix(1 0 0 1 125 286 )" mask="url(#clip39)" />
  </g>
</svg>