<?xml version="1.0" encoding="utf-8"?>
<svg version="1.1" xmlns:xlink="http://www.w3.org/1999/xlink" width="17px" height="17px" xmlns="http://www.w3.org/2000/svg">
  <defs>
    <mask fill="white" id="clip38">
      <path d="M 0 16.056230516699454  L 0 17  L 17 17  C 17 17  17 0  17 0  C 12.649784149197062 -0.0015652435796471584  8.464079534020732 1.6614442984674258  5.302529285246143 4.6474763194758175  C 2.1409790364715544 7.633508340484209  0.24357677150930943 11.715903008533314  0 16.056230516699454  Z " fill-rule="evenodd" />
    </mask>
  </defs>
  <g transform="matrix(1 0 0 1 -99 -260 )">
    <path d="M 0 16.056230516699454  L 0 17  L 17 17  C 17 17  17 0  17 0  C 12.649784149197062 -0.0015652435796471584  8.464079534020732 1.6614442984674258  5.302529285246143 4.6474763194758175  C 2.1409790364715544 7.633508340484209  0.24357677150930943 11.715903008533314  0 16.056230516699454  Z " fill-rule="nonzero" fill="#5b5f68" stroke="none" transform="matrix(1 0 0 1 99 260 )" />
    <path d="M 0 16.056230516699454  L 0 17  L 17 17  C 17 17  17 0  17 0  C 12.649784149197062 -0.0015652435796471584  8.464079534020732 1.6614442984674258  5.302529285246143 4.6474763194758175  C 2.1409790364715544 7.633508340484209  0.24357677150930943 11.715903008533314  0 16.056230516699454  Z " stroke-width="0.8237792253494263" stroke="#e3e3e3" fill="none" transform="matrix(1 0 0 1 99 260 )" mask="url(#clip38)" />
  </g>
</svg>