<?xml version="1.0" encoding="utf-8"?>
<svg version="1.1" xmlns:xlink="http://www.w3.org/1999/xlink" width="18px" height="9px" xmlns="http://www.w3.org/2000/svg">
  <defs>
    <mask fill="white" id="clip487">
      <path d="M 18 0  L 0 0  C 0 0  0 0.012496166846459877  0 0.012496166846459877  C 0.033101458833099395 2.407632397941406  0.9958802502614733 4.693312324376259  2.6801083282861726 6.3752018843064935  C 4.364336406310872 8.057091444236727  6.634636360090684 9.000000000000002  9.000001344913336 9  C 11.365366329735991 9.000000000000002  13.635666283515802 8.057091444236727  15.3198943615405 6.3752018843064935  C 17.004122439565197 4.693312324376259  17.9668985411669 2.407632397941406  18 0.012496166846459877  C 18 0.012496166846459877  18 0  18 0  Z " fill-rule="evenodd" />
    </mask>
  </defs>
  <g transform="matrix(1 0 0 1 -267 -256 )">
    <path d="M 18 0  L 0 0  C 0 0  0 0.012496166846459877  0 0.012496166846459877  C 0.033101458833099395 2.407632397941406  0.9958802502614733 4.693312324376259  2.6801083282861726 6.3752018843064935  C 4.364336406310872 8.057091444236727  6.634636360090684 9.000000000000002  9.000001344913336 9  C 11.365366329735991 9.000000000000002  13.635666283515802 8.057091444236727  15.3198943615405 6.3752018843064935  C 17.004122439565197 4.693312324376259  17.9668985411669 2.407632397941406  18 0.012496166846459877  C 18 0.012496166846459877  18 0  18 0  Z " fill-rule="nonzero" fill="#5b5f68" stroke="none" transform="matrix(1 0 0 1 267 256 )" />
    <path d="M 18 0  L 0 0  C 0 0  0 0.012496166846459877  0 0.012496166846459877  C 0.033101458833099395 2.407632397941406  0.9958802502614733 4.693312324376259  2.6801083282861726 6.3752018843064935  C 4.364336406310872 8.057091444236727  6.634636360090684 9.000000000000002  9.000001344913336 9  C 11.365366329735991 9.000000000000002  13.635666283515802 8.057091444236727  15.3198943615405 6.3752018843064935  C 17.004122439565197 4.693312324376259  17.9668985411669 2.407632397941406  18 0.012496166846459877  C 18 0.012496166846459877  18 0  18 0  Z " stroke-width="0.8237792253494263" stroke="#e3e3e3" fill="none" transform="matrix(1 0 0 1 267 256 )" mask="url(#clip487)" />
  </g>
</svg>