<?xml version="1.0" encoding="utf-8"?>
<svg version="1.1" xmlns:xlink="http://www.w3.org/1999/xlink" width="25px" height="26px" xmlns="http://www.w3.org/2000/svg">
  <defs>
    <mask fill="white" id="clip32">
      <path d="M 12.5 0  C 19.40355947904539 0  25 5.820298878832252  25 13  C 25 20.17970112116775  19.40355947904539 26  12.5 26  C 5.596440520954607 26  0 20.17970112116775  0 13  C 0 5.820298878832252  5.596440520954607 0  12.5 0  Z " fill-rule="evenodd" />
    </mask>
  </defs>
  <g transform="matrix(1 0 0 1 -103 -213 )">
    <path d="M 12.5 0  C 19.40355947904539 0  25 5.820298878832252  25 13  C 25 20.17970112116775  19.40355947904539 26  12.5 26  C 5.596440520954607 26  0 20.17970112116775  0 13  C 0 5.820298878832252  5.596440520954607 0  12.5 0  Z " fill-rule="nonzero" fill="#a0b3ca" stroke="none" transform="matrix(1 0 0 1 103 213 )" />
    <path d="M 12.5 0  C 19.40355947904539 0  25 5.820298878832252  25 13  C 25 20.17970112116775  19.40355947904539 26  12.5 26  C 5.596440520954607 26  0 20.17970112116775  0 13  C 0 5.820298878832252  5.596440520954607 0  12.5 0  Z " stroke-width="0.8237792253494263" stroke="#e3e3e3" fill="none" transform="matrix(1 0 0 1 103 213 )" mask="url(#clip32)" />
  </g>
</svg>