<?xml version="1.0" encoding="utf-8"?>
<svg version="1.1" xmlns:xlink="http://www.w3.org/1999/xlink" width="18px" height="19px" xmlns="http://www.w3.org/2000/svg">
  <g transform="matrix(1 0 0 1 -134 -226 )">
    <path d="M 8.500001306666475 18  L 8.500001306666475 17.998198602818768  C 8.500001306666475 17.998198602818768  8.500001306666475 17.49969488530128  8.500001306666475 17.49969488530128  C 8.61385144237916 15.209400294008523  9.558294003953513 13.05193574681094  11.139214090845297 11.470737059475397  C 12.720134177737078 9.889538372139855  14.817419128490355 9.004739597426017  17 8.998198602818771  C 17 8.998198602818771  16.527302949699646 8.998198602818771  16.527302949699646 8.998198602818771  C 14.348864374245883 8.858963985471886  12.303658412480171 7.849265730035734  10.811065712564428 6.176145156487226  C 9.318473012648687 4.503024582938718  8.491601421655044 2.2932685442611582  8.500001306666475 0  C 8.500001306666475 0  8.500001306666475 0.5003051146987175  8.500001306666475 0.5003051146987175  C 8.38615117095379 2.7905997059914758  7.441705996046489 4.948064253189059  5.860785909154706 6.529262940524601  C 4.279865822262922 8.110461627860145  2.182580871509644 8.995260402573985  0 9.001801397181229  C 0 9.001801397181229  0.4726983569668305 9.001801397181229  0.4726983569668305 9.001801397181229  C 2.65128344239899 9.140610293709894  4.6967288507960605 10.150179571441996  6.189404687366211 11.823393510088314  C 7.682080523936362 13.496607448734629  8.508814962163768 15.70660530988059  8.500001306666475 18  Z " fill-rule="nonzero" fill="#a0b3ca" stroke="none" transform="matrix(1 0 0 1 134 226 )" />
    <path d="M 8.500001306666475 17.998198602818768  C 8.500001306666475 17.998198602818768  8.500001306666475 17.49969488530128  8.500001306666475 17.49969488530128  C 8.61385144237916 15.209400294008523  9.558294003953513 13.05193574681094  11.139214090845297 11.470737059475397  C 12.720134177737078 9.889538372139855  14.817419128490355 9.004739597426017  17 8.998198602818771  C 17 8.998198602818771  16.527302949699646 8.998198602818771  16.527302949699646 8.998198602818771  C 14.348864374245883 8.858963985471886  12.303658412480171 7.849265730035734  10.811065712564428 6.176145156487226  C 9.318473012648687 4.503024582938718  8.491601421655044 2.2932685442611582  8.500001306666475 0  C 8.500001306666475 0  8.500001306666475 0.5003051146987175  8.500001306666475 0.5003051146987175  C 8.38615117095379 2.7905997059914758  7.441705996046489 4.948064253189059  5.860785909154706 6.529262940524601  C 4.279865822262922 8.110461627860145  2.182580871509644 8.995260402573985  0 9.001801397181229  C 0 9.001801397181229  0.4726983569668305 9.001801397181229  0.4726983569668305 9.001801397181229  C 2.65128344239899 9.140610293709894  4.6967288507960605 10.150179571441996  6.189404687366211 11.823393510088314  C 7.682080523936362 13.496607448734629  8.508814962163768 15.70660530988059  8.500001306666475 18  " stroke-width="0.41188961267471313" stroke="#e3e3e3" fill="none" transform="matrix(1 0 0 1 134 226 )" />
  </g>
</svg>