<?xml version="1.0" encoding="utf-8"?>
<svg version="1.1" xmlns:xlink="http://www.w3.org/1999/xlink" width="16px" height="16px" xmlns="http://www.w3.org/2000/svg">
  <defs>
    <mask fill="white" id="clip49">
      <path d="M 8 0  C 12.418278129690325 0  16 3.581722028220409  16 8  C 16 12.41827797177959  12.418278129690325 16  8 16  C 3.5817218703096745 16  0 12.41827797177959  0 8  C 0 3.581722028220409  3.5817218703096745 0  8 0  Z " fill-rule="evenodd" />
    </mask>
  </defs>
  <g transform="matrix(1 0 0 1 -306 -529 )">
    <path d="M 8 0  C 12.418278129690325 0  16 3.581722028220409  16 8  C 16 12.41827797177959  12.418278129690325 16  8 16  C 3.5817218703096745 16  0 12.41827797177959  0 8  C 0 3.581722028220409  3.5817218703096745 0  8 0  Z " fill-rule="nonzero" fill="#8a8a8a" stroke="none" transform="matrix(1 0 0 1 306 529 )" />
    <path d="M 8 0  C 12.418278129690325 0  16 3.581722028220409  16 8  C 16 12.41827797177959  12.418278129690325 16  8 16  C 3.5817218703096745 16  0 12.41827797177959  0 8  C 0 3.581722028220409  3.5817218703096745 0  8 0  Z " stroke-width="2.658681869506836" stroke="#dedede" fill="none" transform="matrix(1 0 0 1 306 529 )" mask="url(#clip49)" />
  </g>
</svg>