<?xml version="1.0" encoding="utf-8"?>
<svg version="1.1" xmlns:xlink="http://www.w3.org/1999/xlink" width="15px" height="15px" xmlns="http://www.w3.org/2000/svg">
  <defs>
    <mask fill="white" id="clip51">
      <path d="M 7.5 0  C 11.642135486826772 0  15 3.357864336156295  15 7.5  C 15 11.642135663843703  11.642135486826772 15  7.5 15  C 3.357864513173227 15  0 11.642135663843703  0 7.5  C 0 3.357864336156295  3.357864513173227 0  7.5 0  Z " fill-rule="evenodd" />
    </mask>
  </defs>
  <g transform="matrix(1 0 0 1 -917 -224 )">
    <path d="M 7.5 0  C 11.642135486826772 0  15 3.357864336156295  15 7.5  C 15 11.642135663843703  11.642135486826772 15  7.5 15  C 3.357864513173227 15  0 11.642135663843703  0 7.5  C 0 3.357864336156295  3.357864513173227 0  7.5 0  Z " fill-rule="nonzero" fill="#8a8a8a" stroke="none" transform="matrix(1 0 0 1 917 224 )" />
    <path d="M 7.5 0  C 11.642135486826772 0  15 3.357864336156295  15 7.5  C 15 11.642135663843703  11.642135486826772 15  7.5 15  C 3.357864513173227 15  0 11.642135663843703  0 7.5  C 0 3.357864336156295  3.357864513173227 0  7.5 0  Z " stroke-width="3.182919502258301" stroke="#dedede" fill="none" transform="matrix(1 0 0 1 917 224 )" mask="url(#clip51)" />
  </g>
</svg>