<?xml version="1.0" encoding="utf-8"?>
<svg version="1.1" xmlns:xlink="http://www.w3.org/1999/xlink" width="9px" height="9px" xmlns="http://www.w3.org/2000/svg">
  <defs>
    <mask fill="white" id="clip50">
      <path d="M 4.5 0  C 6.985281467437744 0  9 2.014718532562256  9 4.5  C 9 6.985281467437744  6.985281467437744 9  4.5 9  C 2.014718532562256 9  0 6.985281467437744  0 4.5  C 0 2.014718532562256  2.014718532562256 0  4.5 0  Z " fill-rule="evenodd" />
    </mask>
  </defs>
  <g transform="matrix(1 0 0 1 -1195 -514 )">
    <path d="M 4.5 0  C 6.985281467437744 0  9 2.014718532562256  9 4.5  C 9 6.985281467437744  6.985281467437744 9  4.5 9  C 2.014718532562256 9  0 6.985281467437744  0 4.5  C 0 2.014718532562256  2.014718532562256 0  4.5 0  Z " fill-rule="nonzero" fill="#8a8a8a" stroke="none" transform="matrix(1 0 0 1 1195 514 )" />
    <path d="M 4.5 0  C 6.985281467437744 0  9 2.014718532562256  9 4.5  C 9 6.985281467437744  6.985281467437744 9  4.5 9  C 2.014718532562256 9  0 6.985281467437744  0 4.5  C 0 2.014718532562256  2.014718532562256 0  4.5 0  Z " stroke-width="1.9393938779830933" stroke="#989b9f" fill="none" transform="matrix(1 0 0 1 1195 514 )" mask="url(#clip50)" />
  </g>
</svg>