<?xml version="1.0" encoding="utf-8"?>
<svg version="1.1" xmlns:xlink="http://www.w3.org/1999/xlink" width="9px" height="9px" xmlns="http://www.w3.org/2000/svg">
  <g transform="matrix(1 0 0 1 -978 -469 )">
    <path d="M 0 4.499370365188191  C 2.4848461111547175 4.49907186453808  4.4991601583829315 2.484809153678671  4.499508572676641 0  C 4.499508572676641 0  4.500614284154199 0  4.500614284154199 0  C 4.500962698447909 2.4847681218368955  6.515210038256252 4.499005157801158  9 4.499370365188191  C 9 4.499370365188191  9 4.500445351452255  9 4.500445351452255  C 6.515153888845282 4.500810558839288  4.50087151564377 6.515145735290605  4.500614284154199 9  C 4.500614284154199 9  4.499508572676641 9  4.499508572676641 9  C 4.49925134118707 6.51510494340112  2.4849025005204353 4.5007438521023655  0 4.500445351452255  C 0 4.500445351452255  0 4.499370365188191  0 4.499370365188191  Z " fill-rule="nonzero" fill="#f4f6f9" stroke="none" transform="matrix(1 0 0 1 978 469 )" />
  </g>
</svg>