<?xml version="1.0" encoding="utf-8"?>
<svg version="1.1" xmlns:xlink="http://www.w3.org/1999/xlink" width="30px" height="42px" xmlns="http://www.w3.org/2000/svg">
  <g transform="matrix(1 0 0 1 -1049 -274 )">
    <path d="M 23.418615076989695 22.608501847512915  C 22.352028859992103 19.758463754973945  19.805895538545794 17.619638363659472  16.70388132506336 17.106683342043073  C 20.82005616618057 16.425657930711665  23.957271673650293 12.881828629247845  23.957271673650293 8.612406186368862  C 23.957271673650293 3.855905568699491  20.06340410356993 0  15.260076161850302 0  C 10.456748220130672 0  6.56288160525746 3.855905568699491  6.56288160525746 8.612406186368862  C 6.56288160525746 12.882086858556011  9.700475374759606 16.42608547520724  13.817017015423412 17.106806308380296  C 10.73934339060331 17.616011802606327  8.208965255931837 19.725692280209383  7.128055230077563 22.54247270800432  C 6.045293057554415 22.61553552200201  3.7136684571494074 23.187692213726486  2.182338378949782 24.99499468452108  C 0.5951833679330591 26.86818251879921  0.0661313791917674 29.59991564419181  0 30.73163349112962  C 0 30.73163349112962  0.025362662181239413 30.728504470794775  0.025362662181239413 30.728504470794775  C -0.07356889633077072 31.751319545909187  0.14022369359501763 34.20651840499778  1.7818540491231198 36.01183449649879  C 3.168063683660863 37.536261421568334  5.262191786492098 38.414505919905764  6.563605652279125 38.789152188994485  C 6.563605652279125 38.789152188994485  6.563605652279125 42  6.563605652279125 42  C 6.563605652279125 42  23.957999541500566 42  23.957999541500566 42  C 23.957999541500566 42  23.957999541500566 38.625077259344295  23.957999541500566 38.625077259344295  C 25.24971089063515 38.18523234647067  27.005175312352737 37.3460154717777  28.21838773768738 36.01183449649879  C 29.860002929301935 34.20653732289582  30.0738012150235 31.751368732444078  29.97487805188685 30.728532847641826  C 29.9833373664302 30.729552522345866  29.991712622744117 30.730585439578533  30 30.73163349112962  C 29.933869098411808 29.59991564419181  29.40481806487767 26.86818251879921  27.817663053860947 24.99499468452108  C 26.509520231287492 23.4511012423744  24.617361845205494 22.808551052064846  23.418615076989695 22.608501847512915  Z M 29.59005565673676 30.691245670616514  C 29.706315829692933 30.701361070695377  29.813646726186683 30.710700836954835  29.910974693378506 30.721243781529267  C 28.314504502209715 31.046635411296272  25.558642077511877 31.745379325926464  23.9821204325178 33.923120725286985  C 23.974027917521045 33.93429741944556  23.965988894124838 33.945470330024534  23.957999541500566 33.95663567344429  C 23.957999541500566 33.95663567344429  23.957999541500566 27.329900305379915  23.957999541500566 27.329900305379915  C 24.264288625393228 27.876447838535558  24.65065463530191 28.397043799167957  25.139338614567546 28.858445656851494  C 26.825737738324182 30.45069892174287  28.55901842913 30.601525647399747  29.59005565673676 30.691245670616514  Z M 6.563605652279125 26.187030357550974  C 6.563605652279125 26.187030357550974  6.563605652279125 34.80716545116169  6.563605652279125 34.80716545116169  C 6.414649693696906 34.51789565590109  6.234834812843079 34.2224775437794  6.01812219009896 33.923120725286985  C 4.441569500872423 31.74533770655079  1.6856424653657807 31.046608926239024  0.08918803511500695 30.721226755421036  C 0.18647328663697033 30.710691378005816  0.29374987064903146 30.701355395325965  0.4099455372721831 30.691245670616514  C 1.4409825260771552 30.601527539189554  3.174264649693697 30.45069892174287  4.860662340639607 28.858445656851494  C 5.682332966109251 28.082645359948593  6.214745373613358 27.1395011206152  6.563605652279125 26.187030357550974  Z " fill-rule="nonzero" fill="#f6f6f6" stroke="none" transform="matrix(1 0 0 1 1049 274 )" />
  </g>
</svg>