<?xml version="1.0" encoding="utf-8"?>
<svg version="1.1" xmlns:xlink="http://www.w3.org/1999/xlink" width="50px" height="23px" xmlns="http://www.w3.org/2000/svg">
  <defs>
    <mask fill="white" id="clip509">
      <path d="M 43.946559712402106 0  C 43.946559712402106 0  6.053447984955054 0  6.053447984955054 0  C 2.710221174321124 0  0 2.6612153566513994  0 5.943990490665242  C 0 5.943990490665242  0 12.87864708661094  0 12.87864708661094  C 0 16.16142340158968  2.7102149202184322 18.822638049662142  6.053441730852362 18.822638049662142  C 6.053441730852362 18.822638049662142  21.5999156985444 18.822638049662142  21.5999156985444 18.822638049662142  L 24.17527244025927 23  L 26.586896773514194 18.822638049662142  C 26.586896773514194 18.822638049662142  43.94655201504495 18.822638049662142  43.94655201504495 18.822638049662142  C 47.289779787848516 18.822638049662142  50 16.16142340158968  50 12.87864708661094  C 50 12.87864708661094  50 5.943990963051202  50 5.943990963051202  C 50 2.6612153566513994  47.2897836365271 0  43.946559712402106 0  Z " fill-rule="evenodd" />
    </mask>
  </defs>
  <g transform="matrix(1 0 0 1 -891 -243 )">
    <path d="M 43.946559712402106 0  C 43.946559712402106 0  6.053447984955054 0  6.053447984955054 0  C 2.710221174321124 0  0 2.6612153566513994  0 5.943990490665242  C 0 5.943990490665242  0 12.87864708661094  0 12.87864708661094  C 0 16.16142340158968  2.7102149202184322 18.822638049662142  6.053441730852362 18.822638049662142  C 6.053441730852362 18.822638049662142  21.5999156985444 18.822638049662142  21.5999156985444 18.822638049662142  L 24.17527244025927 23  L 26.586896773514194 18.822638049662142  C 26.586896773514194 18.822638049662142  43.94655201504495 18.822638049662142  43.94655201504495 18.822638049662142  C 47.289779787848516 18.822638049662142  50 16.16142340158968  50 12.87864708661094  C 50 12.87864708661094  50 5.943990963051202  50 5.943990963051202  C 50 2.6612153566513994  47.2897836365271 0  43.946559712402106 0  Z " fill-rule="nonzero" fill="#f6f6f6" stroke="none" transform="matrix(1 0 0 1 891 243 )" />
    <path d="M 43.946559712402106 0  C 43.946559712402106 0  6.053447984955054 0  6.053447984955054 0  C 2.710221174321124 0  0 2.6612153566513994  0 5.943990490665242  C 0 5.943990490665242  0 12.87864708661094  0 12.87864708661094  C 0 16.16142340158968  2.7102149202184322 18.822638049662142  6.053441730852362 18.822638049662142  C 6.053441730852362 18.822638049662142  21.5999156985444 18.822638049662142  21.5999156985444 18.822638049662142  L 24.17527244025927 23  L 26.586896773514194 18.822638049662142  C 26.586896773514194 18.822638049662142  43.94655201504495 18.822638049662142  43.94655201504495 18.822638049662142  C 47.289779787848516 18.822638049662142  50 16.16142340158968  50 12.87864708661094  C 50 12.87864708661094  50 5.943990963051202  50 5.943990963051202  C 50 2.6612153566513994  47.2897836365271 0  43.946559712402106 0  Z " stroke-width="2" stroke="#989b9f" fill="none" transform="matrix(1 0 0 1 891 243 )" mask="url(#clip509)" />
  </g>
</svg>