<?xml version="1.0" encoding="utf-8"?>
<svg version="1.1" xmlns:xlink="http://www.w3.org/1999/xlink" width="42px" height="61px" xmlns="http://www.w3.org/2000/svg">
  <g transform="matrix(1 0 0 1 -100 -490 )">
    <path d="M 32.7841274414627 32.836140904286125  C 31.290868658803582 28.69675200361311  27.726245941982974 25.59038155688921  23.383437509749335 24.845552520181354  C 29.146614847616757 23.857118693637087  33.53933262251128 18.709783960206494  33.53933262251128 12.508425070383113  C 33.53933262251128 5.600212788609748  28.088147929287274 0  21.3637730336625 0  C 14.63939910150135 0  9.188216335204594 5.600212788609748  9.188216335204594 12.508425070383113  C 9.188216335204594 18.709783960206494  13.58093218317187 23.857118693637087  19.34410855757567 24.845552520181354  C 15.034748691983433 25.584644536194414  11.491634337109499 28.649043844553244  9.978291191740272 32.7406824021907  C 8.462242640514287 32.846966846412734  5.198650760952746 33.678064030874395  3.0551450792701162 36.3026206119078  C 0.833221648018293 39.02318792162758  0.09258018311314366 42.99068287369565  0 44.63435847728798  C 0 44.63435847728798  0.03560505791592036 44.62980260791271  0.03560505791592036 44.62980260791271  C -0.10272641477607959 46.115752326373965  0.1968500703787238 49.68086967389586  2.4946571010021854 52.30243119265478  C 4.435063446373614 54.51623473251273  7.366304213180549 55.79173626603541  9.188248129504192 56.335959406316185  C 9.188248129504192 56.335959406316185  9.188248129504192 61  9.188248129504192 61  C 9.188248129504192 61  33.539363453347256 61  33.539363453347256 61  C 33.539363453347256 61  33.539363453347256 56.098448283514536  33.539363453347256 56.098448283514536  C 35.34783092222738 55.45978289146195  37.80632032137476 54.240777206118196  39.50524197618318 52.30248104644424  C 41.80307959677671 49.680885013523394  42.10263199910444 46.11569863767762  41.9642863303781 44.629787268285185  C 41.97631421026263 44.63129055178275  41.988218766803264 44.632813009814726  42 44.63435847728798  C 41.90742270727773 42.99068287369565  41.16678124237258 39.02318792162758  38.944856847657135 36.3026206119078  C 37.112688173621656 34.05927294943442  34.46218047417092 33.12622860043376  32.7841274414627 32.836140904286125  Z M 41.4264077121134 44.57572275106915  C 41.58803836970944 44.590318406660316  41.7373289852067 44.60380193925583  41.87281894775091 44.61898433559987  C 39.637567924185504 45.0917516559568  35.781115929448774 46.10690903110512  33.57471871450095 49.26888946251832  C 33.56285655035978 49.28589343963109  33.55107146330855 49.302885912023214  33.539363453347256 49.31987071460158  C 33.539363453347256 49.31987071460158  33.539363453347256 39.6897139121746  33.539363453347256 39.6897139121746  C 33.96849785927559 40.48498539654886  34.51006461629373 41.24252139720871  35.19536087677025 41.913791167568206  C 37.55621672609555 44.2263320549053  39.983015879715694 44.44541261523423  41.4264077121134 44.57572275106915  Z M 9.188248129504192 38.03506280508728  C 9.188248129504192 38.03506280508728  9.188248129504192 50.55164280495399  9.188248129504192 50.55164280495399  C 8.979830714853307 50.13188540242067  8.728284814528664 49.70321951120151  8.425180121818507 49.268839608728854  C 6.218840714688141 46.106947380173935  2.3625536077182154 45.091755490863676  0.1272739211099927 44.61897283087922  C 0.26273782497398646 44.60379426944206  0.41232043016586256 44.590283892498384  0.5739036070701713 44.575699741627865  C 2.0172954394678744 44.44538960579295  4.443785200831698 44.2263320549053  6.804640086693374 41.913791167568206  C 7.954606663681458 40.78735629943808  8.6998578202966 39.41800692471022  9.188248129504192 38.03506280508728  Z " fill-rule="nonzero" fill="#c4c4c4" stroke="none" transform="matrix(1 0 0 1 100 490 )" />
  </g>
</svg>