<?xml version="1.0" encoding="utf-8"?>
<svg version="1.1" xmlns:xlink="http://www.w3.org/1999/xlink" width="196px" height="23px" xmlns="http://www.w3.org/2000/svg">
  <defs>
    <mask fill="white" id="clip510">
      <path d="M 0 12.878653434814485  C 0 12.878653434814485  0 5.943993420605108  0 5.943993420605108  C 0 2.661216668430242  2.6876793639156955 0  6.003099445850986 0  C 6.003099445850986 0  189.996900554149 0  189.996900554149 0  C 193.3123330402548 0  196 2.661216668430242  196 5.9439938929913  C 196 5.9439938929913  196 12.878653434814485  196 12.878653434814485  C 196 16.16143136795483  193.31231777358343 18.822647327805786  189.996900554149 18.822647327805786  C 189.996900554149 18.822647327805786  177.14576773597756 18.822647327805786  177.14576773597756 18.822647327805786  L 174.75419786727716 23  L 172.2002669486535 18.822647327805786  L 126.6011088276879 18.822647327805786  L 124.20954659232318 23  L 121.65561567369951 18.822647327805786  L 75.71497264773309 18.822647327805786  L 73.32341041236837 23  L 70.76947949374471 18.822647327805786  L 26.365760898689746 18.822647327805786  L 23.97419866332503 23  L 21.420267744701377 18.822647327805786  C 21.420267744701377 18.822647327805786  6.003092766682266 18.822647327805786  6.003092766682266 18.822647327805786  C 2.687672923288715 18.822647327805786  0 16.16143136795483  0 12.878653434814485  Z " fill-rule="evenodd" />
    </mask>
  </defs>
  <g transform="matrix(1 0 0 1 -484 -485 )">
    <path d="M 0 12.878653434814485  C 0 12.878653434814485  0 5.943993420605108  0 5.943993420605108  C 0 2.661216668430242  2.6876793639156955 0  6.003099445850986 0  C 6.003099445850986 0  189.996900554149 0  189.996900554149 0  C 193.3123330402548 0  196 2.661216668430242  196 5.9439938929913  C 196 5.9439938929913  196 12.878653434814485  196 12.878653434814485  C 196 16.16143136795483  193.31231777358343 18.822647327805786  189.996900554149 18.822647327805786  C 189.996900554149 18.822647327805786  177.14576773597756 18.822647327805786  177.14576773597756 18.822647327805786  L 174.75419786727716 23  L 172.2002669486535 18.822647327805786  L 126.6011088276879 18.822647327805786  L 124.20954659232318 23  L 121.65561567369951 18.822647327805786  L 75.71497264773309 18.822647327805786  L 73.32341041236837 23  L 70.76947949374471 18.822647327805786  L 26.365760898689746 18.822647327805786  L 23.97419866332503 23  L 21.420267744701377 18.822647327805786  C 21.420267744701377 18.822647327805786  6.003092766682266 18.822647327805786  6.003092766682266 18.822647327805786  C 2.687672923288715 18.822647327805786  0 16.16143136795483  0 12.878653434814485  Z " fill-rule="nonzero" fill="#f6f6f6" stroke="none" transform="matrix(1 0 0 1 484 485 )" />
    <path d="M 0 12.878653434814485  C 0 12.878653434814485  0 5.943993420605108  0 5.943993420605108  C 0 2.661216668430242  2.6876793639156955 0  6.003099445850986 0  C 6.003099445850986 0  189.996900554149 0  189.996900554149 0  C 193.3123330402548 0  196 2.661216668430242  196 5.9439938929913  C 196 5.9439938929913  196 12.878653434814485  196 12.878653434814485  C 196 16.16143136795483  193.31231777358343 18.822647327805786  189.996900554149 18.822647327805786  C 189.996900554149 18.822647327805786  177.14576773597756 18.822647327805786  177.14576773597756 18.822647327805786  L 174.75419786727716 23  L 172.2002669486535 18.822647327805786  L 126.6011088276879 18.822647327805786  L 124.20954659232318 23  L 121.65561567369951 18.822647327805786  L 75.71497264773309 18.822647327805786  L 73.32341041236837 23  L 70.76947949374471 18.822647327805786  L 26.365760898689746 18.822647327805786  L 23.97419866332503 23  L 21.420267744701377 18.822647327805786  C 21.420267744701377 18.822647327805786  6.003092766682266 18.822647327805786  6.003092766682266 18.822647327805786  C 2.687672923288715 18.822647327805786  0 16.16143136795483  0 12.878653434814485  Z " stroke-width="2" stroke="#989b9f" fill="none" transform="matrix(1 0 0 1 484 485 )" mask="url(#clip510)" />
  </g>
</svg>