<?xml version="1.0" encoding="utf-8"?>
<svg version="1.1" xmlns:xlink="http://www.w3.org/1999/xlink" width="19px" height="26px" xmlns="http://www.w3.org/2000/svg">
  <g transform="matrix(1 0 0 1 -173 -498 )">
    <path d="M 14.830563602075726 13.99523339700892  C 14.1552029190038 12.231389017880113  12.543330300939912 10.907623455403412  10.579472573550811 10.589742999720885  C 13.186058079684793 10.168037719793098  15.172673169927236 7.974318468179914  15.172673169927236 5.331459536049574  C 15.172673169927236 2.386975791456131  12.706723667564718 0  9.664822180854662 0  C 6.622921183129625 0  4.15697363670719 2.386975791456131  4.15697363670719 5.331459536049574  C 4.15697363670719 7.974169844074307  6.14336477181025 10.16779159070101  8.749733657580158 10.58967200094432  C 6.800782149555502 10.904982300915243  5.198430069840444 12.210955569985096  4.513951772076567 13.954613576961325  C 3.828173996620753 13.99988997010114  2.3517490067684794 14.35411422618142  1.3820535703164063 15.472821122187002  C 0.37692383435493454 16.632408167087576  0.04188010004942352 18.323470280385454  0 19.024054021403472  C 0 19.024054021403472  0.016250219524516885 19.02209445517032  0.016250219524516885 19.02209445517032  C -0.04632931935797631 19.655443301432914  0.08918548890112095 21.17501402316861  1.1286488190908812 22.292406021832235  C 2.0063898889633403 23.235953256153174  3.3323140912408986 23.779603194755616  4.156513990787934 24.011585543950027  C 4.156513990787934 24.011585543950027  4.156513990787934 26  4.156513990787934 26  C 4.156513990787934 26  15.172213524007981 26  15.172213524007981 26  C 15.172213524007981 26  15.172213524007981 23.91032803546531  15.172213524007981 23.91032803546531  C 15.990299154858878 23.638101686413915  17.102384095365874 23.118532639521153  17.870892512959905 22.292406021832235  C 18.910384693265872 21.174983730357276  19.045874618681758 19.65535810290104  18.98328258011968 19.022039549449776  C 18.98891373161558 19.0227022046977  18.9944881608491 19.023372433148463  19 19.024054021403472  C 18.958121366905637 18.323470280385454  18.623076654630086 16.632408167087576  17.617946429683595 15.472821122187002  C 16.788960344756056 14.516446775566894  15.589638520654573 14.118791147887102  14.830563602075726 13.99523339700892  Z M 18.740456530827313 18.999056772150944  C 18.813418963703825 19.005263011872962  18.880826526747637 19.010997819718593  18.942018112211045 19.017452081833408  C 17.930873371512597 19.21895039632245  16.186248166177492 19.651624513904146  15.188105537173723 20.99940091596432  C 15.18277266654032 21.006601138558224  15.177475980798434 21.013799467851424  15.172213524007981 21.0209921172425  C 15.172213524007981 21.0209921172425  15.172213524007981 16.91570464538077  15.172213524007981 16.91570464538077  C 15.366412946923301 17.25496330601179  15.61154211566215 17.578128910621714  15.921790397548941 17.864467923153256  C 16.989766933268164 18.85013920493458  18.087510921094392 18.94351490257038  18.740456530827313 18.999056772150944  Z M 4.156513990787934 16.21115443937873  C 4.156513990787934 16.21115443937873  4.156513990787934 21.545958964454808  4.156513990787934 21.545958964454808  C 4.062254059836737 21.36711209964063  3.9484978071338075 21.184472953507598  3.811436039369574 20.99940091596432  C 2.8133454872704844 19.651694566030358  1.068854611468781 19.218995835539456  0.05768707184375096 19.017484267945452  C 0.11879789455467826 19.011031899131346  0.18676012705992662 19.00525354536942  0.25961968971275373 18.99905109224882  C 0.912566032923207 18.943509222668254  2.010233922455623 18.85013920493458  3.0782105804211013 17.864467923153256  C 3.59844541110206 17.384324970211463  3.9355815123102236 16.800635508228538  4.156513990787934 16.21115443937873  Z " fill-rule="nonzero" fill="#c4c4c4" stroke="none" transform="matrix(1 0 0 1 173 498 )" />
  </g>
</svg>