<?xml version="1.0" encoding="utf-8"?>
<svg version="1.1" xmlns:xlink="http://www.w3.org/1999/xlink" width="137px" height="23px" xmlns="http://www.w3.org/2000/svg">
  <g transform="matrix(1 0 0 1 -946 -243 )">
    <path d="M 130.9835414896478 0  C 130.9835414896478 0  6.016473811036327 0  6.016473811036327 0  C 2.693667271602109 0  0 2.6612433415471846  0 5.944052996675517  C 0 5.944052996675517  0 12.87878251631063  0 12.87878251631063  C 0 16.161593352416283  2.6936591431136643 18.822835985377075  6.016465682547883 18.822835985377075  C 6.016465682547883 18.822835985377075  16.255995732225966 18.822835985377075  16.255995732225966 18.822835985377075  L 18.81547504771133 23  L 21.212231587469432 18.822835985377075  L 65.83410825155843 18.822835985377075  L 68.39359139221483 23  L 70.7903441068019 18.822835985377075  L 115.60197029254907 18.822835985377075  L 118.16145343320547 23  L 120.55820614779255 18.822835985377075  C 120.55820614779255 18.822835985377075  130.98352618896368 18.822835985377075  130.98352618896368 18.822835985377075  C 134.30632985951962 18.822835985377075  137 16.161593352416283  137 12.87878251631063  C 137 12.87878251631063  137 5.9440534690664455  137 5.9440534690664455  C 137 2.6612433415471846  134.30634516020373 0  130.9835414896478 0  Z " fill-rule="nonzero" fill="#f6f6f6" stroke="none" transform="matrix(1 0 0 1 946 243 )" />
  </g>
</svg>