<?xml version="1.0" encoding="utf-8"?>
<svg version="1.1" xmlns:xlink="http://www.w3.org/1999/xlink" width="60px" height="42px" xmlns="http://www.w3.org/2000/svg">
  <g transform="matrix(1 0 0 1 -276 -264 )">
    <path d="M 18.54877951103344 37.14876498324083  L 36.0624586674205 18.574382491620415  L 47.53123565138432 7.1312343841195105  C 47.53123565138432 7.1312343841195105  59 18.574382491620415  59 18.574382491620415  C 59 18.574382491620415  59.041410774097116 28.48348461393358  47.53123565138432 37.14876498324083  C 36.02106052867153 45.81404535254809  18.54877951103344 37.14876498324083  18.54877951103344 37.14876498324083  C 18.54877951103344 37.14876498324083  18.54877951103344 36.112248173735196  18.54877951103344 36.112248173735196  C 19.0870251053258 26.327529333842016  27.16070428145559 18.574382491620415  37.09754638671875 18.574382491620415  C 37.09754638671875 18.574382491620415  36.0624586674205 18.574382491620415  36.0624586674205 18.574382491620415  C 26.29123043930321 18.035393770447474  18.54877951103344 9.950561371254167  18.54877951103344 0  C 18.54877951103344 0  18.54877951103344 1.0365168095056423  18.54877951103344 1.0365168095056423  C 18.01053391674109 10.821235649398819  9.936842105263157 18.574382491620415  0 18.574382491620415  C 0 18.574382491620415  1.0350877192982457 18.574382491620415  1.0350877192982457 18.574382491620415  C 10.806315947415536 19.11337121279336  18.54877951103344 27.198203611986667  18.54877951103344 37.14876498324083  Z " fill-rule="nonzero" fill="#d6d6d6" stroke="none" transform="matrix(1 0 0 1 276 264 )" />
  </g>
</svg>